<svg width="933" height="115" viewBox="0 0 933 115" fill="none" xmlns="http://www.w3.org/2000/svg">
<g filter="url(#filter0_d_73_3170)">
<rect x="4" width="412" height="107" rx="5" fill="white"/>
<rect x="4.5" y="0.5" width="411" height="106" rx="4.5" stroke="black" stroke-opacity="0.15"/>
<path d="M100.598 37V22.4545H109.618V24.3438H102.793V28.7756H108.972V30.6577H102.793V37H100.598ZM112.146 37V26.0909H114.27V37H112.146ZM113.219 24.4077C112.849 24.4077 112.532 24.2846 112.267 24.0384C112.007 23.7874 111.876 23.4891 111.876 23.1435C111.876 22.7931 112.007 22.4948 112.267 22.2486C112.532 21.9976 112.849 21.8722 113.219 21.8722C113.588 21.8722 113.903 21.9976 114.163 22.2486C114.429 22.4948 114.561 22.7931 114.561 23.1435C114.561 23.4891 114.429 23.7874 114.163 24.0384C113.903 24.2846 113.588 24.4077 113.219 24.4077ZM119.25 30.5227V37H117.127V26.0909H119.165V27.8665H119.3C119.551 27.2888 119.944 26.8248 120.479 26.4744C121.019 26.1241 121.698 25.9489 122.517 25.9489C123.261 25.9489 123.912 26.1051 124.471 26.4176C125.029 26.7254 125.462 27.1847 125.77 27.7955C126.078 28.4062 126.232 29.1615 126.232 30.0611V37H124.108V30.3168C124.108 29.526 123.902 28.9081 123.49 28.4631C123.078 28.0133 122.513 27.7884 121.793 27.7884C121.301 27.7884 120.863 27.8949 120.479 28.108C120.1 28.321 119.8 28.6335 119.577 29.0455C119.359 29.4527 119.25 29.9451 119.25 30.5227ZM133.164 37.2131C132.283 37.2131 131.497 36.9882 130.806 36.5384C130.119 36.0838 129.579 35.4375 129.186 34.5994C128.798 33.7566 128.604 32.7457 128.604 31.5668C128.604 30.3878 128.801 29.3793 129.194 28.5412C129.591 27.7031 130.136 27.0616 130.827 26.6165C131.518 26.1714 132.302 25.9489 133.178 25.9489C133.855 25.9489 134.4 26.0625 134.811 26.2898C135.228 26.5123 135.55 26.7727 135.777 27.071C136.009 27.3693 136.189 27.6321 136.317 27.8594H136.445V22.4545H138.569V37H136.495V35.3026H136.317C136.189 35.5346 136.005 35.7997 135.763 36.098C135.526 36.3963 135.2 36.6567 134.783 36.8793C134.366 37.1018 133.827 37.2131 133.164 37.2131ZM133.632 35.402C134.243 35.402 134.759 35.241 135.181 34.919C135.607 34.5923 135.929 34.1402 136.147 33.5625C136.369 32.9848 136.48 32.3125 136.48 31.5455C136.48 30.7879 136.372 30.125 136.154 29.5568C135.936 28.9886 135.616 28.5459 135.195 28.2287C134.774 27.9115 134.253 27.7528 133.632 27.7528C132.993 27.7528 132.461 27.9186 132.034 28.25C131.608 28.5814 131.286 29.0336 131.069 29.6065C130.855 30.1795 130.749 30.8258 130.749 31.5455C130.749 32.2746 130.858 32.9304 131.076 33.5128C131.293 34.0952 131.615 34.5568 132.042 34.8977C132.472 35.2339 133.003 35.402 133.632 35.402ZM141.599 37V26.0909H143.723V37H141.599ZM142.672 24.4077C142.303 24.4077 141.985 24.2846 141.72 24.0384C141.46 23.7874 141.33 23.4891 141.33 23.1435C141.33 22.7931 141.46 22.4948 141.72 22.2486C141.985 21.9976 142.303 21.8722 142.672 21.8722C143.041 21.8722 143.356 21.9976 143.616 22.2486C143.882 22.4948 144.014 22.7931 144.014 23.1435C144.014 23.4891 143.882 23.7874 143.616 24.0384C143.356 24.2846 143.041 24.4077 142.672 24.4077ZM148.703 30.5227V37H146.58V26.0909H148.618V27.8665H148.753C149.004 27.2888 149.397 26.8248 149.932 26.4744C150.472 26.1241 151.151 25.9489 151.971 25.9489C152.714 25.9489 153.365 26.1051 153.924 26.4176C154.482 26.7254 154.916 27.1847 155.223 27.7955C155.531 28.4062 155.685 29.1615 155.685 30.0611V37H153.561V30.3168C153.561 29.526 153.355 28.9081 152.944 28.4631C152.532 28.0133 151.966 27.7884 151.246 27.7884C150.754 27.7884 150.316 27.8949 149.932 28.108C149.553 28.321 149.253 28.6335 149.03 29.0455C148.812 29.4527 148.703 29.9451 148.703 30.5227ZM163.625 26.0909V27.7955H157.667V26.0909H163.625ZM159.265 23.4773H161.388V33.7969C161.388 34.2088 161.45 34.5189 161.573 34.7273C161.696 34.9309 161.855 35.0705 162.049 35.1463C162.248 35.2173 162.463 35.2528 162.695 35.2528C162.865 35.2528 163.015 35.241 163.142 35.2173C163.27 35.1937 163.37 35.1747 163.441 35.1605L163.824 36.9148C163.701 36.9621 163.526 37.0095 163.299 37.0568C163.071 37.1089 162.787 37.1373 162.446 37.142C161.888 37.1515 161.367 37.0521 160.884 36.8438C160.401 36.6354 160.01 36.3134 159.712 35.8778C159.414 35.4422 159.265 34.8954 159.265 34.2372V23.4773ZM165.974 37V26.0909H168.027V27.8239H168.141C168.339 27.2367 168.69 26.7751 169.192 26.4389C169.698 26.098 170.271 25.9276 170.911 25.9276C171.043 25.9276 171.199 25.9323 171.379 25.9418C171.564 25.9512 171.708 25.9631 171.812 25.9773V28.0085C171.727 27.9848 171.576 27.9588 171.358 27.9304C171.14 27.8973 170.922 27.8807 170.705 27.8807C170.203 27.8807 169.755 27.9872 169.362 28.2003C168.974 28.4086 168.666 28.6998 168.439 29.0739C168.212 29.4432 168.098 29.8646 168.098 30.3381V37H165.974ZM177.855 37.2202C176.832 37.2202 175.94 36.9858 175.177 36.517C174.415 36.0483 173.823 35.3925 173.402 34.5497C172.98 33.7069 172.77 32.7221 172.77 31.5952C172.77 30.4635 172.98 29.474 173.402 28.6264C173.823 27.7789 174.415 27.1207 175.177 26.652C175.94 26.1832 176.832 25.9489 177.855 25.9489C178.877 25.9489 179.77 26.1832 180.532 26.652C181.295 27.1207 181.886 27.7789 182.308 28.6264C182.729 29.474 182.94 30.4635 182.94 31.5952C182.94 32.7221 182.729 33.7069 182.308 34.5497C181.886 35.3925 181.295 36.0483 180.532 36.517C179.77 36.9858 178.877 37.2202 177.855 37.2202ZM177.862 35.4375C178.525 35.4375 179.074 35.2623 179.51 34.9119C179.945 34.5616 180.267 34.0952 180.475 33.5128C180.689 32.9304 180.795 32.2888 180.795 31.5881C180.795 30.892 180.689 30.2528 180.475 29.6705C180.267 29.0833 179.945 28.6122 179.51 28.2571C179.074 27.902 178.525 27.7244 177.862 27.7244C177.194 27.7244 176.64 27.902 176.2 28.2571C175.764 28.6122 175.44 29.0833 175.227 29.6705C175.019 30.2528 174.914 30.892 174.914 31.5881C174.914 32.2888 175.019 32.9304 175.227 33.5128C175.44 34.0952 175.764 34.5616 176.2 34.9119C176.64 35.2623 177.194 35.4375 177.862 35.4375ZM193.485 28.7543L191.56 29.0952C191.48 28.849 191.352 28.6146 191.177 28.392C191.006 28.1695 190.774 27.9872 190.481 27.8452C190.187 27.7031 189.82 27.6321 189.38 27.6321C188.779 27.6321 188.277 27.767 187.874 28.0369C187.472 28.3021 187.271 28.6454 187.271 29.0668C187.271 29.4313 187.406 29.7249 187.675 29.9474C187.945 30.17 188.381 30.3523 188.982 30.4943L190.715 30.892C191.719 31.1241 192.467 31.4815 192.96 31.9645C193.452 32.4474 193.698 33.0748 193.698 33.8466C193.698 34.5 193.509 35.0824 193.13 35.5938C192.756 36.1004 192.233 36.4981 191.56 36.7869C190.893 37.0758 190.119 37.2202 189.238 37.2202C188.016 37.2202 187.02 36.9598 186.248 36.4389C185.476 35.9134 185.003 35.1676 184.827 34.2017L186.88 33.8892C187.008 34.4242 187.271 34.8291 187.668 35.1037C188.066 35.3736 188.585 35.5085 189.224 35.5085C189.92 35.5085 190.476 35.3641 190.893 35.0753C191.309 34.7817 191.518 34.4242 191.518 34.0028C191.518 33.6619 191.39 33.3755 191.134 33.1435C190.883 32.9115 190.497 32.7363 189.977 32.6179L188.13 32.2131C187.112 31.9811 186.359 31.6117 185.871 31.1051C185.388 30.5985 185.147 29.9569 185.147 29.1804C185.147 28.5365 185.327 27.973 185.687 27.4901C186.047 27.0071 186.544 26.6307 187.178 26.3608C187.813 26.0862 188.54 25.9489 189.359 25.9489C190.538 25.9489 191.466 26.2045 192.143 26.7159C192.82 27.2225 193.267 27.902 193.485 28.7543ZM197.432 37.1349C197.044 37.1349 196.71 36.9976 196.431 36.723C196.151 36.4437 196.012 36.1075 196.012 35.7145C196.012 35.3262 196.151 34.9948 196.431 34.7202C196.71 34.4408 197.044 34.3011 197.432 34.3011C197.82 34.3011 198.154 34.4408 198.434 34.7202C198.713 34.9948 198.853 35.3262 198.853 35.7145C198.853 35.9749 198.786 36.214 198.654 36.4318C198.526 36.6449 198.355 36.8153 198.142 36.9432C197.929 37.071 197.693 37.1349 197.432 37.1349ZM204.872 37.2415C204.181 37.2415 203.556 37.1136 202.997 36.858C202.438 36.5975 201.995 36.2211 201.669 35.7287C201.347 35.2363 201.186 34.6326 201.186 33.9176C201.186 33.3021 201.304 32.7955 201.541 32.3977C201.778 32 202.097 31.6851 202.5 31.4531C202.902 31.2211 203.352 31.0459 203.849 30.9276C204.346 30.8092 204.853 30.7192 205.369 30.6577C206.022 30.5819 206.553 30.5204 206.96 30.473C207.367 30.4209 207.663 30.3381 207.848 30.2244C208.032 30.1108 208.125 29.9261 208.125 29.6705V29.6207C208.125 29.0005 207.949 28.5199 207.599 28.179C207.253 27.8381 206.737 27.6676 206.051 27.6676C205.336 27.6676 204.772 27.8262 204.36 28.1435C203.953 28.456 203.672 28.804 203.515 29.1875L201.52 28.733C201.756 28.0701 202.102 27.535 202.556 27.1278C203.016 26.7159 203.544 26.4176 204.14 26.233C204.737 26.0436 205.364 25.9489 206.022 25.9489C206.458 25.9489 206.92 26.0009 207.407 26.1051C207.9 26.2045 208.359 26.3892 208.785 26.6591C209.216 26.929 209.569 27.3149 209.843 27.8168C210.118 28.3139 210.255 28.9602 210.255 29.7557V37H208.181V35.5085H208.096C207.959 35.7831 207.753 36.053 207.478 36.3182C207.204 36.5833 206.851 36.8035 206.42 36.9787C205.989 37.1539 205.473 37.2415 204.872 37.2415ZM205.333 35.5369C205.921 35.5369 206.422 35.4209 206.839 35.1889C207.261 34.9569 207.58 34.6539 207.798 34.2798C208.02 33.901 208.132 33.4962 208.132 33.0653V31.6591C208.056 31.7348 207.909 31.8059 207.691 31.8722C207.478 31.9337 207.234 31.9882 206.96 32.0355C206.685 32.0781 206.418 32.1184 206.157 32.1562C205.897 32.1894 205.679 32.2178 205.504 32.2415C205.092 32.2936 204.716 32.3812 204.375 32.5043C204.038 32.6274 203.769 32.8049 203.565 33.0369C203.366 33.2642 203.267 33.5672 203.267 33.946C203.267 34.4716 203.461 34.8693 203.849 35.1392C204.237 35.4044 204.732 35.5369 205.333 35.5369ZM213.084 37V26.0909H215.207V37H213.084ZM214.156 24.4077C213.787 24.4077 213.47 24.2846 213.205 24.0384C212.944 23.7874 212.814 23.4891 212.814 23.1435C212.814 22.7931 212.944 22.4948 213.205 22.2486C213.47 21.9976 213.787 21.8722 214.156 21.8722C214.526 21.8722 214.84 21.9976 215.101 22.2486C215.366 22.4948 215.499 22.7931 215.499 23.1435C215.499 23.4891 215.366 23.7874 215.101 24.0384C214.84 24.2846 214.526 24.4077 214.156 24.4077Z" fill="black"/>
<path d="M100.321 64V53.0909H101.642V57.9489H107.459V53.0909H108.78V64H107.459V59.1207H101.642V64H100.321ZM113.662 64.1918C113.143 64.1918 112.673 64.0941 112.25 63.8988C111.828 63.6999 111.492 63.4141 111.243 63.0412C110.995 62.6648 110.871 62.2102 110.871 61.6776C110.871 61.2088 110.963 60.8288 111.148 60.5376C111.332 60.2429 111.579 60.0121 111.888 59.8452C112.197 59.6783 112.538 59.554 112.911 59.4723C113.287 59.3871 113.665 59.3196 114.045 59.2699C114.542 59.206 114.945 59.158 115.254 59.1261C115.567 59.0906 115.794 59.032 115.936 58.9503C116.082 58.8686 116.155 58.7266 116.155 58.5241V58.4815C116.155 57.956 116.011 57.5476 115.723 57.2564C115.439 56.9652 115.008 56.8196 114.429 56.8196C113.829 56.8196 113.358 56.951 113.017 57.2138C112.676 57.4766 112.437 57.7571 112.298 58.0554L111.105 57.6293C111.318 57.1321 111.602 56.745 111.957 56.468C112.316 56.1875 112.706 55.9922 113.129 55.8821C113.555 55.7685 113.974 55.7116 114.386 55.7116C114.649 55.7116 114.951 55.7436 115.292 55.8075C115.636 55.8679 115.968 55.994 116.288 56.1857C116.611 56.3775 116.879 56.6669 117.092 57.054C117.305 57.4411 117.412 57.9595 117.412 58.6094V64H116.155V62.892H116.091C116.006 63.0696 115.863 63.2596 115.665 63.462C115.466 63.6644 115.201 63.8366 114.871 63.9787C114.541 64.1207 114.138 64.1918 113.662 64.1918ZM113.854 63.0625C114.351 63.0625 114.77 62.9648 115.111 62.7695C115.455 62.5742 115.714 62.3221 115.888 62.0131C116.066 61.7042 116.155 61.3793 116.155 61.0384V59.8878C116.101 59.9517 115.984 60.0103 115.803 60.0636C115.626 60.1133 115.42 60.1577 115.185 60.1967C114.954 60.2322 114.729 60.2642 114.509 60.2926C114.292 60.3175 114.116 60.3388 113.981 60.3565C113.655 60.3991 113.349 60.4684 113.065 60.5643C112.785 60.6566 112.557 60.7969 112.383 60.9851C112.213 61.1697 112.128 61.4219 112.128 61.7415C112.128 62.1783 112.289 62.5085 112.612 62.7322C112.939 62.9524 113.353 63.0625 113.854 63.0625ZM119.706 64V55.8182H120.921V57.054H121.006C121.155 56.6491 121.425 56.3207 121.816 56.0685C122.206 55.8164 122.647 55.6903 123.137 55.6903C123.229 55.6903 123.344 55.6921 123.483 55.6957C123.621 55.6992 123.726 55.7045 123.797 55.7116V56.9901C123.755 56.9794 123.657 56.9634 123.504 56.9421C123.355 56.9173 123.197 56.9048 123.03 56.9048C122.632 56.9048 122.277 56.9883 121.965 57.1552C121.656 57.3185 121.411 57.5458 121.23 57.837C121.052 58.1246 120.963 58.4531 120.963 58.8224V64H119.706ZM126.544 59.0781V64H125.287V55.8182H126.502V57.0966H126.608C126.8 56.6811 127.091 56.3473 127.482 56.0952C127.873 55.8395 128.377 55.7116 128.995 55.7116C129.549 55.7116 130.033 55.8253 130.449 56.0526C130.864 56.2763 131.188 56.6172 131.418 57.0753C131.649 57.5298 131.765 58.1051 131.765 58.8011V64H130.507V58.8864C130.507 58.2436 130.341 57.7429 130.007 57.3842C129.673 57.022 129.215 56.8409 128.632 56.8409C128.231 56.8409 127.873 56.9279 127.556 57.1019C127.244 57.2759 126.997 57.5298 126.816 57.8636C126.635 58.1974 126.544 58.6023 126.544 59.0781ZM137.492 64.1705C136.704 64.1705 136.024 63.9964 135.452 63.6484C134.884 63.2969 134.445 62.8068 134.136 62.1783C133.831 61.5462 133.678 60.8111 133.678 59.973C133.678 59.1349 133.831 58.3963 134.136 57.7571C134.445 57.1143 134.875 56.6136 135.425 56.255C135.979 55.8928 136.626 55.7116 137.364 55.7116C137.79 55.7116 138.211 55.7827 138.627 55.9247C139.042 56.0668 139.42 56.2976 139.761 56.6172C140.102 56.9332 140.374 57.3523 140.576 57.8743C140.779 58.3963 140.88 59.0391 140.88 59.8026V60.3352H134.573V59.2486H139.601C139.601 58.7869 139.509 58.375 139.324 58.0128C139.143 57.6506 138.884 57.3647 138.547 57.1552C138.213 56.9457 137.819 56.8409 137.364 56.8409C136.864 56.8409 136.43 56.9652 136.065 57.2138C135.702 57.4588 135.424 57.7784 135.228 58.1726C135.033 58.5668 134.935 58.9893 134.935 59.4403V60.1648C134.935 60.7827 135.042 61.3065 135.255 61.7362C135.472 62.1623 135.772 62.4872 136.155 62.7109C136.539 62.9311 136.984 63.0412 137.492 63.0412C137.822 63.0412 138.121 62.995 138.387 62.9027C138.657 62.8068 138.889 62.6648 139.085 62.4766C139.28 62.2848 139.431 62.0469 139.538 61.7628L140.752 62.1037C140.624 62.5156 140.409 62.8778 140.108 63.1903C139.806 63.4993 139.433 63.7408 138.989 63.9148C138.545 64.0852 138.046 64.1705 137.492 64.1705ZM148.588 57.6506L147.458 57.9702C147.387 57.782 147.283 57.5991 147.144 57.4215C147.009 57.2404 146.824 57.0913 146.59 56.9741C146.356 56.8569 146.056 56.7983 145.69 56.7983C145.189 56.7983 144.772 56.9137 144.438 57.1445C144.108 57.3718 143.943 57.6612 143.943 58.0128C143.943 58.3253 144.056 58.5721 144.284 58.7532C144.511 58.9343 144.866 59.0852 145.349 59.206L146.563 59.5043C147.295 59.6818 147.84 59.9535 148.199 60.3192C148.557 60.6815 148.737 61.1484 148.737 61.7202C148.737 62.1889 148.602 62.608 148.332 62.9773C148.066 63.3466 147.693 63.6378 147.213 63.8509C146.734 64.0639 146.176 64.1705 145.541 64.1705C144.706 64.1705 144.016 63.9893 143.469 63.6271C142.922 63.2649 142.576 62.7358 142.43 62.0398L143.623 61.7415C143.737 62.1818 143.952 62.5121 144.268 62.7322C144.587 62.9524 145.005 63.0625 145.519 63.0625C146.105 63.0625 146.571 62.9382 146.915 62.6896C147.263 62.4375 147.437 62.1357 147.437 61.7841C147.437 61.5 147.338 61.2621 147.139 61.0703C146.94 60.875 146.634 60.7294 146.223 60.6335L144.859 60.3139C144.11 60.1364 143.559 59.8612 143.208 59.4883C142.86 59.1119 142.686 58.6413 142.686 58.0767C142.686 57.6151 142.815 57.2067 143.074 56.8516C143.337 56.4964 143.694 56.2177 144.145 56.0153C144.6 55.8129 145.115 55.7116 145.69 55.7116C146.5 55.7116 147.135 55.8892 147.597 56.2443C148.062 56.5994 148.392 57.0682 148.588 57.6506ZM156.425 57.6506L155.295 57.9702C155.224 57.782 155.119 57.5991 154.981 57.4215C154.846 57.2404 154.661 57.0913 154.427 56.9741C154.193 56.8569 153.893 56.7983 153.527 56.7983C153.026 56.7983 152.609 56.9137 152.275 57.1445C151.945 57.3718 151.78 57.6612 151.78 58.0128C151.78 58.3253 151.893 58.5721 152.121 58.7532C152.348 58.9343 152.703 59.0852 153.186 59.206L154.4 59.5043C155.132 59.6818 155.677 59.9535 156.036 60.3192C156.394 60.6815 156.574 61.1484 156.574 61.7202C156.574 62.1889 156.439 62.608 156.169 62.9773C155.903 63.3466 155.53 63.6378 155.05 63.8509C154.571 64.0639 154.013 64.1705 153.378 64.1705C152.543 64.1705 151.852 63.9893 151.306 63.6271C150.759 63.2649 150.412 62.7358 150.267 62.0398L151.46 61.7415C151.574 62.1818 151.789 62.5121 152.105 62.7322C152.424 62.9524 152.841 63.0625 153.356 63.0625C153.942 63.0625 154.407 62.9382 154.752 62.6896C155.1 62.4375 155.274 62.1357 155.274 61.7841C155.274 61.5 155.175 61.2621 154.976 61.0703C154.777 60.875 154.471 60.7294 154.059 60.6335L152.696 60.3139C151.947 60.1364 151.396 59.8612 151.045 59.4883C150.697 59.1119 150.523 58.6413 150.523 58.0767C150.523 57.6151 150.652 57.2067 150.911 56.8516C151.174 56.4964 151.531 56.2177 151.982 56.0153C152.437 55.8129 152.952 55.7116 153.527 55.7116C154.336 55.7116 154.972 55.8892 155.434 56.2443C155.899 56.5994 156.229 57.0682 156.425 57.6506ZM163.494 67.0682C163.281 67.0682 163.091 67.0504 162.924 67.0149C162.758 66.983 162.642 66.951 162.578 66.919L162.898 65.8111C163.203 65.8892 163.473 65.9176 163.707 65.8963C163.942 65.875 164.15 65.7702 164.331 65.582C164.515 65.3974 164.684 65.0973 164.837 64.6818L165.071 64.0426L162.046 55.8182H163.409L165.668 62.3381H165.753L168.011 55.8182H169.375L165.902 65.1932C165.746 65.6158 165.552 65.9656 165.321 66.2425C165.091 66.5231 164.823 66.7308 164.517 66.8658C164.215 67.0007 163.874 67.0682 163.494 67.0682ZM174.065 64.1705C173.327 64.1705 172.679 63.9947 172.121 63.6431C171.567 63.2915 171.134 62.7997 170.821 62.1676C170.512 61.5355 170.358 60.7969 170.358 59.9517C170.358 59.0994 170.512 58.3555 170.821 57.7198C171.134 57.0842 171.567 56.5906 172.121 56.239C172.679 55.8874 173.327 55.7116 174.065 55.7116C174.804 55.7116 175.45 55.8874 176.004 56.239C176.562 56.5906 176.995 57.0842 177.304 57.7198C177.616 58.3555 177.773 59.0994 177.773 59.9517C177.773 60.7969 177.616 61.5355 177.304 62.1676C176.995 62.7997 176.562 63.2915 176.004 63.6431C175.45 63.9947 174.804 64.1705 174.065 64.1705ZM174.065 63.0412C174.626 63.0412 175.088 62.8974 175.45 62.6097C175.812 62.3221 176.081 61.9439 176.255 61.4751C176.429 61.0064 176.516 60.4986 176.516 59.9517C176.516 59.4048 176.429 58.8952 176.255 58.4229C176.081 57.9506 175.812 57.5689 175.45 57.2777C175.088 56.9865 174.626 56.8409 174.065 56.8409C173.504 56.8409 173.043 56.9865 172.68 57.2777C172.318 57.5689 172.05 57.9506 171.876 58.4229C171.702 58.8952 171.615 59.4048 171.615 59.9517C171.615 60.4986 171.702 61.0064 171.876 61.4751C172.05 61.9439 172.318 62.3221 172.68 62.6097C173.043 62.8974 173.504 63.0412 174.065 63.0412ZM184.848 60.6548V55.8182H186.105V64H184.848V62.6151H184.763C184.571 63.0305 184.273 63.3839 183.868 63.6751C183.463 63.9627 182.952 64.1065 182.334 64.1065C181.822 64.1065 181.368 63.9947 180.97 63.771C180.572 63.5437 180.26 63.2028 180.032 62.7482C179.805 62.2901 179.692 61.7131 179.692 61.017V55.8182H180.949V60.9318C180.949 61.5284 181.116 62.0043 181.449 62.3594C181.787 62.7145 182.216 62.892 182.738 62.892C183.051 62.892 183.369 62.8121 183.692 62.6523C184.019 62.4925 184.292 62.2475 184.512 61.9173C184.736 61.587 184.848 61.1662 184.848 60.6548ZM188.407 64V55.8182H189.622V57.054H189.707C189.856 56.6491 190.126 56.3207 190.517 56.0685C190.907 55.8164 191.348 55.6903 191.838 55.6903C191.93 55.6903 192.046 55.6921 192.184 55.6957C192.323 55.6992 192.427 55.7045 192.498 55.7116V56.9901C192.456 56.9794 192.358 56.9634 192.205 56.9421C192.056 56.9173 191.898 56.9048 191.731 56.9048C191.334 56.9048 190.978 56.9883 190.666 57.1552C190.357 57.3185 190.112 57.5458 189.931 57.837C189.753 58.1246 189.665 58.4531 189.665 58.8224V64H188.407ZM198.207 64V55.8182H199.464V64H198.207ZM198.846 54.4545C198.601 54.4545 198.39 54.3711 198.213 54.2042C198.039 54.0373 197.952 53.8366 197.952 53.6023C197.952 53.3679 198.039 53.1673 198.213 53.0004C198.39 52.8335 198.601 52.75 198.846 52.75C199.091 52.75 199.301 52.8335 199.475 53.0004C199.653 53.1673 199.741 53.3679 199.741 53.6023C199.741 53.8366 199.653 54.0373 199.475 54.2042C199.301 54.3711 199.091 54.4545 198.846 54.4545ZM203.024 59.0781V64H201.767V55.8182H202.981V57.0966H203.088C203.28 56.6811 203.571 56.3473 203.961 56.0952C204.352 55.8395 204.856 55.7116 205.474 55.7116C206.028 55.7116 206.513 55.8253 206.928 56.0526C207.344 56.2763 207.667 56.6172 207.898 57.0753C208.129 57.5298 208.244 58.1051 208.244 58.8011V64H206.987V58.8864C206.987 58.2436 206.82 57.7429 206.486 57.3842C206.152 57.022 205.694 56.8409 205.112 56.8409C204.711 56.8409 204.352 56.9279 204.036 57.1019C203.723 57.2759 203.477 57.5298 203.296 57.8636C203.114 58.1974 203.024 58.6023 203.024 59.0781ZM216.939 55.8182L213.913 64H212.635L209.609 55.8182H210.973L213.231 62.3381H213.316L215.575 55.8182H216.939ZM221.735 64.1705C220.947 64.1705 220.267 63.9964 219.695 63.6484C219.127 63.2969 218.688 62.8068 218.379 62.1783C218.074 61.5462 217.921 60.8111 217.921 59.973C217.921 59.1349 218.074 58.3963 218.379 57.7571C218.688 57.1143 219.118 56.6136 219.669 56.255C220.222 55.8928 220.869 55.7116 221.607 55.7116C222.034 55.7116 222.454 55.7827 222.87 55.9247C223.285 56.0668 223.664 56.2976 224.004 56.6172C224.345 56.9332 224.617 57.3523 224.819 57.8743C225.022 58.3963 225.123 59.0391 225.123 59.8026V60.3352H218.816V59.2486H223.845C223.845 58.7869 223.752 58.375 223.568 58.0128C223.387 57.6506 223.127 57.3647 222.79 57.1552C222.456 56.9457 222.062 56.8409 221.607 56.8409C221.107 56.8409 220.673 56.9652 220.308 57.2138C219.945 57.4588 219.667 57.7784 219.471 58.1726C219.276 58.5668 219.178 58.9893 219.178 59.4403V60.1648C219.178 60.7827 219.285 61.3065 219.498 61.7362C219.715 62.1623 220.015 62.4872 220.398 62.7109C220.782 62.9311 221.227 63.0412 221.735 63.0412C222.066 63.0412 222.364 62.995 222.63 62.9027C222.9 62.8068 223.133 62.6648 223.328 62.4766C223.523 62.2848 223.674 62.0469 223.781 61.7628L224.995 62.1037C224.867 62.5156 224.653 62.8778 224.351 63.1903C224.049 63.4993 223.676 63.7408 223.232 63.9148C222.788 64.0852 222.289 64.1705 221.735 64.1705ZM232.831 57.6506L231.702 57.9702C231.631 57.782 231.526 57.5991 231.387 57.4215C231.252 57.2404 231.068 57.0913 230.833 56.9741C230.599 56.8569 230.299 56.7983 229.933 56.7983C229.432 56.7983 229.015 56.9137 228.681 57.1445C228.351 57.3718 228.186 57.6612 228.186 58.0128C228.186 58.3253 228.3 58.5721 228.527 58.7532C228.754 58.9343 229.109 59.0852 229.592 59.206L230.807 59.5043C231.538 59.6818 232.083 59.9535 232.442 60.3192C232.801 60.6815 232.98 61.1484 232.98 61.7202C232.98 62.1889 232.845 62.608 232.575 62.9773C232.309 63.3466 231.936 63.6378 231.456 63.8509C230.977 64.0639 230.42 64.1705 229.784 64.1705C228.949 64.1705 228.259 63.9893 227.712 63.6271C227.165 63.2649 226.819 62.7358 226.673 62.0398L227.866 61.7415C227.98 62.1818 228.195 62.5121 228.511 62.7322C228.83 62.9524 229.248 63.0625 229.763 63.0625C230.349 63.0625 230.814 62.9382 231.158 62.6896C231.506 62.4375 231.68 62.1357 231.68 61.7841C231.68 61.5 231.581 61.2621 231.382 61.0703C231.183 60.875 230.878 60.7294 230.466 60.6335L229.102 60.3139C228.353 60.1364 227.802 59.8612 227.451 59.4883C227.103 59.1119 226.929 58.6413 226.929 58.0767C226.929 57.6151 227.058 57.2067 227.318 56.8516C227.58 56.4964 227.937 56.2177 228.388 56.0153C228.843 55.8129 229.358 55.7116 229.933 55.7116C230.743 55.7116 231.378 55.8892 231.84 56.2443C232.305 56.5994 232.635 57.0682 232.831 57.6506ZM238.43 55.8182V56.8835H234.19V55.8182H238.43ZM235.426 53.858H236.683V61.6562C236.683 62.0114 236.735 62.2777 236.838 62.4553C236.944 62.6293 237.079 62.7464 237.243 62.8068C237.41 62.8636 237.585 62.892 237.77 62.892C237.908 62.892 238.022 62.8849 238.111 62.8707C238.2 62.853 238.271 62.8388 238.324 62.8281L238.58 63.9574C238.494 63.9893 238.375 64.0213 238.223 64.0533C238.07 64.0888 237.877 64.1065 237.642 64.1065C237.287 64.1065 236.939 64.0302 236.598 63.8775C236.261 63.7248 235.98 63.4922 235.756 63.1797C235.536 62.8672 235.426 62.473 235.426 61.9972V53.858ZM243.557 64.1705C242.819 64.1705 242.171 63.9947 241.613 63.6431C241.059 63.2915 240.626 62.7997 240.313 62.1676C240.005 61.5355 239.85 60.7969 239.85 59.9517C239.85 59.0994 240.005 58.3555 240.313 57.7198C240.626 57.0842 241.059 56.5906 241.613 56.239C242.171 55.8874 242.819 55.7116 243.557 55.7116C244.296 55.7116 244.942 55.8874 245.496 56.239C246.054 56.5906 246.487 57.0842 246.796 57.7198C247.109 58.3555 247.265 59.0994 247.265 59.9517C247.265 60.7969 247.109 61.5355 246.796 62.1676C246.487 62.7997 246.054 63.2915 245.496 63.6431C244.942 63.9947 244.296 64.1705 243.557 64.1705ZM243.557 63.0412C244.119 63.0412 244.58 62.8974 244.942 62.6097C245.305 62.3221 245.573 61.9439 245.747 61.4751C245.921 61.0064 246.008 60.4986 246.008 59.9517C246.008 59.4048 245.921 58.8952 245.747 58.4229C245.573 57.9506 245.305 57.5689 244.942 57.2777C244.58 56.9865 244.119 56.8409 243.557 56.8409C242.996 56.8409 242.535 56.9865 242.172 57.2777C241.81 57.5689 241.542 57.9506 241.368 58.4229C241.194 58.8952 241.107 59.4048 241.107 59.9517C241.107 60.4986 241.194 61.0064 241.368 61.4751C241.542 61.9439 241.81 62.3221 242.172 62.6097C242.535 62.8974 242.996 63.0412 243.557 63.0412ZM249.184 64V55.8182H250.398V57.054H250.483C250.633 56.6491 250.903 56.3207 251.293 56.0685C251.684 55.8164 252.124 55.6903 252.614 55.6903C252.706 55.6903 252.822 55.6921 252.96 55.6957C253.099 55.6992 253.204 55.7045 253.275 55.7116V56.9901C253.232 56.9794 253.134 56.9634 252.982 56.9421C252.833 56.9173 252.675 56.9048 252.508 56.9048C252.11 56.9048 251.755 56.9883 251.442 57.1552C251.133 57.3185 250.888 57.5458 250.707 57.837C250.53 58.1246 250.441 58.4531 250.441 58.8224V64H249.184ZM262.414 64.1705C261.626 64.1705 260.946 63.9964 260.374 63.6484C259.806 63.2969 259.367 62.8068 259.058 62.1783C258.753 61.5462 258.6 60.8111 258.6 59.973C258.6 59.1349 258.753 58.3963 259.058 57.7571C259.367 57.1143 259.797 56.6136 260.347 56.255C260.901 55.8928 261.547 55.7116 262.286 55.7116C262.712 55.7116 263.133 55.7827 263.549 55.9247C263.964 56.0668 264.342 56.2976 264.683 56.6172C265.024 56.9332 265.296 57.3523 265.498 57.8743C265.701 58.3963 265.802 59.0391 265.802 59.8026V60.3352H259.495V59.2486H264.523C264.523 58.7869 264.431 58.375 264.246 58.0128C264.065 57.6506 263.806 57.3647 263.469 57.1552C263.135 56.9457 262.741 56.8409 262.286 56.8409C261.785 56.8409 261.352 56.9652 260.986 57.2138C260.624 57.4588 260.345 57.7784 260.15 58.1726C259.955 58.5668 259.857 58.9893 259.857 59.4403V60.1648C259.857 60.7827 259.964 61.3065 260.177 61.7362C260.393 62.1623 260.693 62.4872 261.077 62.7109C261.46 62.9311 261.906 63.0412 262.414 63.0412C262.744 63.0412 263.043 62.995 263.309 62.9027C263.579 62.8068 263.811 62.6648 264.007 62.4766C264.202 62.2848 264.353 62.0469 264.459 61.7628L265.674 62.1037C265.546 62.5156 265.331 62.8778 265.029 63.1903C264.728 63.4993 264.355 63.7408 263.911 63.9148C263.467 64.0852 262.968 64.1705 262.414 64.1705ZM271.038 64.1705C270.271 64.1705 269.61 63.9893 269.056 63.6271C268.502 63.2649 268.076 62.766 267.778 62.1303C267.48 61.4947 267.331 60.7685 267.331 59.9517C267.331 59.1207 267.483 58.3874 267.789 57.7518C268.098 57.1126 268.527 56.6136 269.078 56.255C269.632 55.8928 270.278 55.7116 271.017 55.7116C271.592 55.7116 272.11 55.8182 272.572 56.0312C273.034 56.2443 273.412 56.5426 273.707 56.9261C274.001 57.3097 274.184 57.7571 274.255 58.2685H272.998C272.902 57.8956 272.689 57.5653 272.359 57.2777C272.032 56.9865 271.592 56.8409 271.038 56.8409C270.548 56.8409 270.118 56.9687 269.749 57.2244C269.383 57.4766 269.097 57.8335 268.891 58.2951C268.689 58.7532 268.588 59.2912 268.588 59.9091C268.588 60.5412 268.687 61.0916 268.886 61.5604C269.088 62.0291 269.372 62.3931 269.738 62.6523C270.108 62.9116 270.541 63.0412 271.038 63.0412C271.365 63.0412 271.661 62.9844 271.927 62.8707C272.194 62.7571 272.419 62.5938 272.604 62.3807C272.789 62.1676 272.92 61.9119 272.998 61.6136H274.255C274.184 62.0966 274.008 62.5316 273.728 62.9187C273.451 63.3022 273.083 63.6076 272.625 63.8349C272.171 64.0586 271.642 64.1705 271.038 64.1705ZM279.417 64.1705C278.678 64.1705 278.03 63.9947 277.473 63.6431C276.919 63.2915 276.485 62.7997 276.173 62.1676C275.864 61.5355 275.709 60.7969 275.709 59.9517C275.709 59.0994 275.864 58.3555 276.173 57.7198C276.485 57.0842 276.919 56.5906 277.473 56.239C278.03 55.8874 278.678 55.7116 279.417 55.7116C280.155 55.7116 280.802 55.8874 281.356 56.239C281.913 56.5906 282.347 57.0842 282.655 57.7198C282.968 58.3555 283.124 59.0994 283.124 59.9517C283.124 60.7969 282.968 61.5355 282.655 62.1676C282.347 62.7997 281.913 63.2915 281.356 63.6431C280.802 63.9947 280.155 64.1705 279.417 64.1705ZM279.417 63.0412C279.978 63.0412 280.44 62.8974 280.802 62.6097C281.164 62.3221 281.432 61.9439 281.606 61.4751C281.78 61.0064 281.867 60.4986 281.867 59.9517C281.867 59.4048 281.78 58.8952 281.606 58.4229C281.432 57.9506 281.164 57.5689 280.802 57.2777C280.44 56.9865 279.978 56.8409 279.417 56.8409C278.856 56.8409 278.394 56.9865 278.032 57.2777C277.67 57.5689 277.402 57.9506 277.228 58.4229C277.054 58.8952 276.967 59.4048 276.967 59.9517C276.967 60.4986 277.054 61.0064 277.228 61.4751C277.402 61.9439 277.67 62.3221 278.032 62.6097C278.394 62.8974 278.856 63.0412 279.417 63.0412ZM290.839 57.6506L289.709 57.9702C289.638 57.782 289.534 57.5991 289.395 57.4215C289.26 57.2404 289.075 57.0913 288.841 56.9741C288.607 56.8569 288.307 56.7983 287.941 56.7983C287.44 56.7983 287.023 56.9137 286.689 57.1445C286.359 57.3718 286.194 57.6612 286.194 58.0128C286.194 58.3253 286.307 58.5721 286.535 58.7532C286.762 58.9343 287.117 59.0852 287.6 59.206L288.814 59.5043C289.546 59.6818 290.091 59.9535 290.45 60.3192C290.808 60.6815 290.988 61.1484 290.988 61.7202C290.988 62.1889 290.853 62.608 290.583 62.9773C290.317 63.3466 289.944 63.6378 289.464 63.8509C288.985 64.0639 288.427 64.1705 287.792 64.1705C286.957 64.1705 286.267 63.9893 285.72 63.6271C285.173 63.2649 284.827 62.7358 284.681 62.0398L285.874 61.7415C285.988 62.1818 286.203 62.5121 286.519 62.7322C286.838 62.9524 287.256 63.0625 287.77 63.0625C288.356 63.0625 288.822 62.9382 289.166 62.6896C289.514 62.4375 289.688 62.1357 289.688 61.7841C289.688 61.5 289.589 61.2621 289.39 61.0703C289.191 60.875 288.885 60.7294 288.474 60.6335L287.11 60.3139C286.361 60.1364 285.81 59.8612 285.459 59.4883C285.111 59.1119 284.937 58.6413 284.937 58.0767C284.937 57.6151 285.066 57.2067 285.325 56.8516C285.588 56.4964 285.945 56.2177 286.396 56.0153C286.851 55.8129 287.366 55.7116 287.941 55.7116C288.751 55.7116 289.386 55.8892 289.848 56.2443C290.313 56.5994 290.643 57.0682 290.839 57.6506ZM293.69 67.0682C293.477 67.0682 293.287 67.0504 293.12 67.0149C292.953 66.983 292.837 66.951 292.774 66.919L293.093 65.8111C293.399 65.8892 293.668 65.9176 293.903 65.8963C294.137 65.875 294.345 65.7702 294.526 65.582C294.711 65.3974 294.879 65.0973 295.032 64.6818L295.266 64.0426L292.241 55.8182H293.604L295.863 62.3381H295.948L298.207 55.8182H299.57L296.097 65.1932C295.941 65.6158 295.748 65.9656 295.517 66.2425C295.286 66.5231 295.018 66.7308 294.712 66.8658C294.411 67.0007 294.07 67.0682 293.69 67.0682ZM307.025 57.6506L305.896 57.9702C305.825 57.782 305.72 57.5991 305.582 57.4215C305.447 57.2404 305.262 57.0913 305.028 56.9741C304.793 56.8569 304.493 56.7983 304.127 56.7983C303.627 56.7983 303.209 56.9137 302.876 57.1445C302.545 57.3718 302.38 57.6612 302.38 58.0128C302.38 58.3253 302.494 58.5721 302.721 58.7532C302.948 58.9343 303.304 59.0852 303.786 59.206L305.001 59.5043C305.733 59.6818 306.278 59.9535 306.636 60.3192C306.995 60.6815 307.174 61.1484 307.174 61.7202C307.174 62.1889 307.039 62.608 306.769 62.9773C306.503 63.3466 306.13 63.6378 305.651 63.8509C305.171 64.0639 304.614 64.1705 303.978 64.1705C303.144 64.1705 302.453 63.9893 301.906 63.6271C301.359 63.2649 301.013 62.7358 300.867 62.0398L302.061 61.7415C302.174 62.1818 302.389 62.5121 302.705 62.7322C303.025 62.9524 303.442 63.0625 303.957 63.0625C304.543 63.0625 305.008 62.9382 305.353 62.6896C305.701 62.4375 305.875 62.1357 305.875 61.7841C305.875 61.5 305.775 61.2621 305.576 61.0703C305.377 60.875 305.072 60.7294 304.66 60.6335L303.296 60.3139C302.547 60.1364 301.997 59.8612 301.645 59.4883C301.297 59.1119 301.123 58.6413 301.123 58.0767C301.123 57.6151 301.253 57.2067 301.512 56.8516C301.775 56.4964 302.132 56.2177 302.583 56.0153C303.037 55.8129 303.552 55.7116 304.127 55.7116C304.937 55.7116 305.573 55.8892 306.034 56.2443C306.5 56.5994 306.83 57.0682 307.025 57.6506ZM312.625 55.8182V56.8835H308.385V55.8182H312.625ZM309.621 53.858H310.878V61.6562C310.878 62.0114 310.929 62.2777 311.032 62.4553C311.139 62.6293 311.274 62.7464 311.437 62.8068C311.604 62.8636 311.78 62.892 311.964 62.892C312.103 62.892 312.216 62.8849 312.305 62.8707C312.394 62.853 312.465 62.8388 312.518 62.8281L312.774 63.9574C312.689 63.9893 312.57 64.0213 312.417 64.0533C312.264 64.0888 312.071 64.1065 311.836 64.1065C311.481 64.1065 311.133 64.0302 310.792 63.8775C310.455 63.7248 310.175 63.4922 309.951 63.1797C309.731 62.8672 309.621 62.473 309.621 61.9972V53.858ZM317.858 64.1705C317.07 64.1705 316.39 63.9964 315.818 63.6484C315.25 63.2969 314.811 62.8068 314.502 62.1783C314.197 61.5462 314.044 60.8111 314.044 59.973C314.044 59.1349 314.197 58.3963 314.502 57.7571C314.811 57.1143 315.241 56.6136 315.792 56.255C316.346 55.8928 316.992 55.7116 317.73 55.7116C318.157 55.7116 318.577 55.7827 318.993 55.9247C319.408 56.0668 319.787 56.2976 320.127 56.6172C320.468 56.9332 320.74 57.3523 320.942 57.8743C321.145 58.3963 321.246 59.0391 321.246 59.8026V60.3352H314.939V59.2486H319.968C319.968 58.7869 319.875 58.375 319.691 58.0128C319.51 57.6506 319.25 57.3647 318.913 57.1552C318.579 56.9457 318.185 56.8409 317.73 56.8409C317.23 56.8409 316.797 56.9652 316.431 57.2138C316.069 57.4588 315.79 57.7784 315.594 58.1726C315.399 58.5668 315.301 58.9893 315.301 59.4403V60.1648C315.301 60.7827 315.408 61.3065 315.621 61.7362C315.838 62.1623 316.138 62.4872 316.521 62.7109C316.905 62.9311 317.35 63.0412 317.858 63.0412C318.189 63.0412 318.487 62.995 318.753 62.9027C319.023 62.8068 319.256 62.6648 319.451 62.4766C319.646 62.2848 319.797 62.0469 319.904 61.7628L321.118 62.1037C320.99 62.5156 320.776 62.8778 320.474 63.1903C320.172 63.4993 319.799 63.7408 319.355 63.9148C318.911 64.0852 318.412 64.1705 317.858 64.1705ZM323.158 64V55.8182H324.373V57.0966H324.479C324.65 56.6598 324.925 56.3207 325.305 56.0792C325.685 55.8342 326.141 55.7116 326.674 55.7116C327.214 55.7116 327.663 55.8342 328.022 56.0792C328.384 56.3207 328.666 56.6598 328.869 57.0966H328.954C329.163 56.674 329.478 56.3384 329.897 56.0898C330.316 55.8377 330.818 55.7116 331.404 55.7116C332.136 55.7116 332.734 55.9407 333.199 56.3988C333.664 56.8533 333.897 57.5618 333.897 58.5241V64H332.64V58.5241C332.64 57.9205 332.475 57.489 332.145 57.2298C331.814 56.9705 331.425 56.8409 330.978 56.8409C330.403 56.8409 329.957 57.0149 329.641 57.3629C329.325 57.7074 329.167 58.1442 329.167 58.6733V64H327.888V58.3963C327.888 57.9311 327.738 57.5565 327.436 57.2724C327.134 56.9847 326.745 56.8409 326.269 56.8409C325.942 56.8409 325.637 56.9279 325.353 57.1019C325.072 57.2759 324.845 57.5174 324.671 57.8263C324.501 58.1317 324.415 58.4851 324.415 58.8864V64H323.158ZM343.972 55.8182V56.8835H339.732V55.8182H343.972ZM340.968 53.858H342.225V61.6562C342.225 62.0114 342.277 62.2777 342.38 62.4553C342.486 62.6293 342.621 62.7464 342.785 62.8068C342.952 62.8636 343.127 62.892 343.312 62.892C343.45 62.892 343.564 62.8849 343.653 62.8707C343.742 62.853 343.813 62.8388 343.866 62.8281L344.122 63.9574C344.036 63.9893 343.917 64.0213 343.765 64.0533C343.612 64.0888 343.419 64.1065 343.184 64.1065C342.829 64.1065 342.481 64.0302 342.14 63.8775C341.803 63.7248 341.522 63.4922 341.298 63.1797C341.078 62.8672 340.968 62.473 340.968 61.9972V53.858ZM349.099 64.1705C348.361 64.1705 347.713 63.9947 347.155 63.6431C346.601 63.2915 346.168 62.7997 345.855 62.1676C345.547 61.5355 345.392 60.7969 345.392 59.9517C345.392 59.0994 345.547 58.3555 345.855 57.7198C346.168 57.0842 346.601 56.5906 347.155 56.239C347.713 55.8874 348.361 55.7116 349.099 55.7116C349.838 55.7116 350.484 55.8874 351.038 56.239C351.596 56.5906 352.029 57.0842 352.338 57.7198C352.651 58.3555 352.807 59.0994 352.807 59.9517C352.807 60.7969 352.651 61.5355 352.338 62.1676C352.029 62.7997 351.596 63.2915 351.038 63.6431C350.484 63.9947 349.838 64.1705 349.099 64.1705ZM349.099 63.0412C349.661 63.0412 350.122 62.8974 350.484 62.6097C350.847 62.3221 351.115 61.9439 351.289 61.4751C351.463 61.0064 351.55 60.4986 351.55 59.9517C351.55 59.4048 351.463 58.8952 351.289 58.4229C351.115 57.9506 350.847 57.5689 350.484 57.2777C350.122 56.9865 349.661 56.8409 349.099 56.8409C348.538 56.8409 348.077 56.9865 347.714 57.2777C347.352 57.5689 347.084 57.9506 346.91 58.4229C346.736 58.8952 346.649 59.4048 346.649 59.9517C346.649 60.4986 346.736 61.0064 346.91 61.4751C347.084 61.9439 347.352 62.3221 347.714 62.6097C348.077 62.8974 348.538 63.0412 349.099 63.0412ZM100.151 85.0682V73.8182H101.365V75.1179H101.514C101.607 74.9759 101.734 74.7947 101.898 74.5746C102.065 74.3509 102.303 74.152 102.612 73.978C102.924 73.8004 103.347 73.7116 103.879 73.7116C104.568 73.7116 105.175 73.8839 105.701 74.2283C106.227 74.5728 106.637 75.0611 106.931 75.6932C107.226 76.3253 107.374 77.071 107.374 77.9304C107.374 78.7969 107.226 79.5479 106.931 80.1836C106.637 80.8157 106.228 81.3058 105.706 81.6538C105.184 81.9982 104.582 82.1705 103.901 82.1705C103.375 82.1705 102.954 82.0835 102.638 81.9094C102.322 81.7319 102.079 81.5312 101.908 81.3075C101.738 81.0803 101.607 80.892 101.514 80.7429H101.408V85.0682H100.151ZM101.386 77.9091C101.386 78.527 101.477 79.0721 101.658 79.5444C101.839 80.0131 102.104 80.3807 102.452 80.647C102.8 80.9098 103.226 81.0412 103.73 81.0412C104.256 81.0412 104.694 80.9027 105.046 80.6257C105.401 80.3452 105.667 79.9687 105.845 79.4964C106.026 79.0206 106.116 78.4915 106.116 77.9091C106.116 77.3338 106.028 76.8153 105.85 76.3537C105.676 75.8885 105.412 75.521 105.056 75.2511C104.705 74.9776 104.263 74.8409 103.73 74.8409C103.219 74.8409 102.789 74.9705 102.441 75.2298C102.093 75.4854 101.83 75.8441 101.653 76.3058C101.475 76.7638 101.386 77.2983 101.386 77.9091ZM109.291 82V73.8182H110.548V82H109.291ZM109.93 72.4545C109.685 72.4545 109.474 72.3711 109.297 72.2042C109.123 72.0373 109.036 71.8366 109.036 71.6023C109.036 71.3679 109.123 71.1673 109.297 71.0004C109.474 70.8335 109.685 70.75 109.93 70.75C110.175 70.75 110.385 70.8335 110.559 71.0004C110.737 71.1673 110.825 71.3679 110.825 71.6023C110.825 71.8366 110.737 72.0373 110.559 72.2042C110.385 72.3711 110.175 72.4545 109.93 72.4545ZM114.108 77.0781V82H112.851V73.8182H114.065V75.0966H114.172C114.364 74.6811 114.655 74.3473 115.045 74.0952C115.436 73.8395 115.94 73.7116 116.558 73.7116C117.112 73.7116 117.597 73.8253 118.012 74.0526C118.428 74.2763 118.751 74.6172 118.982 75.0753C119.213 75.5298 119.328 76.1051 119.328 76.8011V82H118.071V76.8864C118.071 76.2436 117.904 75.7429 117.57 75.3842C117.236 75.022 116.778 74.8409 116.196 74.8409C115.795 74.8409 115.436 74.9279 115.12 75.1019C114.807 75.2759 114.561 75.5298 114.38 75.8636C114.198 76.1974 114.108 76.6023 114.108 77.0781ZM121.625 85.0682V73.8182H122.84V75.1179H122.989C123.081 74.9759 123.209 74.7947 123.372 74.5746C123.539 74.3509 123.777 74.152 124.086 73.978C124.399 73.8004 124.821 73.7116 125.354 73.7116C126.043 73.7116 126.65 73.8839 127.176 74.2283C127.701 74.5728 128.111 75.0611 128.406 75.6932C128.701 76.3253 128.848 77.071 128.848 77.9304C128.848 78.7969 128.701 79.5479 128.406 80.1836C128.111 80.8157 127.703 81.3058 127.181 81.6538C126.659 81.9982 126.057 82.1705 125.375 82.1705C124.85 82.1705 124.429 82.0835 124.113 81.9094C123.797 81.7319 123.553 81.5312 123.383 81.3075C123.213 81.0803 123.081 80.892 122.989 80.7429H122.882V85.0682H121.625ZM122.861 77.9091C122.861 78.527 122.952 79.0721 123.133 79.5444C123.314 80.0131 123.578 80.3807 123.926 80.647C124.274 80.9098 124.7 81.0412 125.205 81.0412C125.73 81.0412 126.169 80.9027 126.52 80.6257C126.876 80.3452 127.142 79.9687 127.319 79.4964C127.501 79.0206 127.591 78.4915 127.591 77.9091C127.591 77.3338 127.502 76.8153 127.325 76.3537C127.151 75.8885 126.886 75.521 126.531 75.2511C126.18 74.9776 125.737 74.8409 125.205 74.8409C124.693 74.8409 124.264 74.9705 123.916 75.2298C123.568 75.4854 123.305 75.8441 123.127 76.3058C122.95 76.7638 122.861 77.2983 122.861 77.9091ZM134.09 82.1705C133.351 82.1705 132.703 81.9947 132.145 81.6431C131.591 81.2915 131.158 80.7997 130.846 80.1676C130.537 79.5355 130.382 78.7969 130.382 77.9517C130.382 77.0994 130.537 76.3555 130.846 75.7198C131.158 75.0842 131.591 74.5906 132.145 74.239C132.703 73.8874 133.351 73.7116 134.09 73.7116C134.828 73.7116 135.475 73.8874 136.029 74.239C136.586 74.5906 137.019 75.0842 137.328 75.7198C137.641 76.3555 137.797 77.0994 137.797 77.9517C137.797 78.7969 137.641 79.5355 137.328 80.1676C137.019 80.7997 136.586 81.2915 136.029 81.6431C135.475 81.9947 134.828 82.1705 134.09 82.1705ZM134.09 81.0412C134.651 81.0412 135.112 80.8974 135.475 80.6097C135.837 80.3221 136.105 79.9439 136.279 79.4751C136.453 79.0064 136.54 78.4986 136.54 77.9517C136.54 77.4048 136.453 76.8952 136.279 76.4229C136.105 75.9506 135.837 75.5689 135.475 75.2777C135.112 74.9865 134.651 74.8409 134.09 74.8409C133.529 74.8409 133.067 74.9865 132.705 75.2777C132.343 75.5689 132.074 75.9506 131.9 76.4229C131.726 76.8952 131.639 77.4048 131.639 77.9517C131.639 78.4986 131.726 79.0064 131.9 79.4751C132.074 79.9439 132.343 80.3221 132.705 80.6097C133.067 80.8974 133.529 81.0412 134.09 81.0412ZM139.716 82V73.8182H140.973V82H139.716ZM140.355 72.4545C140.11 72.4545 139.899 72.3711 139.721 72.2042C139.547 72.0373 139.46 71.8366 139.46 71.6023C139.46 71.3679 139.547 71.1673 139.721 71.0004C139.899 70.8335 140.11 70.75 140.355 70.75C140.6 70.75 140.81 70.8335 140.984 71.0004C141.161 71.1673 141.25 71.3679 141.25 71.6023C141.25 71.8366 141.161 72.0373 140.984 72.2042C140.81 72.3711 140.6 72.4545 140.355 72.4545ZM144.533 77.0781V82H143.276V73.8182H144.49V75.0966H144.597C144.788 74.6811 145.08 74.3473 145.47 74.0952C145.861 73.8395 146.365 73.7116 146.983 73.7116C147.537 73.7116 148.022 73.8253 148.437 74.0526C148.853 74.2763 149.176 74.6172 149.407 75.0753C149.637 75.5298 149.753 76.1051 149.753 76.8011V82H148.496V76.8864C148.496 76.2436 148.329 75.7429 147.995 75.3842C147.661 75.022 147.203 74.8409 146.621 74.8409C146.219 74.8409 145.861 74.9279 145.545 75.1019C145.232 75.2759 144.985 75.5298 144.804 75.8636C144.623 76.1974 144.533 76.6023 144.533 77.0781ZM155.608 73.8182V74.8835H151.368V73.8182H155.608ZM152.604 71.858H153.861V79.6562C153.861 80.0114 153.913 80.2777 154.016 80.4553C154.122 80.6293 154.257 80.7464 154.42 80.8068C154.587 80.8636 154.763 80.892 154.948 80.892C155.086 80.892 155.2 80.8849 155.289 80.8707C155.377 80.853 155.448 80.8388 155.502 80.8281L155.757 81.9574C155.672 81.9893 155.553 82.0213 155.4 82.0533C155.248 82.0888 155.054 82.1065 154.82 82.1065C154.465 82.1065 154.117 82.0302 153.776 81.8775C153.438 81.7248 153.158 81.4922 152.934 81.1797C152.714 80.8672 152.604 80.473 152.604 79.9972V71.858ZM165.042 82.1705C164.275 82.1705 163.614 81.9893 163.06 81.6271C162.506 81.2649 162.08 80.766 161.782 80.1303C161.484 79.4947 161.334 78.7685 161.334 77.9517C161.334 77.1207 161.487 76.3874 161.793 75.7518C162.101 75.1126 162.531 74.6136 163.082 74.255C163.636 73.8928 164.282 73.7116 165.021 73.7116C165.596 73.7116 166.114 73.8182 166.576 74.0312C167.038 74.2443 167.416 74.5426 167.71 74.9261C168.005 75.3097 168.188 75.7571 168.259 76.2685H167.002C166.906 75.8956 166.693 75.5653 166.363 75.2777C166.036 74.9865 165.596 74.8409 165.042 74.8409C164.552 74.8409 164.122 74.9687 163.753 75.2244C163.387 75.4766 163.101 75.8335 162.895 76.2951C162.693 76.7532 162.592 77.2912 162.592 77.9091C162.592 78.5412 162.691 79.0916 162.89 79.5604C163.092 80.0291 163.376 80.3931 163.742 80.6523C164.111 80.9116 164.545 81.0412 165.042 81.0412C165.369 81.0412 165.665 80.9844 165.931 80.8707C166.198 80.7571 166.423 80.5938 166.608 80.3807C166.793 80.1676 166.924 79.9119 167.002 79.6136H168.259C168.188 80.0966 168.012 80.5316 167.732 80.9187C167.455 81.3022 167.087 81.6076 166.629 81.8349C166.175 82.0586 165.646 82.1705 165.042 82.1705ZM175.253 78.6548V73.8182H176.51V82H175.253V80.6151H175.168C174.976 81.0305 174.678 81.3839 174.273 81.6751C173.868 81.9627 173.357 82.1065 172.739 82.1065C172.228 82.1065 171.773 81.9947 171.375 81.771C170.978 81.5437 170.665 81.2028 170.438 80.7482C170.21 80.2901 170.097 79.7131 170.097 79.017V73.8182H171.354V78.9318C171.354 79.5284 171.521 80.0043 171.855 80.3594C172.192 80.7145 172.622 80.892 173.144 80.892C173.456 80.892 173.774 80.8121 174.097 80.6523C174.424 80.4925 174.697 80.2475 174.918 79.9173C175.141 79.587 175.253 79.1662 175.253 78.6548ZM184.608 75.6506L183.479 75.9702C183.408 75.782 183.303 75.5991 183.165 75.4215C183.03 75.2404 182.845 75.0913 182.611 74.9741C182.376 74.8569 182.076 74.7983 181.71 74.7983C181.21 74.7983 180.792 74.9137 180.459 75.1445C180.128 75.3718 179.963 75.6612 179.963 76.0128C179.963 76.3253 180.077 76.5721 180.304 76.7532C180.531 76.9343 180.887 77.0852 181.369 77.206L182.584 77.5043C183.316 77.6818 183.861 77.9535 184.219 78.3192C184.578 78.6815 184.757 79.1484 184.757 79.7202C184.757 80.1889 184.622 80.608 184.352 80.9773C184.086 81.3466 183.713 81.6378 183.234 81.8509C182.754 82.0639 182.197 82.1705 181.561 82.1705C180.727 82.1705 180.036 81.9893 179.489 81.6271C178.942 81.2649 178.596 80.7358 178.45 80.0398L179.644 79.7415C179.757 80.1818 179.972 80.5121 180.288 80.7322C180.608 80.9524 181.025 81.0625 181.54 81.0625C182.126 81.0625 182.591 80.9382 182.936 80.6896C183.284 80.4375 183.458 80.1357 183.458 79.7841C183.458 79.5 183.358 79.2621 183.159 79.0703C182.96 78.875 182.655 78.7294 182.243 78.6335L180.879 78.3139C180.13 78.1364 179.58 77.8612 179.228 77.4883C178.88 77.1119 178.706 76.6413 178.706 76.0767C178.706 75.6151 178.836 75.2067 179.095 74.8516C179.358 74.4964 179.715 74.2177 180.166 74.0153C180.62 73.8129 181.135 73.7116 181.71 73.7116C182.52 73.7116 183.156 73.8892 183.617 74.2443C184.083 74.5994 184.413 75.0682 184.608 75.6506ZM190.208 73.8182V74.8835H185.968V73.8182H190.208ZM187.204 71.858H188.461V79.6562C188.461 80.0114 188.512 80.2777 188.615 80.4553C188.722 80.6293 188.857 80.7464 189.02 80.8068C189.187 80.8636 189.363 80.892 189.547 80.892C189.686 80.892 189.799 80.8849 189.888 80.8707C189.977 80.853 190.048 80.8388 190.101 80.8281L190.357 81.9574C190.272 81.9893 190.153 82.0213 190 82.0533C189.847 82.0888 189.654 82.1065 189.419 82.1065C189.064 82.1065 188.716 82.0302 188.375 81.8775C188.038 81.7248 187.758 81.4922 187.534 81.1797C187.314 80.8672 187.204 80.473 187.204 79.9972V71.858ZM195.335 82.1705C194.596 82.1705 193.948 81.9947 193.391 81.6431C192.837 81.2915 192.403 80.7997 192.091 80.1676C191.782 79.5355 191.627 78.7969 191.627 77.9517C191.627 77.0994 191.782 76.3555 192.091 75.7198C192.403 75.0842 192.837 74.5906 193.391 74.239C193.948 73.8874 194.596 73.7116 195.335 73.7116C196.073 73.7116 196.72 73.8874 197.274 74.239C197.831 74.5906 198.264 75.0842 198.573 75.7198C198.886 76.3555 199.042 77.0994 199.042 77.9517C199.042 78.7969 198.886 79.5355 198.573 80.1676C198.264 80.7997 197.831 81.2915 197.274 81.6431C196.72 81.9947 196.073 82.1705 195.335 82.1705ZM195.335 81.0412C195.896 81.0412 196.358 80.8974 196.72 80.6097C197.082 80.3221 197.35 79.9439 197.524 79.4751C197.698 79.0064 197.785 78.4986 197.785 77.9517C197.785 77.4048 197.698 76.8952 197.524 76.4229C197.35 75.9506 197.082 75.5689 196.72 75.2777C196.358 74.9865 195.896 74.8409 195.335 74.8409C194.774 74.8409 194.312 74.9865 193.95 75.2777C193.588 75.5689 193.32 75.9506 193.146 76.4229C192.972 76.8952 192.884 77.4048 192.884 77.9517C192.884 78.4986 192.972 79.0064 193.146 79.4751C193.32 79.9439 193.588 80.3221 193.95 80.6097C194.312 80.8974 194.774 81.0412 195.335 81.0412ZM200.961 82V73.8182H202.176V75.0966H202.282C202.453 74.6598 202.728 74.3207 203.108 74.0792C203.488 73.8342 203.944 73.7116 204.477 73.7116C205.017 73.7116 205.466 73.8342 205.824 74.0792C206.187 74.3207 206.469 74.6598 206.671 75.0966H206.757C206.966 74.674 207.28 74.3384 207.699 74.0898C208.118 73.8377 208.621 73.7116 209.207 73.7116C209.938 73.7116 210.537 73.9407 211.002 74.3988C211.467 74.8533 211.7 75.5618 211.7 76.5241V82H210.443V76.5241C210.443 75.9205 210.278 75.489 209.947 75.2298C209.617 74.9705 209.228 74.8409 208.781 74.8409C208.205 74.8409 207.76 75.0149 207.444 75.3629C207.128 75.7074 206.97 76.1442 206.97 76.6733V82H205.691V76.3963C205.691 75.9311 205.54 75.5565 205.238 75.2724C204.937 74.9847 204.548 74.8409 204.072 74.8409C203.745 74.8409 203.44 74.9279 203.156 75.1019C202.875 75.2759 202.648 75.5174 202.474 75.8263C202.303 76.1317 202.218 76.4851 202.218 76.8864V82H200.961ZM217.429 82.1705C216.64 82.1705 215.96 81.9964 215.388 81.6484C214.82 81.2969 214.382 80.8068 214.073 80.1783C213.767 79.5462 213.615 78.8111 213.615 77.973C213.615 77.1349 213.767 76.3963 214.073 75.7571C214.382 75.1143 214.811 74.6136 215.362 74.255C215.916 73.8928 216.562 73.7116 217.301 73.7116C217.727 73.7116 218.148 73.7827 218.563 73.9247C218.979 74.0668 219.357 74.2976 219.698 74.6172C220.039 74.9332 220.31 75.3523 220.513 75.8743C220.715 76.3963 220.816 77.0391 220.816 77.8026V78.3352H214.51V77.2486H219.538C219.538 76.7869 219.446 76.375 219.261 76.0128C219.08 75.6506 218.821 75.3647 218.483 75.1552C218.15 74.9457 217.755 74.8409 217.301 74.8409C216.8 74.8409 216.367 74.9652 216.001 75.2138C215.639 75.4588 215.36 75.7784 215.165 76.1726C214.969 76.5668 214.872 76.9893 214.872 77.4403V78.1648C214.872 78.7827 214.978 79.3065 215.191 79.7362C215.408 80.1623 215.708 80.4872 216.092 80.7109C216.475 80.9311 216.921 81.0412 217.429 81.0412C217.759 81.0412 218.057 80.995 218.324 80.9027C218.593 80.8068 218.826 80.6648 219.021 80.4766C219.217 80.2848 219.368 80.0469 219.474 79.7628L220.689 80.1037C220.561 80.5156 220.346 80.8778 220.044 81.1903C219.742 81.4993 219.369 81.7408 218.925 81.9148C218.482 82.0852 217.983 82.1705 217.429 82.1705ZM222.729 82V73.8182H223.943V75.054H224.028C224.178 74.6491 224.447 74.3207 224.838 74.0685C225.229 73.8164 225.669 73.6903 226.159 73.6903C226.251 73.6903 226.367 73.6921 226.505 73.6957C226.644 73.6992 226.749 73.7045 226.82 73.7116V74.9901C226.777 74.9794 226.679 74.9634 226.527 74.9421C226.377 74.9173 226.219 74.9048 226.053 74.9048C225.655 74.9048 225.3 74.9883 224.987 75.1552C224.678 75.3185 224.433 75.5458 224.252 75.837C224.075 76.1246 223.986 76.4531 223.986 76.8224V82H222.729ZM234.105 75.6506L232.976 75.9702C232.905 75.782 232.8 75.5991 232.662 75.4215C232.527 75.2404 232.342 75.0913 232.108 74.9741C231.873 74.8569 231.573 74.7983 231.207 74.7983C230.707 74.7983 230.29 74.9137 229.956 75.1445C229.625 75.3718 229.46 75.6612 229.46 76.0128C229.46 76.3253 229.574 76.5721 229.801 76.7532C230.028 76.9343 230.384 77.0852 230.867 77.206L232.081 77.5043C232.813 77.6818 233.358 77.9535 233.716 78.3192C234.075 78.6815 234.254 79.1484 234.254 79.7202C234.254 80.1889 234.119 80.608 233.85 80.9773C233.583 81.3466 233.21 81.6378 232.731 81.8509C232.252 82.0639 231.694 82.1705 231.058 82.1705C230.224 82.1705 229.533 81.9893 228.986 81.6271C228.439 81.2649 228.093 80.7358 227.948 80.0398L229.141 79.7415C229.254 80.1818 229.469 80.5121 229.785 80.7322C230.105 80.9524 230.522 81.0625 231.037 81.0625C231.623 81.0625 232.088 80.9382 232.433 80.6896C232.781 80.4375 232.955 80.1357 232.955 79.7841C232.955 79.5 232.855 79.2621 232.656 79.0703C232.457 78.875 232.152 78.7294 231.74 78.6335L230.377 78.3139C229.627 78.1364 229.077 77.8612 228.725 77.4883C228.377 77.1119 228.203 76.6413 228.203 76.0767C228.203 75.6151 228.333 75.2067 228.592 74.8516C228.855 74.4964 229.212 74.2177 229.663 74.0153C230.117 73.8129 230.632 73.7116 231.207 73.7116C232.017 73.7116 232.653 73.8892 233.114 74.2443C233.58 74.5994 233.91 75.0682 234.105 75.6506ZM243.455 82.1491C242.738 82.1491 242.12 82.0178 241.601 81.755C241.083 81.4922 240.683 81.1317 240.403 80.6737C240.122 80.2156 239.982 79.6918 239.982 79.1023C239.982 78.6477 240.078 78.2447 240.27 77.8931C240.465 77.538 240.733 77.2095 241.074 76.9077C241.418 76.6023 241.814 76.2969 242.262 75.9915L243.838 74.8196C244.147 74.6172 244.394 74.4006 244.579 74.1697C244.767 73.9389 244.861 73.6371 244.861 73.2642C244.861 72.9872 244.739 72.7191 244.494 72.4599C244.252 72.2006 243.934 72.071 243.54 72.071C243.263 72.071 243.018 72.142 242.805 72.2841C242.596 72.4226 242.43 72.6001 242.31 72.8168C242.192 73.0298 242.134 73.25 242.134 73.4773C242.134 73.733 242.203 73.9922 242.342 74.255C242.484 74.5142 242.663 74.7805 242.88 75.054C243.1 75.3239 243.327 75.6009 243.561 75.8849L248.569 82H247.056L242.922 77.0142C242.539 76.5526 242.191 76.1335 241.878 75.7571C241.566 75.3807 241.317 75.0096 241.132 74.6438C240.948 74.2781 240.855 73.8821 240.855 73.456C240.855 72.9659 240.964 72.5362 241.18 72.1669C241.401 71.794 241.708 71.5046 242.102 71.2987C242.5 71.0891 242.965 70.9844 243.498 70.9844C244.044 70.9844 244.515 71.0909 244.909 71.304C245.303 71.5135 245.607 71.7923 245.82 72.1403C246.033 72.4847 246.14 72.8594 246.14 73.2642C246.14 73.7862 246.01 74.239 245.751 74.6225C245.491 75.006 245.138 75.3629 244.691 75.6932L242.517 77.3125C242.027 77.6747 241.695 78.0263 241.521 78.3672C241.347 78.7081 241.26 78.9531 241.26 79.1023C241.26 79.4432 241.349 79.761 241.527 80.0558C241.704 80.3505 241.955 80.5884 242.278 80.7695C242.601 80.9506 242.979 81.0412 243.412 81.0412C243.824 81.0412 244.225 80.9542 244.616 80.7802C245.007 80.6026 245.36 80.3469 245.676 80.0131C245.996 79.6793 246.248 79.2781 246.433 78.8093C246.621 78.3406 246.715 77.8132 246.715 77.2273H247.929C247.929 77.9517 247.846 78.543 247.679 79.0011C247.512 79.4592 247.324 79.8178 247.114 80.0771C246.905 80.3363 246.736 80.5298 246.608 80.6577C246.566 80.7109 246.527 80.7642 246.491 80.8175C246.456 80.8707 246.417 80.924 246.374 80.9773C246.022 81.3714 245.578 81.6662 245.042 81.8615C244.506 82.0533 243.977 82.1491 243.455 82.1491ZM254.179 82V73.8182H255.393V75.054H255.479C255.628 74.6491 255.898 74.3207 256.288 74.0685C256.679 73.8164 257.119 73.6903 257.609 73.6903C257.702 73.6903 257.817 73.6921 257.956 73.6957C258.094 73.6992 258.199 73.7045 258.27 73.7116V74.9901C258.227 74.9794 258.13 74.9634 257.977 74.9421C257.828 74.9173 257.67 74.9048 257.503 74.9048C257.105 74.9048 256.75 74.9883 256.437 75.1552C256.128 75.3185 255.883 75.5458 255.702 75.837C255.525 76.1246 255.436 76.4531 255.436 76.8224V82H254.179ZM262.941 82.1705C262.153 82.1705 261.473 81.9964 260.901 81.6484C260.333 81.2969 259.894 80.8068 259.585 80.1783C259.28 79.5462 259.127 78.8111 259.127 77.973C259.127 77.1349 259.28 76.3963 259.585 75.7571C259.894 75.1143 260.324 74.6136 260.875 74.255C261.429 73.8928 262.075 73.7116 262.813 73.7116C263.24 73.7116 263.66 73.7827 264.076 73.9247C264.491 74.0668 264.87 74.2976 265.21 74.6172C265.551 74.9332 265.823 75.3523 266.025 75.8743C266.228 76.3963 266.329 77.0391 266.329 77.8026V78.3352H260.022V77.2486H265.051C265.051 76.7869 264.958 76.375 264.774 76.0128C264.593 75.6506 264.333 75.3647 263.996 75.1552C263.662 74.9457 263.268 74.8409 262.813 74.8409C262.313 74.8409 261.88 74.9652 261.514 75.2138C261.152 75.4588 260.873 75.7784 260.677 76.1726C260.482 76.5668 260.384 76.9893 260.384 77.4403V78.1648C260.384 78.7827 260.491 79.3065 260.704 79.7362C260.921 80.1623 261.221 80.4872 261.604 80.7109C261.988 80.9311 262.434 81.0412 262.941 81.0412C263.272 81.0412 263.57 80.995 263.836 80.9027C264.106 80.8068 264.339 80.6648 264.534 80.4766C264.729 80.2848 264.88 80.0469 264.987 79.7628L266.201 80.1037C266.073 80.5156 265.859 80.8778 265.557 81.1903C265.255 81.4993 264.882 81.7408 264.438 81.9148C263.994 82.0852 263.495 82.1705 262.941 82.1705ZM273.824 85.0682V80.7429H273.717C273.625 80.892 273.494 81.0803 273.323 81.3075C273.153 81.5312 272.909 81.7319 272.593 81.9094C272.277 82.0835 271.856 82.1705 271.331 82.1705C270.649 82.1705 270.047 81.9982 269.525 81.6538C269.003 81.3058 268.595 80.8157 268.3 80.1836C268.005 79.5479 267.858 78.7969 267.858 77.9304C267.858 77.071 268.005 76.3253 268.3 75.6932C268.595 75.0611 269.005 74.5728 269.53 74.2283C270.056 73.8839 270.663 73.7116 271.352 73.7116C271.885 73.7116 272.306 73.8004 272.615 73.978C272.927 74.152 273.165 74.3509 273.328 74.5746C273.495 74.7947 273.625 74.9759 273.717 75.1179H273.866V73.8182H275.081V85.0682H273.824ZM271.501 81.0412C272.006 81.0412 272.432 80.9098 272.78 80.647C273.128 80.3807 273.392 80.0131 273.573 79.5444C273.755 79.0721 273.845 78.527 273.845 77.9091C273.845 77.2983 273.756 76.7638 273.579 76.3058C273.401 75.8441 273.138 75.4854 272.79 75.2298C272.442 74.9705 272.013 74.8409 271.501 74.8409C270.969 74.8409 270.525 74.9776 270.17 75.2511C269.818 75.521 269.554 75.8885 269.376 76.3537C269.202 76.8153 269.115 77.3338 269.115 77.9091C269.115 78.4915 269.204 79.0206 269.381 79.4964C269.562 79.9687 269.829 80.3452 270.18 80.6257C270.535 80.9027 270.976 81.0412 271.501 81.0412ZM282.538 78.6548V73.8182H283.795V82H282.538V80.6151H282.453C282.261 81.0305 281.963 81.3839 281.558 81.6751C281.153 81.9627 280.642 82.1065 280.024 82.1065C279.513 82.1065 279.058 81.9947 278.66 81.771C278.263 81.5437 277.95 81.2028 277.723 80.7482C277.496 80.2901 277.382 79.7131 277.382 79.017V73.8182H278.639V78.9318C278.639 79.5284 278.806 80.0043 279.14 80.3594C279.477 80.7145 279.907 80.892 280.429 80.892C280.741 80.892 281.059 80.8121 281.382 80.6523C281.709 80.4925 281.983 80.2475 282.203 79.9173C282.426 79.587 282.538 79.1662 282.538 78.6548ZM289.528 82.1705C288.74 82.1705 288.06 81.9964 287.488 81.6484C286.92 81.2969 286.481 80.8068 286.172 80.1783C285.867 79.5462 285.714 78.8111 285.714 77.973C285.714 77.1349 285.867 76.3963 286.172 75.7571C286.481 75.1143 286.911 74.6136 287.461 74.255C288.015 73.8928 288.662 73.7116 289.4 73.7116C289.827 73.7116 290.247 73.7827 290.663 73.9247C291.078 74.0668 291.456 74.2976 291.797 74.6172C292.138 74.9332 292.41 75.3523 292.612 75.8743C292.815 76.3963 292.916 77.0391 292.916 77.8026V78.3352H286.609V77.2486H291.638C291.638 76.7869 291.545 76.375 291.361 76.0128C291.18 75.6506 290.92 75.3647 290.583 75.1552C290.249 74.9457 289.855 74.8409 289.4 74.8409C288.9 74.8409 288.466 74.9652 288.101 75.2138C287.738 75.4588 287.46 75.7784 287.264 76.1726C287.069 76.5668 286.971 76.9893 286.971 77.4403V78.1648C286.971 78.7827 287.078 79.3065 287.291 79.7362C287.508 80.1623 287.808 80.4872 288.191 80.7109C288.575 80.9311 289.02 81.0412 289.528 81.0412C289.858 81.0412 290.157 80.995 290.423 80.9027C290.693 80.8068 290.926 80.6648 291.121 80.4766C291.316 80.2848 291.467 80.0469 291.574 79.7628L292.788 80.1037C292.66 80.5156 292.445 80.8778 292.144 81.1903C291.842 81.4993 291.469 81.7408 291.025 81.9148C290.581 82.0852 290.082 82.1705 289.528 82.1705ZM300.624 75.6506L299.494 75.9702C299.423 75.782 299.319 75.5991 299.18 75.4215C299.045 75.2404 298.861 75.0913 298.626 74.9741C298.392 74.8569 298.092 74.7983 297.726 74.7983C297.225 74.7983 296.808 74.9137 296.474 75.1445C296.144 75.3718 295.979 75.6612 295.979 76.0128C295.979 76.3253 296.093 76.5721 296.32 76.7532C296.547 76.9343 296.902 77.0852 297.385 77.206L298.6 77.5043C299.331 77.6818 299.876 77.9535 300.235 78.3192C300.594 78.6815 300.773 79.1484 300.773 79.7202C300.773 80.1889 300.638 80.608 300.368 80.9773C300.102 81.3466 299.729 81.6378 299.249 81.8509C298.77 82.0639 298.213 82.1705 297.577 82.1705C296.742 82.1705 296.052 81.9893 295.505 81.6271C294.958 81.2649 294.612 80.7358 294.466 80.0398L295.659 79.7415C295.773 80.1818 295.988 80.5121 296.304 80.7322C296.623 80.9524 297.041 81.0625 297.556 81.0625C298.142 81.0625 298.607 80.9382 298.951 80.6896C299.299 80.4375 299.473 80.1357 299.473 79.7841C299.473 79.5 299.374 79.2621 299.175 79.0703C298.976 78.875 298.671 78.7294 298.259 78.6335L296.895 78.3139C296.146 78.1364 295.595 77.8612 295.244 77.4883C294.896 77.1119 294.722 76.6413 294.722 76.0767C294.722 75.6151 294.851 75.2067 295.111 74.8516C295.373 74.4964 295.73 74.2177 296.181 74.0153C296.636 73.8129 297.151 73.7116 297.726 73.7116C298.536 73.7116 299.171 73.8892 299.633 74.2443C300.098 74.5994 300.428 75.0682 300.624 75.6506ZM306.223 73.8182V74.8835H301.983V73.8182H306.223ZM303.219 71.858H304.476V79.6562C304.476 80.0114 304.528 80.2777 304.631 80.4553C304.737 80.6293 304.872 80.7464 305.036 80.8068C305.203 80.8636 305.378 80.892 305.563 80.892C305.701 80.892 305.815 80.8849 305.904 80.8707C305.993 80.853 306.064 80.8388 306.117 80.8281L306.373 81.9574C306.287 81.9893 306.168 82.0213 306.016 82.0533C305.863 82.0888 305.669 82.1065 305.435 82.1065C305.08 82.1065 304.732 82.0302 304.391 81.8775C304.054 81.7248 303.773 81.4922 303.549 81.1797C303.329 80.8672 303.219 80.473 303.219 79.9972V71.858ZM312.333 82V73.8182H313.59V82H312.333ZM312.972 72.4545C312.727 72.4545 312.516 72.3711 312.339 72.2042C312.165 72.0373 312.078 71.8366 312.078 71.6023C312.078 71.3679 312.165 71.1673 312.339 71.0004C312.516 70.8335 312.727 70.75 312.972 70.75C313.217 70.75 313.427 70.8335 313.601 71.0004C313.778 71.1673 313.867 71.3679 313.867 71.6023C313.867 71.8366 313.778 72.0373 313.601 72.2042C313.427 72.3711 313.217 72.4545 312.972 72.4545ZM317.15 77.0781V82H315.893V73.8182H317.107V75.0966H317.214C317.406 74.6811 317.697 74.3473 318.087 74.0952C318.478 73.8395 318.982 73.7116 319.6 73.7116C320.154 73.7116 320.639 73.8253 321.054 74.0526C321.47 74.2763 321.793 74.6172 322.024 75.0753C322.255 75.5298 322.37 76.1051 322.37 76.8011V82H321.113V76.8864C321.113 76.2436 320.946 75.7429 320.612 75.3842C320.278 75.022 319.82 74.8409 319.238 74.8409C318.837 74.8409 318.478 74.9279 318.162 75.1019C317.849 75.2759 317.603 75.5298 317.422 75.8636C317.24 76.1974 317.15 76.6023 317.15 77.0781ZM328.225 73.8182V74.8835H323.985V73.8182H328.225ZM325.221 71.858H326.478V79.6562C326.478 80.0114 326.53 80.2777 326.633 80.4553C326.739 80.6293 326.874 80.7464 327.038 80.8068C327.204 80.8636 327.38 80.892 327.565 80.892C327.703 80.892 327.817 80.8849 327.906 80.8707C327.995 80.853 328.066 80.8388 328.119 80.8281L328.375 81.9574C328.289 81.9893 328.17 82.0213 328.018 82.0533C327.865 82.0888 327.671 82.1065 327.437 82.1065C327.082 82.1065 326.734 82.0302 326.393 81.8775C326.056 81.7248 325.775 81.4922 325.551 81.1797C325.331 80.8672 325.221 80.473 325.221 79.9972V71.858ZM330.116 82V73.8182H331.331V75.054H331.416C331.565 74.6491 331.835 74.3207 332.226 74.0685C332.616 73.8164 333.057 73.6903 333.547 73.6903C333.639 73.6903 333.755 73.6921 333.893 73.6957C334.032 73.6992 334.136 73.7045 334.207 73.7116V74.9901C334.165 74.9794 334.067 74.9634 333.914 74.9421C333.765 74.9173 333.607 74.9048 333.44 74.9048C333.043 74.9048 332.687 74.9883 332.375 75.1552C332.066 75.3185 331.821 75.5458 331.64 75.837C331.462 76.1246 331.373 76.4531 331.373 76.8224V82H330.116ZM338.772 82.1705C338.034 82.1705 337.386 81.9947 336.828 81.6431C336.274 81.2915 335.841 80.7997 335.528 80.1676C335.219 79.5355 335.065 78.7969 335.065 77.9517C335.065 77.0994 335.219 76.3555 335.528 75.7198C335.841 75.0842 336.274 74.5906 336.828 74.239C337.386 73.8874 338.034 73.7116 338.772 73.7116C339.511 73.7116 340.157 73.8874 340.711 74.239C341.269 74.5906 341.702 75.0842 342.011 75.7198C342.323 76.3555 342.48 77.0994 342.48 77.9517C342.48 78.7969 342.323 79.5355 342.011 80.1676C341.702 80.7997 341.269 81.2915 340.711 81.6431C340.157 81.9947 339.511 82.1705 338.772 82.1705ZM338.772 81.0412C339.333 81.0412 339.795 80.8974 340.157 80.6097C340.519 80.3221 340.788 79.9439 340.962 79.4751C341.136 79.0064 341.223 78.4986 341.223 77.9517C341.223 77.4048 341.136 76.8952 340.962 76.4229C340.788 75.9506 340.519 75.5689 340.157 75.2777C339.795 74.9865 339.333 74.8409 338.772 74.8409C338.211 74.8409 337.75 74.9865 337.387 75.2777C337.025 75.5689 336.757 75.9506 336.583 76.4229C336.409 76.8952 336.322 77.4048 336.322 77.9517C336.322 78.4986 336.409 79.0064 336.583 79.4751C336.757 79.9439 337.025 80.3221 337.387 80.6097C337.75 80.8974 338.211 81.0412 338.772 81.0412ZM350.194 75.6506L349.065 75.9702C348.994 75.782 348.889 75.5991 348.751 75.4215C348.616 75.2404 348.431 75.0913 348.197 74.9741C347.962 74.8569 347.662 74.7983 347.296 74.7983C346.796 74.7983 346.378 74.9137 346.045 75.1445C345.714 75.3718 345.549 75.6612 345.549 76.0128C345.549 76.3253 345.663 76.5721 345.89 76.7532C346.117 76.9343 346.472 77.0852 346.955 77.206L348.17 77.5043C348.901 77.6818 349.447 77.9535 349.805 78.3192C350.164 78.6815 350.343 79.1484 350.343 79.7202C350.343 80.1889 350.208 80.608 349.938 80.9773C349.672 81.3466 349.299 81.6378 348.82 81.8509C348.34 82.0639 347.783 82.1705 347.147 82.1705C346.313 82.1705 345.622 81.9893 345.075 81.6271C344.528 81.2649 344.182 80.7358 344.036 80.0398L345.23 79.7415C345.343 80.1818 345.558 80.5121 345.874 80.7322C346.194 80.9524 346.611 81.0625 347.126 81.0625C347.712 81.0625 348.177 80.9382 348.521 80.6896C348.869 80.4375 349.044 80.1357 349.044 79.7841C349.044 79.5 348.944 79.2621 348.745 79.0703C348.546 78.875 348.241 78.7294 347.829 78.6335L346.465 78.3139C345.716 78.1364 345.166 77.8612 344.814 77.4883C344.466 77.1119 344.292 76.6413 344.292 76.0767C344.292 75.6151 344.422 75.2067 344.681 74.8516C344.944 74.4964 345.301 74.2177 345.752 74.0153C346.206 73.8129 346.721 73.7116 347.296 73.7116C348.106 73.7116 348.742 73.8892 349.203 74.2443C349.669 74.5994 349.999 75.0682 350.194 75.6506Z" fill="#A9A9A9"/>
</g>
<defs>
<filter id="filter0_d_73_3170" x="0" y="0" width="420" height="115" filterUnits="userSpaceOnUse" color-interpolation-filters="sRGB">
<feFlood flood-opacity="0" result="BackgroundImageFix"/>
<feColorMatrix in="SourceAlpha" type="matrix" values="0 0 0 0 0 0 0 0 0 0 0 0 0 0 0 0 0 0 127 0" result="hardAlpha"/>
<feOffset dy="4"/>
<feGaussianBlur stdDeviation="2"/>
<feComposite in2="hardAlpha" operator="out"/>
<feColorMatrix type="matrix" values="0 0 0 0 0.84917 0 0 0 0 0.84917 0 0 0 0 0.84917 0 0 0 0.25 0"/>
<feBlend mode="normal" in2="BackgroundImageFix" result="effect1_dropShadow_73_3170"/>
<feBlend mode="normal" in="SourceGraphic" in2="effect1_dropShadow_73_3170" result="shape"/>
</filter>
</defs>
</svg>
