<svg width="574" height="115" viewBox="0 0 574 115" fill="none" xmlns="http://www.w3.org/2000/svg">
<g filter="url(#filter0_d_73_3137)">
<rect x="4" width="413" height="107" rx="5" fill="white"/>
<rect x="4.5" y="0.5" width="412" height="106" rx="4.5" stroke="black" stroke-opacity="0.15"/>
<path d="M99.598 39V24.4545H108.618V26.3438H101.793V30.7756H107.972V32.6577H101.793V39H99.598ZM117.373 34.4759V28.0909H119.504V39H117.416V37.1108H117.302C117.051 37.6932 116.649 38.1785 116.095 38.5668C115.546 38.9503 114.861 39.142 114.042 39.142C113.342 39.142 112.721 38.9882 112.181 38.6804C111.646 38.3679 111.225 37.9062 110.917 37.2955C110.614 36.6847 110.463 35.9295 110.463 35.0298V28.0909H112.586V34.7741C112.586 35.5175 112.792 36.1094 113.204 36.5497C113.616 36.9901 114.151 37.2102 114.809 37.2102C115.207 37.2102 115.602 37.1108 115.995 36.9119C116.393 36.7131 116.722 36.4124 116.983 36.0099C117.248 35.6075 117.378 35.0961 117.373 34.4759ZM124.481 32.5227V39H122.357V28.0909H124.396V29.8665H124.531C124.781 29.2888 125.174 28.8248 125.71 28.4744C126.249 28.1241 126.929 27.9489 127.748 27.9489C128.491 27.9489 129.142 28.1051 129.701 28.4176C130.26 28.7254 130.693 29.1847 131.001 29.7955C131.308 30.4062 131.462 31.1615 131.462 32.0611V39H129.339V32.3168C129.339 31.526 129.133 30.9081 128.721 30.4631C128.309 30.0133 127.743 29.7884 127.023 29.7884C126.531 29.7884 126.093 29.8949 125.71 30.108C125.331 30.321 125.03 30.6335 124.808 31.0455C124.59 31.4527 124.481 31.9451 124.481 32.5227ZM138.394 39.2131C137.513 39.2131 136.728 38.9882 136.036 38.5384C135.35 38.0838 134.81 37.4375 134.417 36.5994C134.029 35.7566 133.835 34.7457 133.835 33.5668C133.835 32.3878 134.031 31.3793 134.424 30.5412C134.822 29.7031 135.366 29.0616 136.058 28.6165C136.749 28.1714 137.532 27.9489 138.408 27.9489C139.085 27.9489 139.63 28.0625 140.042 28.2898C140.459 28.5123 140.781 28.7727 141.008 29.071C141.24 29.3693 141.42 29.6321 141.548 29.8594H141.675V24.4545H143.799V39H141.725V37.3026H141.548C141.42 37.5346 141.235 37.7997 140.994 38.098C140.757 38.3963 140.43 38.6567 140.013 38.8793C139.597 39.1018 139.057 39.2131 138.394 39.2131ZM138.863 37.402C139.474 37.402 139.99 37.241 140.411 36.919C140.837 36.5923 141.159 36.1402 141.377 35.5625C141.6 34.9848 141.711 34.3125 141.711 33.5455C141.711 32.7879 141.602 32.125 141.384 31.5568C141.166 30.9886 140.847 30.5459 140.425 30.2287C140.004 29.9115 139.483 29.7528 138.863 29.7528C138.224 29.7528 137.691 29.9186 137.265 30.25C136.839 30.5814 136.517 31.0336 136.299 31.6065C136.086 32.1795 135.979 32.8258 135.979 33.5455C135.979 34.2746 136.088 34.9304 136.306 35.5128C136.524 36.0952 136.846 36.5568 137.272 36.8977C137.703 37.2339 138.233 37.402 138.863 37.402ZM146.83 39V28.0909H148.868V29.8665H149.003C149.23 29.2652 149.602 28.7964 150.118 28.4602C150.634 28.1193 151.252 27.9489 151.972 27.9489C152.701 27.9489 153.312 28.1193 153.804 28.4602C154.301 28.8011 154.668 29.2699 154.905 29.8665H155.019C155.279 29.2841 155.694 28.8201 156.262 28.4744C156.83 28.1241 157.507 27.9489 158.293 27.9489C159.283 27.9489 160.09 28.259 160.715 28.8793C161.345 29.4995 161.659 30.4347 161.659 31.6847V39H159.536V31.8835C159.536 31.1449 159.335 30.6098 158.932 30.2784C158.53 29.947 158.049 29.7812 157.49 29.7812C156.799 29.7812 156.262 29.9943 155.878 30.4205C155.495 30.8419 155.303 31.384 155.303 32.0469V39H153.186V31.7486C153.186 31.1567 153.002 30.6809 152.632 30.321C152.263 29.9612 151.783 29.7812 151.191 29.7812C150.788 29.7812 150.417 29.8878 150.076 30.1009C149.739 30.3092 149.467 30.6004 149.259 30.9744C149.055 31.3485 148.953 31.7817 148.953 32.2741V39H146.83ZM167.68 39.2415C166.989 39.2415 166.364 39.1136 165.805 38.858C165.247 38.5975 164.804 38.2211 164.477 37.7287C164.155 37.2363 163.994 36.6326 163.994 35.9176C163.994 35.3021 164.113 34.7955 164.349 34.3977C164.586 34 164.906 33.6851 165.308 33.4531C165.711 33.2211 166.161 33.0459 166.658 32.9276C167.155 32.8092 167.661 32.7192 168.178 32.6577C168.831 32.5819 169.361 32.5204 169.768 32.473C170.176 32.4209 170.472 32.3381 170.656 32.2244C170.841 32.1108 170.933 31.9261 170.933 31.6705V31.6207C170.933 31.0005 170.758 30.5199 170.408 30.179C170.062 29.8381 169.546 29.6676 168.859 29.6676C168.144 29.6676 167.581 29.8262 167.169 30.1435C166.762 30.456 166.48 30.804 166.324 31.1875L164.328 30.733C164.565 30.0701 164.911 29.535 165.365 29.1278C165.824 28.7159 166.352 28.4176 166.949 28.233C167.545 28.0436 168.173 27.9489 168.831 27.9489C169.267 27.9489 169.728 28.0009 170.216 28.1051C170.708 28.2045 171.168 28.3892 171.594 28.6591C172.025 28.929 172.377 29.3149 172.652 29.8168C172.927 30.3139 173.064 30.9602 173.064 31.7557V39H170.99V37.5085H170.905C170.768 37.7831 170.562 38.053 170.287 38.3182C170.012 38.5833 169.66 38.8035 169.229 38.9787C168.798 39.1539 168.282 39.2415 167.68 39.2415ZM168.142 37.5369C168.729 37.5369 169.231 37.4209 169.648 37.1889C170.069 36.9569 170.389 36.6539 170.607 36.2798C170.829 35.901 170.94 35.4962 170.94 35.0653V33.6591C170.865 33.7348 170.718 33.8059 170.5 33.8722C170.287 33.9337 170.043 33.9882 169.768 34.0355C169.494 34.0781 169.226 34.1184 168.966 34.1562C168.705 34.1894 168.488 34.2178 168.312 34.2415C167.901 34.2936 167.524 34.3812 167.183 34.5043C166.847 34.6274 166.577 34.8049 166.374 35.0369C166.175 35.2642 166.075 35.5672 166.075 35.946C166.075 36.4716 166.269 36.8693 166.658 37.1392C167.046 37.4044 167.541 37.5369 168.142 37.5369ZM178.016 32.5227V39H175.892V28.0909H177.931V29.8665H178.066C178.317 29.2888 178.71 28.8248 179.245 28.4744C179.784 28.1241 180.464 27.9489 181.283 27.9489C182.026 27.9489 182.677 28.1051 183.236 28.4176C183.795 28.7254 184.228 29.1847 184.536 29.7955C184.844 30.4062 184.998 31.1615 184.998 32.0611V39H182.874V32.3168C182.874 31.526 182.668 30.9081 182.256 30.4631C181.844 30.0133 181.278 29.7884 180.559 29.7884C180.066 29.7884 179.628 29.8949 179.245 30.108C178.866 30.321 178.565 30.6335 178.343 31.0455C178.125 31.4527 178.016 31.9451 178.016 32.5227ZM191.02 39.2415C190.329 39.2415 189.704 39.1136 189.145 38.858C188.587 38.5975 188.144 38.2211 187.817 37.7287C187.495 37.2363 187.334 36.6326 187.334 35.9176C187.334 35.3021 187.453 34.7955 187.689 34.3977C187.926 34 188.246 33.6851 188.648 33.4531C189.051 33.2211 189.5 33.0459 189.998 32.9276C190.495 32.8092 191.001 32.7192 191.517 32.6577C192.171 32.5819 192.701 32.5204 193.108 32.473C193.516 32.4209 193.811 32.3381 193.996 32.2244C194.181 32.1108 194.273 31.9261 194.273 31.6705V31.6207C194.273 31.0005 194.098 30.5199 193.748 30.179C193.402 29.8381 192.886 29.6676 192.199 29.6676C191.484 29.6676 190.921 29.8262 190.509 30.1435C190.102 30.456 189.82 30.804 189.664 31.1875L187.668 30.733C187.905 30.0701 188.25 29.535 188.705 29.1278C189.164 28.7159 189.692 28.4176 190.289 28.233C190.885 28.0436 191.513 27.9489 192.171 27.9489C192.606 27.9489 193.068 28.0009 193.556 28.1051C194.048 28.2045 194.507 28.3892 194.934 28.6591C195.364 28.929 195.717 29.3149 195.992 29.8168C196.266 30.3139 196.404 30.9602 196.404 31.7557V39H194.33V37.5085H194.245C194.107 37.7831 193.901 38.053 193.627 38.3182C193.352 38.5833 192.999 38.8035 192.569 38.9787C192.138 39.1539 191.622 39.2415 191.02 39.2415ZM191.482 37.5369C192.069 37.5369 192.571 37.4209 192.988 37.1889C193.409 36.9569 193.729 36.6539 193.946 36.2798C194.169 35.901 194.28 35.4962 194.28 35.0653V33.6591C194.204 33.7348 194.058 33.8059 193.84 33.8722C193.627 33.9337 193.383 33.9882 193.108 34.0355C192.834 34.0781 192.566 34.1184 192.306 34.1562C192.045 34.1894 191.828 34.2178 191.652 34.2415C191.24 34.2936 190.864 34.3812 190.523 34.5043C190.187 34.6274 189.917 34.8049 189.713 35.0369C189.515 35.2642 189.415 35.5672 189.415 35.946C189.415 36.4716 189.609 36.8693 189.998 37.1392C190.386 37.4044 190.881 37.5369 191.482 37.5369ZM203.806 43.3182C202.94 43.3182 202.194 43.2045 201.569 42.9773C200.949 42.75 200.442 42.4493 200.049 42.0753C199.656 41.7012 199.362 41.2917 199.168 40.8466L200.994 40.0938C201.121 40.3021 201.292 40.5223 201.505 40.7543C201.723 40.991 202.016 41.1922 202.386 41.358C202.76 41.5237 203.24 41.6065 203.827 41.6065C204.632 41.6065 205.298 41.41 205.823 41.017C206.349 40.6288 206.612 40.0085 206.612 39.1562V37.0114H206.477C206.349 37.2434 206.164 37.5014 205.923 37.7855C205.686 38.0696 205.359 38.3158 204.942 38.5241C204.526 38.7325 203.984 38.8366 203.316 38.8366C202.454 38.8366 201.678 38.6354 200.987 38.233C200.3 37.8258 199.755 37.2268 199.353 36.4361C198.955 35.6406 198.756 34.6629 198.756 33.5028C198.756 32.3428 198.953 31.3485 199.346 30.5199C199.744 29.6913 200.288 29.0568 200.979 28.6165C201.671 28.1714 202.454 27.9489 203.33 27.9489C204.007 27.9489 204.554 28.0625 204.971 28.2898C205.388 28.5123 205.712 28.7727 205.944 29.071C206.181 29.3693 206.363 29.6321 206.491 29.8594H206.647V28.0909H208.728V39.2415C208.728 40.179 208.51 40.9484 208.075 41.5497C207.639 42.151 207.049 42.5961 206.306 42.8849C205.567 43.1738 204.734 43.3182 203.806 43.3182ZM203.785 37.0753C204.396 37.0753 204.912 36.9332 205.333 36.6491C205.759 36.3603 206.081 35.9484 206.299 35.4134C206.522 34.8736 206.633 34.2273 206.633 33.4744C206.633 32.7405 206.524 32.0942 206.306 31.5355C206.088 30.9768 205.769 30.5412 205.347 30.2287C204.926 29.9115 204.405 29.7528 203.785 29.7528C203.146 29.7528 202.613 29.9186 202.187 30.25C201.761 30.5767 201.439 31.0218 201.221 31.5852C201.008 32.1487 200.901 32.7784 200.901 33.4744C200.901 34.1894 201.01 34.8168 201.228 35.3565C201.446 35.8963 201.768 36.3177 202.194 36.6207C202.625 36.9238 203.155 37.0753 203.785 37.0753ZM216.278 39.2202C215.203 39.2202 214.277 38.9905 213.501 38.5312C212.729 38.0672 212.132 37.4162 211.711 36.5781C211.294 35.7353 211.086 34.7481 211.086 33.6165C211.086 32.4991 211.294 31.5142 211.711 30.6619C212.132 29.8097 212.719 29.1444 213.472 28.6662C214.23 28.188 215.115 27.9489 216.129 27.9489C216.744 27.9489 217.341 28.0507 217.918 28.2543C218.496 28.4579 219.014 28.7775 219.474 29.2131C219.933 29.6487 220.295 30.2145 220.56 30.9105C220.826 31.6018 220.958 32.4422 220.958 33.4318V34.1847H212.286V32.5938H218.877C218.877 32.035 218.763 31.5402 218.536 31.1094C218.309 30.6738 217.989 30.3305 217.577 30.0795C217.17 29.8286 216.692 29.7031 216.143 29.7031C215.546 29.7031 215.025 29.8499 214.58 30.1435C214.14 30.4323 213.799 30.8111 213.558 31.2798C213.321 31.7438 213.202 32.2481 213.202 32.7926V34.0355C213.202 34.7647 213.33 35.3849 213.586 35.8963C213.846 36.4077 214.209 36.7983 214.673 37.0682C215.137 37.3333 215.679 37.4659 216.299 37.4659C216.701 37.4659 217.068 37.4091 217.4 37.2955C217.731 37.1771 218.018 37.0019 218.259 36.7699C218.501 36.5379 218.685 36.2514 218.813 35.9105L220.823 36.2727C220.662 36.8646 220.373 37.383 219.957 37.8281C219.545 38.2685 219.026 38.6117 218.401 38.858C217.781 39.0994 217.073 39.2202 216.278 39.2202ZM223.314 39V28.0909H225.367V29.8239H225.48C225.679 29.2367 226.03 28.7751 226.532 28.4389C227.038 28.098 227.611 27.9276 228.25 27.9276C228.383 27.9276 228.539 27.9323 228.719 27.9418C228.904 27.9512 229.048 27.9631 229.152 27.9773V30.0085C229.067 29.9848 228.916 29.9588 228.698 29.9304C228.48 29.8973 228.262 29.8807 228.044 29.8807C227.542 29.8807 227.095 29.9872 226.702 30.2003C226.314 30.4086 226.006 30.6998 225.779 31.0739C225.551 31.4432 225.438 31.8646 225.438 32.3381V39H223.314ZM231.139 39.1349C230.751 39.1349 230.417 38.9976 230.138 38.723C229.858 38.4437 229.719 38.1075 229.719 37.7145C229.719 37.3262 229.858 36.9948 230.138 36.7202C230.417 36.4408 230.751 36.3011 231.139 36.3011C231.527 36.3011 231.861 36.4408 232.141 36.7202C232.42 36.9948 232.56 37.3262 232.56 37.7145C232.56 37.9749 232.493 38.214 232.361 38.4318C232.233 38.6449 232.062 38.8153 231.849 38.9432C231.636 39.071 231.4 39.1349 231.139 39.1349ZM238.579 39.2415C237.888 39.2415 237.263 39.1136 236.704 38.858C236.145 38.5975 235.702 38.2211 235.376 37.7287C235.054 37.2363 234.893 36.6326 234.893 35.9176C234.893 35.3021 235.011 34.7955 235.248 34.3977C235.485 34 235.804 33.6851 236.207 33.4531C236.609 33.2211 237.059 33.0459 237.556 32.9276C238.053 32.8092 238.56 32.7192 239.076 32.6577C239.729 32.5819 240.26 32.5204 240.667 32.473C241.074 32.4209 241.37 32.3381 241.555 32.2244C241.739 32.1108 241.832 31.9261 241.832 31.6705V31.6207C241.832 31.0005 241.656 30.5199 241.306 30.179C240.96 29.8381 240.444 29.6676 239.758 29.6676C239.043 29.6676 238.479 29.8262 238.067 30.1435C237.66 30.456 237.379 30.804 237.222 31.1875L235.227 30.733C235.463 30.0701 235.809 29.535 236.263 29.1278C236.723 28.7159 237.251 28.4176 237.847 28.233C238.444 28.0436 239.071 27.9489 239.729 27.9489C240.165 27.9489 240.627 28.0009 241.114 28.1051C241.607 28.2045 242.066 28.3892 242.492 28.6591C242.923 28.929 243.276 29.3149 243.55 29.8168C243.825 30.3139 243.962 30.9602 243.962 31.7557V39H241.888V37.5085H241.803C241.666 37.7831 241.46 38.053 241.185 38.3182C240.911 38.5833 240.558 38.8035 240.127 38.9787C239.696 39.1539 239.18 39.2415 238.579 39.2415ZM239.04 37.5369C239.628 37.5369 240.129 37.4209 240.546 37.1889C240.968 36.9569 241.287 36.6539 241.505 36.2798C241.728 35.901 241.839 35.4962 241.839 35.0653V33.6591C241.763 33.7348 241.616 33.8059 241.398 33.8722C241.185 33.9337 240.942 33.9882 240.667 34.0355C240.392 34.0781 240.125 34.1184 239.864 34.1562C239.604 34.1894 239.386 34.2178 239.211 34.2415C238.799 34.2936 238.423 34.3812 238.082 34.5043C237.746 34.6274 237.476 34.8049 237.272 35.0369C237.073 35.2642 236.974 35.5672 236.974 35.946C236.974 36.4716 237.168 36.8693 237.556 37.1392C237.944 37.4044 238.439 37.5369 239.04 37.5369ZM246.791 39V28.0909H248.914V39H246.791ZM247.863 26.4077C247.494 26.4077 247.177 26.2846 246.912 26.0384C246.651 25.7874 246.521 25.4891 246.521 25.1435C246.521 24.7931 246.651 24.4948 246.912 24.2486C247.177 23.9976 247.494 23.8722 247.863 23.8722C248.233 23.8722 248.547 23.9976 248.808 24.2486C249.073 24.4948 249.206 24.7931 249.206 25.1435C249.206 25.4891 249.073 25.7874 248.808 26.0384C248.547 26.2846 248.233 26.4077 247.863 26.4077Z" fill="black"/>
<path d="M99.7685 66H98.3835L102.389 55.0909H103.753L107.759 66H106.374L103.114 56.8168H103.028L99.7685 66ZM100.28 61.7386H105.862V62.9105H100.28V61.7386ZM110.779 55.0909V66H109.458V55.0909H110.779ZM117.945 60.7372V61.9091H113.172V60.7372H117.945ZM120.156 69.0682V57.8182H121.371V59.1179H121.52C121.612 58.9759 121.74 58.7947 121.904 58.5746C122.07 58.3509 122.308 58.152 122.617 57.978C122.93 57.8004 123.352 57.7116 123.885 57.7116C124.574 57.7116 125.181 57.8839 125.707 58.2283C126.232 58.5728 126.643 59.0611 126.937 59.6932C127.232 60.3253 127.379 61.071 127.379 61.9304C127.379 62.7969 127.232 63.5479 126.937 64.1836C126.643 64.8157 126.234 65.3058 125.712 65.6538C125.19 65.9982 124.588 66.1705 123.906 66.1705C123.381 66.1705 122.96 66.0835 122.644 65.9094C122.328 65.7319 122.085 65.5312 121.914 65.3075C121.744 65.0803 121.612 64.892 121.52 64.7429H121.414V69.0682H120.156ZM121.392 61.9091C121.392 62.527 121.483 63.0721 121.664 63.5444C121.845 64.0131 122.11 64.3807 122.458 64.647C122.806 64.9098 123.232 65.0412 123.736 65.0412C124.262 65.0412 124.7 64.9027 125.052 64.6257C125.407 64.3452 125.673 63.9687 125.851 63.4964C126.032 63.0206 126.122 62.4915 126.122 61.9091C126.122 61.3338 126.034 60.8153 125.856 60.3537C125.682 59.8885 125.417 59.521 125.062 59.2511C124.711 58.9776 124.269 58.8409 123.736 58.8409C123.225 58.8409 122.795 58.9705 122.447 59.2298C122.099 59.4854 121.836 59.8441 121.659 60.3058C121.481 60.7638 121.392 61.2983 121.392 61.9091ZM132.621 66.1705C131.882 66.1705 131.234 65.9947 130.677 65.6431C130.123 65.2915 129.689 64.7997 129.377 64.1676C129.068 63.5355 128.914 62.7969 128.914 61.9517C128.914 61.0994 129.068 60.3555 129.377 59.7198C129.689 59.0842 130.123 58.5906 130.677 58.239C131.234 57.8874 131.882 57.7116 132.621 57.7116C133.36 57.7116 134.006 57.8874 134.56 58.239C135.117 58.5906 135.551 59.0842 135.86 59.7198C136.172 60.3555 136.328 61.0994 136.328 61.9517C136.328 62.7969 136.172 63.5355 135.86 64.1676C135.551 64.7997 135.117 65.2915 134.56 65.6431C134.006 65.9947 133.36 66.1705 132.621 66.1705ZM132.621 65.0412C133.182 65.0412 133.644 64.8974 134.006 64.6097C134.368 64.3221 134.636 63.9439 134.81 63.4751C134.984 63.0064 135.071 62.4986 135.071 61.9517C135.071 61.4048 134.984 60.8952 134.81 60.4229C134.636 59.9506 134.368 59.5689 134.006 59.2777C133.644 58.9865 133.182 58.8409 132.621 58.8409C132.06 58.8409 131.598 58.9865 131.236 59.2777C130.874 59.5689 130.606 59.9506 130.432 60.4229C130.258 60.8952 130.171 61.4048 130.171 61.9517C130.171 62.4986 130.258 63.0064 130.432 63.4751C130.606 63.9439 130.874 64.3221 131.236 64.6097C131.598 64.8974 132.06 65.0412 132.621 65.0412ZM139.823 66L137.33 57.8182H138.651L140.419 64.0824H140.504L142.252 57.8182H143.594L145.32 64.0611H145.405L147.173 57.8182H148.494L146.002 66H144.766L142.976 59.7145H142.848L141.058 66H139.823ZM153.309 66.1705C152.52 66.1705 151.84 65.9964 151.268 65.6484C150.7 65.2969 150.262 64.8068 149.953 64.1783C149.647 63.5462 149.495 62.8111 149.495 61.973C149.495 61.1349 149.647 60.3963 149.953 59.7571C150.262 59.1143 150.691 58.6136 151.242 58.255C151.796 57.8928 152.442 57.7116 153.181 57.7116C153.607 57.7116 154.028 57.7827 154.443 57.9247C154.859 58.0668 155.237 58.2976 155.578 58.6172C155.919 58.9332 156.19 59.3523 156.393 59.8743C156.595 60.3963 156.696 61.0391 156.696 61.8026V62.3352H150.389V61.2486H155.418C155.418 60.7869 155.326 60.375 155.141 60.0128C154.96 59.6506 154.701 59.3647 154.363 59.1552C154.029 58.9457 153.635 58.8409 153.181 58.8409C152.68 58.8409 152.247 58.9652 151.881 59.2138C151.519 59.4588 151.24 59.7784 151.045 60.1726C150.849 60.5668 150.752 60.9893 150.752 61.4403V62.1648C150.752 62.7827 150.858 63.3065 151.071 63.7362C151.288 64.1623 151.588 64.4872 151.972 64.7109C152.355 64.9311 152.801 65.0412 153.309 65.0412C153.639 65.0412 153.937 64.995 154.203 64.9027C154.473 64.8068 154.706 64.6648 154.901 64.4766C155.097 64.2848 155.247 64.0469 155.354 63.7628L156.568 64.1037C156.441 64.5156 156.226 64.8778 155.924 65.1903C155.622 65.4993 155.249 65.7408 154.805 65.9148C154.361 66.0852 153.862 66.1705 153.309 66.1705ZM158.609 66V57.8182H159.823V59.054H159.908C160.057 58.6491 160.327 58.3207 160.718 58.0685C161.109 57.8164 161.549 57.6903 162.039 57.6903C162.131 57.6903 162.247 57.6921 162.385 57.6957C162.524 57.6992 162.628 57.7045 162.699 57.7116V58.9901C162.657 58.9794 162.559 58.9634 162.407 58.9421C162.257 58.9173 162.099 58.9048 161.932 58.9048C161.535 58.9048 161.18 58.9883 160.867 59.1552C160.558 59.3185 160.313 59.5458 160.132 59.837C159.954 60.1246 159.866 60.4531 159.866 60.8224V66H158.609ZM167.371 66.1705C166.583 66.1705 165.903 65.9964 165.331 65.6484C164.763 65.2969 164.324 64.8068 164.015 64.1783C163.71 63.5462 163.557 62.8111 163.557 61.973C163.557 61.1349 163.71 60.3963 164.015 59.7571C164.324 59.1143 164.754 58.6136 165.304 58.255C165.858 57.8928 166.505 57.7116 167.243 57.7116C167.669 57.7116 168.09 57.7827 168.506 57.9247C168.921 58.0668 169.299 58.2976 169.64 58.6172C169.981 58.9332 170.253 59.3523 170.455 59.8743C170.658 60.3963 170.759 61.0391 170.759 61.8026V62.3352H164.452V61.2486H169.48C169.48 60.7869 169.388 60.375 169.203 60.0128C169.022 59.6506 168.763 59.3647 168.426 59.1552C168.092 58.9457 167.698 58.8409 167.243 58.8409C166.742 58.8409 166.309 58.9652 165.943 59.2138C165.581 59.4588 165.302 59.7784 165.107 60.1726C164.912 60.5668 164.814 60.9893 164.814 61.4403V62.1648C164.814 62.7827 164.921 63.3065 165.134 63.7362C165.35 64.1623 165.65 64.4872 166.034 64.7109C166.418 64.9311 166.863 65.0412 167.371 65.0412C167.701 65.0412 168 64.995 168.266 64.9027C168.536 64.8068 168.768 64.6648 168.964 64.4766C169.159 64.2848 169.31 64.0469 169.416 63.7628L170.631 64.1037C170.503 64.5156 170.288 64.8778 169.986 65.1903C169.685 65.4993 169.312 65.7408 168.868 65.9148C168.424 66.0852 167.925 66.1705 167.371 66.1705ZM175.761 66.1705C175.079 66.1705 174.477 65.9982 173.955 65.6538C173.433 65.3058 173.024 64.8157 172.73 64.1836C172.435 63.5479 172.288 62.7969 172.288 61.9304C172.288 61.071 172.435 60.3253 172.73 59.6932C173.024 59.0611 173.435 58.5728 173.96 58.2283C174.486 57.8839 175.093 57.7116 175.782 57.7116C176.315 57.7116 176.735 57.8004 177.044 57.978C177.357 58.152 177.595 58.3509 177.758 58.5746C177.925 58.7947 178.055 58.9759 178.147 59.1179H178.253V55.0909H179.511V66H178.296V64.7429H178.147C178.055 64.892 177.923 65.0803 177.753 65.3075C177.582 65.5312 177.339 65.7319 177.023 65.9094C176.707 66.0835 176.286 66.1705 175.761 66.1705ZM175.931 65.0412C176.435 65.0412 176.861 64.9098 177.209 64.647C177.557 64.3807 177.822 64.0131 178.003 63.5444C178.184 63.0721 178.275 62.527 178.275 61.9091C178.275 61.2983 178.186 60.7638 178.008 60.3058C177.831 59.8441 177.568 59.4854 177.22 59.2298C176.872 58.9705 176.442 58.8409 175.931 58.8409C175.398 58.8409 174.954 58.9776 174.599 59.2511C174.248 59.521 173.983 59.8885 173.806 60.3537C173.632 60.8153 173.545 61.3338 173.545 61.9091C173.545 62.4915 173.633 63.0206 173.811 63.4964C173.992 63.9687 174.258 64.3452 174.61 64.6257C174.965 64.9027 175.405 65.0412 175.931 65.0412ZM189.85 57.8182V58.8835H185.439V57.8182H189.85ZM186.76 66V56.6889C186.76 56.2202 186.87 55.8295 187.09 55.517C187.311 55.2045 187.597 54.9702 187.948 54.8139C188.3 54.6577 188.671 54.5795 189.061 54.5795C189.37 54.5795 189.622 54.6044 189.818 54.6541C190.013 54.7038 190.159 54.75 190.255 54.7926L189.892 55.8793C189.828 55.858 189.74 55.8313 189.626 55.7994C189.516 55.7674 189.37 55.7514 189.189 55.7514C188.774 55.7514 188.474 55.8562 188.289 56.0657C188.108 56.2752 188.017 56.5824 188.017 56.9872V66H186.76ZM196.768 62.6548V57.8182H198.025V66H196.768V64.6151H196.683C196.491 65.0305 196.192 65.3839 195.788 65.6751C195.383 65.9627 194.871 66.1065 194.254 66.1065C193.742 66.1065 193.288 65.9947 192.89 65.771C192.492 65.5437 192.18 65.2028 191.952 64.7482C191.725 64.2901 191.612 63.7131 191.612 63.017V57.8182H192.869V62.9318C192.869 63.5284 193.036 64.0043 193.369 64.3594C193.707 64.7145 194.136 64.892 194.658 64.892C194.971 64.892 195.289 64.8121 195.612 64.6523C195.939 64.4925 196.212 64.2475 196.432 63.9173C196.656 63.587 196.768 63.1662 196.768 62.6548ZM201.584 61.0781V66H200.327V57.8182H201.542V59.0966H201.648C201.84 58.6811 202.131 58.3473 202.522 58.0952C202.913 57.8395 203.417 57.7116 204.035 57.7116C204.589 57.7116 205.073 57.8253 205.489 58.0526C205.904 58.2763 206.228 58.6172 206.458 59.0753C206.689 59.5298 206.805 60.1051 206.805 60.8011V66H205.547V60.8864C205.547 60.2436 205.381 59.7429 205.047 59.3842C204.713 59.022 204.255 58.8409 203.672 58.8409C203.271 58.8409 202.913 58.9279 202.597 59.1019C202.284 59.2759 202.037 59.5298 201.856 59.8636C201.675 60.1974 201.584 60.6023 201.584 61.0781ZM212.191 66.1705C211.509 66.1705 210.907 65.9982 210.385 65.6538C209.863 65.3058 209.455 64.8157 209.16 64.1836C208.866 63.5479 208.718 62.7969 208.718 61.9304C208.718 61.071 208.866 60.3253 209.16 59.6932C209.455 59.0611 209.865 58.5728 210.391 58.2283C210.916 57.8839 211.524 57.7116 212.213 57.7116C212.745 57.7116 213.166 57.8004 213.475 57.978C213.787 58.152 214.025 58.3509 214.189 58.5746C214.356 58.7947 214.485 58.9759 214.578 59.1179H214.684V55.0909H215.941V66H214.727V64.7429H214.578C214.485 64.892 214.354 65.0803 214.183 65.3075C214.013 65.5312 213.77 65.7319 213.454 65.9094C213.138 66.0835 212.717 66.1705 212.191 66.1705ZM212.362 65.0412C212.866 65.0412 213.292 64.9098 213.64 64.647C213.988 64.3807 214.253 64.0131 214.434 63.5444C214.615 63.0721 214.705 62.527 214.705 61.9091C214.705 61.2983 214.617 60.7638 214.439 60.3058C214.262 59.8441 213.999 59.4854 213.651 59.2298C213.303 58.9705 212.873 58.8409 212.362 58.8409C211.829 58.8409 211.385 58.9776 211.03 59.2511C210.678 59.521 210.414 59.8885 210.236 60.3537C210.062 60.8153 209.975 61.3338 209.975 61.9091C209.975 62.4915 210.064 63.0206 210.242 63.4964C210.423 63.9687 210.689 64.3452 211.041 64.6257C211.396 64.9027 211.836 65.0412 212.362 65.0412ZM225.045 66.1918C224.526 66.1918 224.056 66.0941 223.633 65.8988C223.21 65.6999 222.875 65.4141 222.626 65.0412C222.378 64.6648 222.253 64.2102 222.253 63.6776C222.253 63.2088 222.346 62.8288 222.53 62.5376C222.715 62.2429 222.962 62.0121 223.271 61.8452C223.58 61.6783 223.921 61.554 224.294 61.4723C224.67 61.3871 225.048 61.3196 225.428 61.2699C225.925 61.206 226.328 61.158 226.637 61.1261C226.95 61.0906 227.177 61.032 227.319 60.9503C227.465 60.8686 227.537 60.7266 227.537 60.5241V60.4815C227.537 59.956 227.394 59.5476 227.106 59.2564C226.822 58.9652 226.39 58.8196 225.812 58.8196C225.211 58.8196 224.741 58.951 224.4 59.2138C224.059 59.4766 223.819 59.7571 223.681 60.0554L222.488 59.6293C222.701 59.1321 222.985 58.745 223.34 58.468C223.699 58.1875 224.089 57.9922 224.512 57.8821C224.938 57.7685 225.357 57.7116 225.769 57.7116C226.032 57.7116 226.334 57.7436 226.675 57.8075C227.019 57.8679 227.351 57.994 227.671 58.1857C227.994 58.3775 228.262 58.6669 228.475 59.054C228.688 59.4411 228.795 59.9595 228.795 60.6094V66H227.537V64.892H227.474C227.388 65.0696 227.246 65.2596 227.047 65.462C226.849 65.6644 226.584 65.8366 226.254 65.9787C225.923 66.1207 225.52 66.1918 225.045 66.1918ZM225.236 65.0625C225.733 65.0625 226.153 64.9648 226.493 64.7695C226.838 64.5742 227.097 64.3221 227.271 64.0131C227.449 63.7042 227.537 63.3793 227.537 63.0384V61.8878C227.484 61.9517 227.367 62.0103 227.186 62.0636C227.008 62.1133 226.802 62.1577 226.568 62.1967C226.337 62.2322 226.112 62.2642 225.892 62.2926C225.675 62.3175 225.499 62.3388 225.364 62.3565C225.037 62.3991 224.732 62.4684 224.448 62.5643C224.167 62.6566 223.94 62.7969 223.766 62.9851C223.596 63.1697 223.51 63.4219 223.51 63.7415C223.51 64.1783 223.672 64.5085 223.995 64.7322C224.322 64.9524 224.736 65.0625 225.236 65.0625ZM234.179 66.1705C233.497 66.1705 232.895 65.9982 232.373 65.6538C231.851 65.3058 231.442 64.8157 231.148 64.1836C230.853 63.5479 230.706 62.7969 230.706 61.9304C230.706 61.071 230.853 60.3253 231.148 59.6932C231.442 59.0611 231.853 58.5728 232.378 58.2283C232.904 57.8839 233.511 57.7116 234.2 57.7116C234.733 57.7116 235.153 57.8004 235.462 57.978C235.775 58.152 236.013 58.3509 236.176 58.5746C236.343 58.7947 236.473 58.9759 236.565 59.1179H236.671V55.0909H237.929V66H236.714V64.7429H236.565C236.473 64.892 236.341 65.0803 236.171 65.3075C236 65.5312 235.757 65.7319 235.441 65.9094C235.125 66.0835 234.704 66.1705 234.179 66.1705ZM234.349 65.0412C234.853 65.0412 235.279 64.9098 235.627 64.647C235.975 64.3807 236.24 64.0131 236.421 63.5444C236.602 63.0721 236.693 62.527 236.693 61.9091C236.693 61.2983 236.604 60.7638 236.426 60.3058C236.249 59.8441 235.986 59.4854 235.638 59.2298C235.29 58.9705 234.86 58.8409 234.349 58.8409C233.816 58.8409 233.372 58.9776 233.017 59.2511C232.666 59.521 232.401 59.8885 232.224 60.3537C232.05 60.8153 231.963 61.3338 231.963 61.9091C231.963 62.4915 232.051 63.0206 232.229 63.4964C232.41 63.9687 232.676 64.3452 233.028 64.6257C233.383 64.9027 233.823 65.0412 234.349 65.0412ZM240.405 66V57.8182H241.62V59.0966H241.726C241.897 58.6598 242.172 58.3207 242.552 58.0792C242.932 57.8342 243.388 57.7116 243.921 57.7116C244.461 57.7116 244.91 57.8342 245.269 58.0792C245.631 58.3207 245.913 58.6598 246.116 59.0966H246.201C246.41 58.674 246.725 58.3384 247.144 58.0898C247.563 57.8377 248.065 57.7116 248.651 57.7116C249.383 57.7116 249.981 57.9407 250.446 58.3988C250.911 58.8533 251.144 59.5618 251.144 60.5241V66H249.887V60.5241C249.887 59.9205 249.722 59.489 249.392 59.2298C249.061 58.9705 248.672 58.8409 248.225 58.8409C247.65 58.8409 247.204 59.0149 246.888 59.3629C246.572 59.7074 246.414 60.1442 246.414 60.6733V66H245.136V60.3963C245.136 59.9311 244.985 59.5565 244.683 59.2724C244.381 58.9847 243.992 58.8409 243.516 58.8409C243.19 58.8409 242.884 58.9279 242.6 59.1019C242.32 59.2759 242.092 59.5174 241.918 59.8263C241.748 60.1317 241.663 60.4851 241.663 60.8864V66H240.405ZM253.443 66V57.8182H254.7V66H253.443ZM254.082 56.4545C253.837 56.4545 253.625 56.3711 253.448 56.2042C253.274 56.0373 253.187 55.8366 253.187 55.6023C253.187 55.3679 253.274 55.1673 253.448 55.0004C253.625 54.8335 253.837 54.75 254.082 54.75C254.327 54.75 254.536 54.8335 254.71 55.0004C254.888 55.1673 254.977 55.3679 254.977 55.6023C254.977 55.8366 254.888 56.0373 254.71 56.2042C254.536 56.3711 254.327 56.4545 254.082 56.4545ZM258.259 61.0781V66H257.002V57.8182H258.217V59.0966H258.323C258.515 58.6811 258.806 58.3473 259.197 58.0952C259.587 57.8395 260.092 57.7116 260.71 57.7116C261.263 57.7116 261.748 57.8253 262.164 58.0526C262.579 58.2763 262.902 58.6172 263.133 59.0753C263.364 59.5298 263.479 60.1051 263.479 60.8011V66H262.222V60.8864C262.222 60.2436 262.055 59.7429 261.722 59.3842C261.388 59.022 260.93 58.8409 260.347 58.8409C259.946 58.8409 259.587 58.9279 259.271 59.1019C258.959 59.2759 258.712 59.5298 258.531 59.8636C258.35 60.1974 258.259 60.6023 258.259 61.0781ZM273.639 57.8182V58.8835H269.228V57.8182H273.639ZM270.549 66V56.6889C270.549 56.2202 270.659 55.8295 270.88 55.517C271.1 55.2045 271.386 54.9702 271.737 54.8139C272.089 54.6577 272.46 54.5795 272.85 54.5795C273.159 54.5795 273.411 54.6044 273.607 54.6541C273.802 54.7038 273.948 54.75 274.044 54.7926L273.681 55.8793C273.617 55.858 273.529 55.8313 273.415 55.7994C273.305 55.7674 273.159 55.7514 272.978 55.7514C272.563 55.7514 272.263 55.8562 272.078 56.0657C271.897 56.2752 271.806 56.5824 271.806 56.9872V66H270.549ZM278.388 66.1705C277.649 66.1705 277.001 65.9947 276.443 65.6431C275.889 65.2915 275.456 64.7997 275.144 64.1676C274.835 63.5355 274.68 62.7969 274.68 61.9517C274.68 61.0994 274.835 60.3555 275.144 59.7198C275.456 59.0842 275.889 58.5906 276.443 58.239C277.001 57.8874 277.649 57.7116 278.388 57.7116C279.126 57.7116 279.772 57.8874 280.326 58.239C280.884 58.5906 281.317 59.0842 281.626 59.7198C281.939 60.3555 282.095 61.0994 282.095 61.9517C282.095 62.7969 281.939 63.5355 281.626 64.1676C281.317 64.7997 280.884 65.2915 280.326 65.6431C279.772 65.9947 279.126 66.1705 278.388 66.1705ZM278.388 65.0412C278.949 65.0412 279.41 64.8974 279.772 64.6097C280.135 64.3221 280.403 63.9439 280.577 63.4751C280.751 63.0064 280.838 62.4986 280.838 61.9517C280.838 61.4048 280.751 60.8952 280.577 60.4229C280.403 59.9506 280.135 59.5689 279.772 59.2777C279.41 58.9865 278.949 58.8409 278.388 58.8409C277.826 58.8409 277.365 58.9865 277.003 59.2777C276.64 59.5689 276.372 59.9506 276.198 60.4229C276.024 60.8952 275.937 61.4048 275.937 61.9517C275.937 62.4986 276.024 63.0064 276.198 63.4751C276.372 63.9439 276.64 64.3221 277.003 64.6097C277.365 64.8974 277.826 65.0412 278.388 65.0412ZM284.014 66V57.8182H285.228V59.054H285.314C285.463 58.6491 285.733 58.3207 286.123 58.0685C286.514 57.8164 286.954 57.6903 287.444 57.6903C287.537 57.6903 287.652 57.6921 287.79 57.6957C287.929 57.6992 288.034 57.7045 288.105 57.7116V58.9901C288.062 58.9794 287.964 58.9634 287.812 58.9421C287.663 58.9173 287.505 58.9048 287.338 58.9048C286.94 58.9048 286.585 58.9883 286.272 59.1552C285.963 59.3185 285.718 59.5458 285.537 59.837C285.36 60.1246 285.271 60.4531 285.271 60.8224V66H284.014ZM295.071 61.0781V66H293.814V57.8182H295.028V59.0966H295.135C295.326 58.6811 295.618 58.3473 296.008 58.0952C296.399 57.8395 296.903 57.7116 297.521 57.7116C298.075 57.7116 298.56 57.8253 298.975 58.0526C299.391 58.2763 299.714 58.6172 299.945 59.0753C300.176 59.5298 300.291 60.1051 300.291 60.8011V66H299.034V60.8864C299.034 60.2436 298.867 59.7429 298.533 59.3842C298.199 59.022 297.741 58.8409 297.159 58.8409C296.758 58.8409 296.399 58.9279 296.083 59.1019C295.77 59.2759 295.524 59.5298 295.342 59.8636C295.161 60.1974 295.071 60.6023 295.071 61.0781ZM302.588 66V57.8182H303.845V66H302.588ZM303.227 56.4545C302.982 56.4545 302.771 56.3711 302.593 56.2042C302.419 56.0373 302.332 55.8366 302.332 55.6023C302.332 55.3679 302.419 55.1673 302.593 55.0004C302.771 54.8335 302.982 54.75 303.227 54.75C303.472 54.75 303.682 54.8335 303.856 55.0004C304.033 55.1673 304.122 55.3679 304.122 55.6023C304.122 55.8366 304.033 56.0373 303.856 56.2042C303.682 56.3711 303.472 56.4545 303.227 56.4545ZM306.148 66V57.8182H307.362V59.0966H307.469C307.639 58.6598 307.914 58.3207 308.294 58.0792C308.674 57.8342 309.131 57.7116 309.663 57.7116C310.203 57.7116 310.652 57.8342 311.011 58.0792C311.373 58.3207 311.655 58.6598 311.858 59.0966H311.943C312.153 58.674 312.467 58.3384 312.886 58.0898C313.305 57.8377 313.807 57.7116 314.393 57.7116C315.125 57.7116 315.723 57.9407 316.188 58.3988C316.654 58.8533 316.886 59.5618 316.886 60.5241V66H315.629V60.5241C315.629 59.9205 315.464 59.489 315.134 59.2298C314.804 58.9705 314.415 58.8409 313.967 58.8409C313.392 58.8409 312.946 59.0149 312.63 59.3629C312.314 59.7074 312.156 60.1442 312.156 60.6733V66H310.878V60.3963C310.878 59.9311 310.727 59.5565 310.425 59.2724C310.123 58.9847 309.734 58.8409 309.258 58.8409C308.932 58.8409 308.626 58.9279 308.342 59.1019C308.062 59.2759 307.834 59.5174 307.66 59.8263C307.49 60.1317 307.405 60.4851 307.405 60.8864V66H306.148ZM319.355 66V55.0909H320.612V59.1179H320.719C320.811 58.9759 320.939 58.7947 321.102 58.5746C321.269 58.3509 321.507 58.152 321.816 57.978C322.129 57.8004 322.551 57.7116 323.084 57.7116C323.773 57.7116 324.38 57.8839 324.906 58.2283C325.431 58.5728 325.841 59.0611 326.136 59.6932C326.431 60.3253 326.578 61.071 326.578 61.9304C326.578 62.7969 326.431 63.5479 326.136 64.1836C325.841 64.8157 325.433 65.3058 324.911 65.6538C324.389 65.9982 323.787 66.1705 323.105 66.1705C322.58 66.1705 322.159 66.0835 321.843 65.9094C321.527 65.7319 321.283 65.5312 321.113 65.3075C320.943 65.0803 320.811 64.892 320.719 64.7429H320.57V66H319.355ZM320.591 61.9091C320.591 62.527 320.682 63.0721 320.863 63.5444C321.044 64.0131 321.308 64.3807 321.656 64.647C322.004 64.9098 322.43 65.0412 322.935 65.0412C323.46 65.0412 323.899 64.9027 324.25 64.6257C324.606 64.3452 324.872 63.9687 325.049 63.4964C325.231 63.0206 325.321 62.4915 325.321 61.9091C325.321 61.3338 325.232 60.8153 325.055 60.3537C324.881 59.8885 324.616 59.521 324.261 59.2511C323.91 58.9776 323.467 58.8409 322.935 58.8409C322.423 58.8409 321.994 58.9705 321.646 59.2298C321.298 59.4854 321.035 59.8441 320.857 60.3058C320.68 60.7638 320.591 61.2983 320.591 61.9091ZM329.758 55.0909V66H328.501V55.0909H329.758ZM335.491 66.1705C334.703 66.1705 334.023 65.9964 333.451 65.6484C332.883 65.2969 332.444 64.8068 332.135 64.1783C331.83 63.5462 331.677 62.8111 331.677 61.973C331.677 61.1349 331.83 60.3963 332.135 59.7571C332.444 59.1143 332.874 58.6136 333.424 58.255C333.978 57.8928 334.625 57.7116 335.363 57.7116C335.789 57.7116 336.21 57.7827 336.626 57.9247C337.041 58.0668 337.419 58.2976 337.76 58.6172C338.101 58.9332 338.373 59.3523 338.575 59.8743C338.778 60.3963 338.879 61.0391 338.879 61.8026V62.3352H332.572V61.2486H337.6C337.6 60.7869 337.508 60.375 337.324 60.0128C337.142 59.6506 336.883 59.3647 336.546 59.1552C336.212 58.9457 335.818 58.8409 335.363 58.8409C334.863 58.8409 334.429 58.9652 334.064 59.2138C333.701 59.4588 333.423 59.7784 333.227 60.1726C333.032 60.5668 332.934 60.9893 332.934 61.4403V62.1648C332.934 62.7827 333.041 63.3065 333.254 63.7362C333.471 64.1623 333.771 64.4872 334.154 64.7109C334.538 64.9311 334.983 65.0412 335.491 65.0412C335.821 65.0412 336.12 64.995 336.386 64.9027C336.656 64.8068 336.888 64.6648 337.084 64.4766C337.279 64.2848 337.43 64.0469 337.537 63.7628L338.751 64.1037C338.623 64.5156 338.408 64.8778 338.107 65.1903C337.805 65.4993 337.432 65.7408 336.988 65.9148C336.544 66.0852 336.045 66.1705 335.491 66.1705ZM348.653 57.8182V58.8835H344.243V57.8182H348.653ZM345.564 66V56.6889C345.564 56.2202 345.674 55.8295 345.894 55.517C346.114 55.2045 346.4 54.9702 346.752 54.8139C347.103 54.6577 347.474 54.5795 347.865 54.5795C348.174 54.5795 348.426 54.6044 348.621 54.6541C348.817 54.7038 348.962 54.75 349.058 54.7926L348.696 55.8793C348.632 55.858 348.543 55.8313 348.43 55.7994C348.32 55.7674 348.174 55.7514 347.993 55.7514C347.577 55.7514 347.277 55.8562 347.093 56.0657C346.912 56.2752 346.821 56.5824 346.821 56.9872V66H345.564ZM355.571 62.6548V57.8182H356.829V66H355.571V64.6151H355.486C355.294 65.0305 354.996 65.3839 354.591 65.6751C354.187 65.9627 353.675 66.1065 353.057 66.1065C352.546 66.1065 352.091 65.9947 351.694 65.771C351.296 65.5437 350.983 65.2028 350.756 64.7482C350.529 64.2901 350.415 63.7131 350.415 63.017V57.8182H351.672V62.9318C351.672 63.5284 351.839 64.0043 352.173 64.3594C352.51 64.7145 352.94 64.892 353.462 64.892C353.775 64.892 354.092 64.8121 354.416 64.6523C354.742 64.4925 355.016 64.2475 355.236 63.9173C355.46 63.587 355.571 63.1662 355.571 62.6548ZM360.388 61.0781V66H359.131V57.8182H360.346V59.0966H360.452C360.644 58.6811 360.935 58.3473 361.326 58.0952C361.716 57.8395 362.221 57.7116 362.838 57.7116C363.392 57.7116 363.877 57.8253 364.293 58.0526C364.708 58.2763 365.031 58.6172 365.262 59.0753C365.493 59.5298 365.608 60.1051 365.608 60.8011V66H364.351V60.8864C364.351 60.2436 364.184 59.7429 363.85 59.3842C363.517 59.022 363.059 58.8409 362.476 58.8409C362.075 58.8409 361.716 58.9279 361.4 59.1019C361.088 59.2759 360.841 59.5298 360.66 59.8636C360.479 60.1974 360.388 60.6023 360.388 61.0781ZM370.995 66.1705C370.313 66.1705 369.711 65.9982 369.189 65.6538C368.667 65.3058 368.259 64.8157 367.964 64.1836C367.669 63.5479 367.522 62.7969 367.522 61.9304C367.522 61.071 367.669 60.3253 367.964 59.6932C368.259 59.0611 368.669 58.5728 369.195 58.2283C369.72 57.8839 370.327 57.7116 371.016 57.7116C371.549 57.7116 371.97 57.8004 372.279 57.978C372.591 58.152 372.829 58.3509 372.992 58.5746C373.159 58.7947 373.289 58.9759 373.381 59.1179H373.488V55.0909H374.745V66H373.53V64.7429H373.381C373.289 64.892 373.158 65.0803 372.987 65.3075C372.817 65.5312 372.573 65.7319 372.257 65.9094C371.941 66.0835 371.521 66.1705 370.995 66.1705ZM371.165 65.0412C371.67 65.0412 372.096 64.9098 372.444 64.647C372.792 64.3807 373.056 64.0131 373.237 63.5444C373.419 63.0721 373.509 62.527 373.509 61.9091C373.509 61.2983 373.42 60.7638 373.243 60.3058C373.065 59.8441 372.802 59.4854 372.454 59.2298C372.106 58.9705 371.677 58.8409 371.165 58.8409C370.633 58.8409 370.189 58.9776 369.834 59.2511C369.482 59.521 369.218 59.8885 369.04 60.3537C368.866 60.8153 368.779 61.3338 368.779 61.9091C368.779 62.4915 368.868 63.0206 369.045 63.4964C369.226 63.9687 369.493 64.3452 369.844 64.6257C370.199 64.9027 370.64 65.0412 371.165 65.0412ZM383.017 59.6506L381.888 59.9702C381.817 59.782 381.712 59.5991 381.574 59.4215C381.439 59.2404 381.254 59.0913 381.02 58.9741C380.785 58.8569 380.485 58.7983 380.12 58.7983C379.619 58.7983 379.202 58.9137 378.868 59.1445C378.538 59.3718 378.372 59.6612 378.372 60.0128C378.372 60.3253 378.486 60.5721 378.713 60.7532C378.941 60.9343 379.296 61.0852 379.779 61.206L380.993 61.5043C381.725 61.6818 382.27 61.9535 382.628 62.3192C382.987 62.6815 383.166 63.1484 383.166 63.7202C383.166 64.1889 383.032 64.608 382.762 64.9773C382.495 65.3466 382.122 65.6378 381.643 65.8509C381.164 66.0639 380.606 66.1705 379.97 66.1705C379.136 66.1705 378.445 65.9893 377.898 65.6271C377.351 65.2649 377.005 64.7358 376.86 64.0398L378.053 63.7415C378.166 64.1818 378.381 64.5121 378.697 64.7322C379.017 64.9524 379.434 65.0625 379.949 65.0625C380.535 65.0625 381 64.9382 381.345 64.6896C381.693 64.4375 381.867 64.1357 381.867 63.7841C381.867 63.5 381.767 63.2621 381.568 63.0703C381.37 62.875 381.064 62.7294 380.652 62.6335L379.289 62.3139C378.539 62.1364 377.989 61.8612 377.637 61.4883C377.289 61.1119 377.115 60.6413 377.115 60.0767C377.115 59.6151 377.245 59.2067 377.504 58.8516C377.767 58.4964 378.124 58.2177 378.575 58.0153C379.029 57.8129 379.544 57.7116 380.12 57.7116C380.929 57.7116 381.565 57.8892 382.027 58.2443C382.492 58.5994 382.822 59.0682 383.017 59.6506ZM102.24 84.1491C101.523 84.1491 100.905 84.0178 100.386 83.755C99.8679 83.4922 99.4684 83.1317 99.1879 82.6737C98.9073 82.2156 98.767 81.6918 98.767 81.1023C98.767 80.6477 98.8629 80.2447 99.0547 79.8931C99.25 79.538 99.5181 79.2095 99.859 78.9077C100.203 78.6023 100.599 78.2969 101.047 77.9915L102.624 76.8196C102.933 76.6172 103.179 76.4006 103.364 76.1697C103.552 75.9389 103.646 75.6371 103.646 75.2642C103.646 74.9872 103.524 74.7191 103.279 74.4599C103.037 74.2006 102.719 74.071 102.325 74.071C102.048 74.071 101.803 74.142 101.59 74.2841C101.381 74.4226 101.216 74.6001 101.095 74.8168C100.978 75.0298 100.919 75.25 100.919 75.4773C100.919 75.733 100.988 75.9922 101.127 76.255C101.269 76.5142 101.448 76.7805 101.665 77.054C101.885 77.3239 102.112 77.6009 102.347 77.8849L107.354 84H105.841L101.707 79.0142C101.324 78.5526 100.976 78.1335 100.663 77.7571C100.351 77.3807 100.102 77.0096 99.9176 76.6438C99.733 76.2781 99.6406 75.8821 99.6406 75.456C99.6406 74.9659 99.7489 74.5362 99.9656 74.1669C100.186 73.794 100.493 73.5046 100.887 73.2987C101.285 73.0891 101.75 72.9844 102.283 72.9844C102.83 72.9844 103.3 73.0909 103.694 73.304C104.088 73.5135 104.392 73.7923 104.605 74.1403C104.818 74.4847 104.925 74.8594 104.925 75.2642C104.925 75.7862 104.795 76.239 104.536 76.6225C104.277 77.006 103.923 77.3629 103.476 77.6932L101.303 79.3125C100.813 79.6747 100.48 80.0263 100.306 80.3672C100.132 80.7081 100.045 80.9531 100.045 81.1023C100.045 81.4432 100.134 81.761 100.312 82.0558C100.489 82.3505 100.74 82.5884 101.063 82.7695C101.386 82.9506 101.764 83.0412 102.197 83.0412C102.609 83.0412 103.011 82.9542 103.401 82.7802C103.792 82.6026 104.145 82.3469 104.461 82.0131C104.781 81.6793 105.033 81.2781 105.218 80.8093C105.406 80.3406 105.5 79.8132 105.5 79.2273H106.714C106.714 79.9517 106.631 80.543 106.464 81.0011C106.297 81.4592 106.109 81.8178 105.9 82.0771C105.69 82.3363 105.521 82.5298 105.393 82.6577C105.351 82.7109 105.312 82.7642 105.276 82.8175C105.241 82.8707 105.202 82.924 105.159 82.9773C104.808 83.3714 104.364 83.6662 103.827 83.8615C103.291 84.0533 102.762 84.1491 102.24 84.1491ZM118.759 77.6506L117.63 77.9702C117.559 77.782 117.454 77.5991 117.316 77.4215C117.181 77.2404 116.996 77.0913 116.762 76.9741C116.528 76.8569 116.228 76.7983 115.862 76.7983C115.361 76.7983 114.944 76.9137 114.61 77.1445C114.28 77.3718 114.115 77.6612 114.115 78.0128C114.115 78.3253 114.228 78.5721 114.456 78.7532C114.683 78.9343 115.038 79.0852 115.521 79.206L116.735 79.5043C117.467 79.6818 118.012 79.9535 118.371 80.3192C118.729 80.6815 118.909 81.1484 118.909 81.7202C118.909 82.1889 118.774 82.608 118.504 82.9773C118.237 83.3466 117.865 83.6378 117.385 83.8509C116.906 84.0639 116.348 84.1705 115.713 84.1705C114.878 84.1705 114.187 83.9893 113.641 83.6271C113.094 83.2649 112.747 82.7358 112.602 82.0398L113.795 81.7415C113.909 82.1818 114.123 82.5121 114.44 82.7322C114.759 82.9524 115.176 83.0625 115.691 83.0625C116.277 83.0625 116.742 82.9382 117.087 82.6896C117.435 82.4375 117.609 82.1357 117.609 81.7841C117.609 81.5 117.509 81.2621 117.311 81.0703C117.112 80.875 116.806 80.7294 116.394 80.6335L115.031 80.3139C114.282 80.1364 113.731 79.8612 113.38 79.4883C113.032 79.1119 112.858 78.6413 112.858 78.0767C112.858 77.6151 112.987 77.2067 113.246 76.8516C113.509 76.4964 113.866 76.2177 114.317 76.0153C114.772 75.8129 115.286 75.7116 115.862 75.7116C116.671 75.7116 117.307 75.8892 117.769 76.2443C118.234 76.5994 118.564 77.0682 118.759 77.6506ZM125.957 80.6548V75.8182H127.214V84H125.957V82.6151H125.872C125.68 83.0305 125.382 83.3839 124.977 83.6751C124.572 83.9627 124.061 84.1065 123.443 84.1065C122.932 84.1065 122.477 83.9947 122.079 83.771C121.682 83.5437 121.369 83.2028 121.142 82.7482C120.915 82.2901 120.801 81.7131 120.801 81.017V75.8182H122.058V80.9318C122.058 81.5284 122.225 82.0043 122.559 82.3594C122.896 82.7145 123.326 82.892 123.848 82.892C124.16 82.892 124.478 82.8121 124.801 82.6523C125.128 82.4925 125.401 82.2475 125.622 81.9173C125.845 81.587 125.957 81.1662 125.957 80.6548ZM129.517 87.0682V75.8182H130.731V77.1179H130.88C130.973 76.9759 131.101 76.7947 131.264 76.5746C131.431 76.3509 131.669 76.152 131.978 75.978C132.29 75.8004 132.713 75.7116 133.245 75.7116C133.934 75.7116 134.542 75.8839 135.067 76.2283C135.593 76.5728 136.003 77.0611 136.298 77.6932C136.592 78.3253 136.74 79.071 136.74 79.9304C136.74 80.7969 136.592 81.5479 136.298 82.1836C136.003 82.8157 135.595 83.3058 135.073 83.6538C134.551 83.9982 133.949 84.1705 133.267 84.1705C132.741 84.1705 132.32 84.0835 132.004 83.9094C131.688 83.7319 131.445 83.5312 131.275 83.3075C131.104 83.0803 130.973 82.892 130.88 82.7429H130.774V87.0682H129.517ZM130.753 79.9091C130.753 80.527 130.843 81.0721 131.024 81.5444C131.205 82.0131 131.47 82.3807 131.818 82.647C132.166 82.9098 132.592 83.0412 133.096 83.0412C133.622 83.0412 134.06 82.9027 134.412 82.6257C134.767 82.3452 135.033 81.9687 135.211 81.4964C135.392 81.0206 135.483 80.4915 135.483 79.9091C135.483 79.3338 135.394 78.8153 135.216 78.3537C135.042 77.8885 134.778 77.521 134.423 77.2511C134.071 76.9776 133.629 76.8409 133.096 76.8409C132.585 76.8409 132.155 76.9705 131.807 77.2298C131.459 77.4854 131.196 77.8441 131.019 78.3058C130.841 78.7638 130.753 79.2983 130.753 79.9091ZM142.088 84.1705C141.299 84.1705 140.619 83.9964 140.048 83.6484C139.479 83.2969 139.041 82.8068 138.732 82.1783C138.427 81.5462 138.274 80.8111 138.274 79.973C138.274 79.1349 138.427 78.3963 138.732 77.7571C139.041 77.1143 139.471 76.6136 140.021 76.255C140.575 75.8928 141.221 75.7116 141.96 75.7116C142.386 75.7116 142.807 75.7827 143.222 75.9247C143.638 76.0668 144.016 76.2976 144.357 76.6172C144.698 76.9332 144.97 77.3523 145.172 77.8743C145.374 78.3963 145.476 79.0391 145.476 79.8026V80.3352H139.169V79.2486H144.197C144.197 78.7869 144.105 78.375 143.92 78.0128C143.739 77.6506 143.48 77.3647 143.142 77.1552C142.809 76.9457 142.415 76.8409 141.96 76.8409C141.459 76.8409 141.026 76.9652 140.66 77.2138C140.298 77.4588 140.019 77.7784 139.824 78.1726C139.629 78.5668 139.531 78.9893 139.531 79.4403V80.1648C139.531 80.7827 139.638 81.3065 139.851 81.7362C140.067 82.1623 140.367 82.4872 140.751 82.7109C141.134 82.9311 141.58 83.0412 142.088 83.0412C142.418 83.0412 142.716 82.995 142.983 82.9027C143.253 82.8068 143.485 82.6648 143.68 82.4766C143.876 82.2848 144.027 82.0469 144.133 81.7628L145.348 82.1037C145.22 82.5156 145.005 82.8778 144.703 83.1903C144.401 83.4993 144.028 83.7408 143.585 83.9148C143.141 84.0852 142.642 84.1705 142.088 84.1705ZM147.388 84V75.8182H148.602V77.054H148.688C148.837 76.6491 149.107 76.3207 149.497 76.0685C149.888 75.8164 150.328 75.6903 150.818 75.6903C150.911 75.6903 151.026 75.6921 151.165 75.6957C151.303 75.6992 151.408 75.7045 151.479 75.7116V76.9901C151.436 76.9794 151.339 76.9634 151.186 76.9421C151.037 76.9173 150.879 76.9048 150.712 76.9048C150.314 76.9048 149.959 76.9883 149.646 77.1552C149.337 77.3185 149.092 77.5458 148.911 77.837C148.734 78.1246 148.645 78.4531 148.645 78.8224V84H147.388ZM159.595 84.1918C159.077 84.1918 158.606 84.0941 158.184 83.8988C157.761 83.6999 157.426 83.4141 157.177 83.0412C156.928 82.6648 156.804 82.2102 156.804 81.6776C156.804 81.2088 156.896 80.8288 157.081 80.5376C157.266 80.2429 157.513 80.0121 157.822 79.8452C158.131 79.6783 158.471 79.554 158.844 79.4723C159.221 79.3871 159.599 79.3196 159.979 79.2699C160.476 79.206 160.879 79.158 161.188 79.1261C161.501 79.0906 161.728 79.032 161.87 78.9503C162.015 78.8686 162.088 78.7266 162.088 78.5241V78.4815C162.088 77.956 161.944 77.5476 161.657 77.2564C161.373 76.9652 160.941 76.8196 160.362 76.8196C159.762 76.8196 159.292 76.951 158.951 77.2138C158.61 77.4766 158.37 77.7571 158.232 78.0554L157.039 77.6293C157.252 77.1321 157.536 76.745 157.891 76.468C158.249 76.1875 158.64 75.9922 159.063 75.8821C159.489 75.7685 159.908 75.7116 160.32 75.7116C160.583 75.7116 160.884 75.7436 161.225 75.8075C161.57 75.8679 161.902 75.994 162.221 76.1857C162.545 76.3775 162.813 76.6669 163.026 77.054C163.239 77.4411 163.345 77.9595 163.345 78.6094V84H162.088V82.892H162.024C161.939 83.0696 161.797 83.2596 161.598 83.462C161.399 83.6644 161.135 83.8366 160.805 83.9787C160.474 84.1207 160.071 84.1918 159.595 84.1918ZM159.787 83.0625C160.284 83.0625 160.703 82.9648 161.044 82.7695C161.389 82.5742 161.648 82.3221 161.822 82.0131C161.999 81.7042 162.088 81.3793 162.088 81.0384V79.8878C162.035 79.9517 161.918 80.0103 161.737 80.0636C161.559 80.1133 161.353 80.1577 161.119 80.1967C160.888 80.2322 160.662 80.2642 160.442 80.2926C160.226 80.3175 160.05 80.3388 159.915 80.3565C159.588 80.3991 159.283 80.4684 158.999 80.5643C158.718 80.6566 158.491 80.7969 158.317 80.9851C158.146 81.1697 158.061 81.4219 158.061 81.7415C158.061 82.1783 158.223 82.5085 158.546 82.7322C158.873 82.9524 159.286 83.0625 159.787 83.0625ZM166.897 79.0781V84H165.64V75.8182H166.854V77.0966H166.961C167.153 76.6811 167.444 76.3473 167.834 76.0952C168.225 75.8395 168.729 75.7116 169.347 75.7116C169.901 75.7116 170.386 75.8253 170.801 76.0526C171.217 76.2763 171.54 76.6172 171.771 77.0753C172.002 77.5298 172.117 78.1051 172.117 78.8011V84H170.86V78.8864C170.86 78.2436 170.693 77.7429 170.359 77.3842C170.025 77.022 169.567 76.8409 168.985 76.8409C168.584 76.8409 168.225 76.9279 167.909 77.1019C167.597 77.2759 167.35 77.5298 167.169 77.8636C166.987 78.1974 166.897 78.6023 166.897 79.0781ZM177.717 87.2386C177.11 87.2386 176.588 87.1605 176.151 87.0043C175.714 86.8516 175.35 86.6491 175.059 86.397C174.771 86.1484 174.542 85.8821 174.372 85.598L175.373 84.8949C175.487 85.044 175.631 85.2145 175.805 85.4062C175.979 85.6016 176.216 85.7702 176.518 85.9123C176.824 86.0579 177.223 86.1307 177.717 86.1307C178.377 86.1307 178.922 85.9709 179.352 85.6513C179.782 85.3317 179.997 84.831 179.997 84.1491V82.4872H179.89C179.798 82.6364 179.666 82.821 179.496 83.0412C179.329 83.2578 179.088 83.4513 178.771 83.6218C178.459 83.7887 178.036 83.8722 177.504 83.8722C176.843 83.8722 176.25 83.7159 175.725 83.4034C175.203 83.0909 174.789 82.6364 174.483 82.0398C174.182 81.4432 174.031 80.7187 174.031 79.8665C174.031 79.0284 174.178 78.2987 174.473 77.6772C174.768 77.0522 175.178 76.5692 175.703 76.2283C176.229 75.8839 176.836 75.7116 177.525 75.7116C178.058 75.7116 178.48 75.8004 178.793 75.978C179.109 76.152 179.35 76.3509 179.517 76.5746C179.688 76.7947 179.819 76.9759 179.911 77.1179H180.039V75.8182H181.254V84.2344C181.254 84.9375 181.094 85.5092 180.774 85.9496C180.458 86.3935 180.032 86.7184 179.496 86.9244C178.963 87.1339 178.37 87.2386 177.717 87.2386ZM177.674 82.7429C178.178 82.7429 178.605 82.6275 178.953 82.3967C179.301 82.1658 179.565 81.8338 179.746 81.4006C179.927 80.9673 180.018 80.4489 180.018 79.8452C180.018 79.2557 179.929 78.7354 179.752 78.2844C179.574 77.8335 179.311 77.4801 178.963 77.2244C178.615 76.9687 178.186 76.8409 177.674 76.8409C177.142 76.8409 176.698 76.9759 176.343 77.2457C175.991 77.5156 175.726 77.8778 175.549 78.3324C175.375 78.7869 175.288 79.2912 175.288 79.8452C175.288 80.4134 175.377 80.9158 175.554 81.3526C175.735 81.7859 176.002 82.1268 176.353 82.3754C176.708 82.6204 177.149 82.7429 177.674 82.7429ZM186.985 84.1705C186.197 84.1705 185.517 83.9964 184.945 83.6484C184.377 83.2969 183.938 82.8068 183.629 82.1783C183.324 81.5462 183.171 80.8111 183.171 79.973C183.171 79.1349 183.324 78.3963 183.629 77.7571C183.938 77.1143 184.368 76.6136 184.919 76.255C185.472 75.8928 186.119 75.7116 186.857 75.7116C187.284 75.7116 187.704 75.7827 188.12 75.9247C188.535 76.0668 188.914 76.2976 189.254 76.6172C189.595 76.9332 189.867 77.3523 190.069 77.8743C190.272 78.3963 190.373 79.0391 190.373 79.8026V80.3352H184.066V79.2486H189.095C189.095 78.7869 189.002 78.375 188.818 78.0128C188.637 77.6506 188.377 77.3647 188.04 77.1552C187.706 76.9457 187.312 76.8409 186.857 76.8409C186.357 76.8409 185.923 76.9652 185.558 77.2138C185.195 77.4588 184.917 77.7784 184.721 78.1726C184.526 78.5668 184.428 78.9893 184.428 79.4403V80.1648C184.428 80.7827 184.535 81.3065 184.748 81.7362C184.965 82.1623 185.265 82.4872 185.648 82.7109C186.032 82.9311 186.477 83.0412 186.985 83.0412C187.316 83.0412 187.614 82.995 187.88 82.9027C188.15 82.8068 188.383 82.6648 188.578 82.4766C188.773 82.2848 188.924 82.0469 189.031 81.7628L190.245 82.1037C190.117 82.5156 189.903 82.8778 189.601 83.1903C189.299 83.4993 188.926 83.7408 188.482 83.9148C188.038 84.0852 187.539 84.1705 186.985 84.1705ZM193.542 73.0909V84H192.285V73.0909H193.542ZM201.64 77.6506L200.511 77.9702C200.44 77.782 200.335 77.5991 200.197 77.4215C200.062 77.2404 199.877 77.0913 199.643 76.9741C199.408 76.8569 199.108 76.7983 198.743 76.7983C198.242 76.7983 197.825 76.9137 197.491 77.1445C197.161 77.3718 196.995 77.6612 196.995 78.0128C196.995 78.3253 197.109 78.5721 197.336 78.7532C197.564 78.9343 197.919 79.0852 198.402 79.206L199.616 79.5043C200.348 79.6818 200.893 79.9535 201.252 80.3192C201.61 80.6815 201.79 81.1484 201.79 81.7202C201.79 82.1889 201.655 82.608 201.385 82.9773C201.118 83.3466 200.745 83.6378 200.266 83.8509C199.787 84.0639 199.229 84.1705 198.593 84.1705C197.759 84.1705 197.068 83.9893 196.521 83.6271C195.975 83.2649 195.628 82.7358 195.483 82.0398L196.676 81.7415C196.79 82.1818 197.004 82.5121 197.32 82.7322C197.64 82.9524 198.057 83.0625 198.572 83.0625C199.158 83.0625 199.623 82.9382 199.968 82.6896C200.316 82.4375 200.49 82.1357 200.49 81.7841C200.49 81.5 200.39 81.2621 200.191 81.0703C199.993 80.875 199.687 80.7294 199.275 80.6335L197.912 80.3139C197.162 80.1364 196.612 79.8612 196.26 79.4883C195.912 79.1119 195.738 78.6413 195.738 78.0767C195.738 77.6151 195.868 77.2067 196.127 76.8516C196.39 76.4964 196.747 76.2177 197.198 76.0153C197.652 75.8129 198.167 75.7116 198.743 75.7116C199.552 75.7116 200.188 75.8892 200.65 76.2443C201.115 76.5994 201.445 77.0682 201.64 77.6506Z" fill="#A9A9A9"/>
</g>
<defs>
<filter id="filter0_d_73_3137" x="0" y="0" width="421" height="115" filterUnits="userSpaceOnUse" color-interpolation-filters="sRGB">
<feFlood flood-opacity="0" result="BackgroundImageFix"/>
<feColorMatrix in="SourceAlpha" type="matrix" values="0 0 0 0 0 0 0 0 0 0 0 0 0 0 0 0 0 0 127 0" result="hardAlpha"/>
<feOffset dy="4"/>
<feGaussianBlur stdDeviation="2"/>
<feComposite in2="hardAlpha" operator="out"/>
<feColorMatrix type="matrix" values="0 0 0 0 0.84917 0 0 0 0 0.84917 0 0 0 0 0.84917 0 0 0 0.25 0"/>
<feBlend mode="normal" in2="BackgroundImageFix" result="effect1_dropShadow_73_3137"/>
<feBlend mode="normal" in="SourceGraphic" in2="effect1_dropShadow_73_3137" result="shape"/>
</filter>
</defs>
</svg>
