<svg width="931" height="115" viewBox="0 0 931 115" fill="none" xmlns="http://www.w3.org/2000/svg">
<g filter="url(#filter0_d_73_3158)">
<rect x="4" width="413" height="107" rx="5" fill="white"/>
<rect x="4.5" y="0.5" width="412" height="106" rx="4.5" stroke="black" stroke-opacity="0.15"/>
<path d="M98.598 39V24.4545H100.793V37.1108H107.384V39H98.598ZM109.717 39V28.0909H111.84V39H109.717ZM110.789 26.4077C110.42 26.4077 110.103 26.2846 109.837 26.0384C109.577 25.7874 109.447 25.4891 109.447 25.1435C109.447 24.7931 109.577 24.4948 109.837 24.2486C110.103 23.9976 110.42 23.8722 110.789 23.8722C111.158 23.8722 111.473 23.9976 111.734 24.2486C111.999 24.4948 112.131 24.7931 112.131 25.1435C112.131 25.4891 111.999 25.7874 111.734 26.0384C111.473 26.2846 111.158 26.4077 110.789 26.4077ZM114.697 39V28.0909H116.735V29.8665H116.87C117.098 29.2652 117.469 28.7964 117.985 28.4602C118.502 28.1193 119.119 27.9489 119.839 27.9489C120.568 27.9489 121.179 28.1193 121.672 28.4602C122.169 28.8011 122.536 29.2699 122.772 29.8665H122.886C123.146 29.2841 123.561 28.8201 124.129 28.4744C124.697 28.1241 125.374 27.9489 126.16 27.9489C127.15 27.9489 127.957 28.259 128.582 28.8793C129.212 29.4995 129.527 30.4347 129.527 31.6847V39H127.403V31.8835C127.403 31.1449 127.202 30.6098 126.799 30.2784C126.397 29.947 125.916 29.7812 125.358 29.7812C124.666 29.7812 124.129 29.9943 123.745 30.4205C123.362 30.8419 123.17 31.384 123.17 32.0469V39H121.054V31.7486C121.054 31.1567 120.869 30.6809 120.5 30.321C120.13 29.9612 119.65 29.7812 119.058 29.7812C118.655 29.7812 118.284 29.8878 117.943 30.1009C117.607 30.3092 117.334 30.6004 117.126 30.9744C116.922 31.3485 116.821 31.7817 116.821 32.2741V39H114.697ZM132.373 39V28.0909H134.496V39H132.373ZM133.445 26.4077C133.076 26.4077 132.759 26.2846 132.494 26.0384C132.233 25.7874 132.103 25.4891 132.103 25.1435C132.103 24.7931 132.233 24.4948 132.494 24.2486C132.759 23.9976 133.076 23.8722 133.445 23.8722C133.815 23.8722 134.129 23.9976 134.39 24.2486C134.655 24.4948 134.788 24.7931 134.788 25.1435C134.788 25.4891 134.655 25.7874 134.39 26.0384C134.129 26.2846 133.815 26.4077 133.445 26.4077ZM142.446 28.0909V29.7955H136.487V28.0909H142.446ZM138.085 25.4773H140.208V35.7969C140.208 36.2088 140.27 36.5189 140.393 36.7273C140.516 36.9309 140.675 37.0705 140.869 37.1463C141.068 37.2173 141.283 37.2528 141.515 37.2528C141.686 37.2528 141.835 37.241 141.963 37.2173C142.091 37.1937 142.19 37.1747 142.261 37.1605L142.645 38.9148C142.521 38.9621 142.346 39.0095 142.119 39.0568C141.892 39.1089 141.608 39.1373 141.267 39.142C140.708 39.1515 140.187 39.0521 139.704 38.8438C139.221 38.6354 138.831 38.3134 138.532 37.8778C138.234 37.4422 138.085 36.8954 138.085 36.2372V25.4773ZM149.379 39.2202C148.304 39.2202 147.379 38.9905 146.602 38.5312C145.83 38.0672 145.234 37.4162 144.812 36.5781C144.396 35.7353 144.188 34.7481 144.188 33.6165C144.188 32.4991 144.396 31.5142 144.812 30.6619C145.234 29.8097 145.821 29.1444 146.574 28.6662C147.331 28.188 148.217 27.9489 149.23 27.9489C149.846 27.9489 150.442 28.0507 151.02 28.2543C151.598 28.4579 152.116 28.7775 152.575 29.2131C153.035 29.6487 153.397 30.2145 153.662 30.9105C153.927 31.6018 154.06 32.4422 154.06 33.4318V34.1847H145.388V32.5938H151.979C151.979 32.035 151.865 31.5402 151.638 31.1094C151.411 30.6738 151.091 30.3305 150.679 30.0795C150.272 29.8286 149.794 29.7031 149.244 29.7031C148.648 29.7031 148.127 29.8499 147.682 30.1435C147.241 30.4323 146.901 30.8111 146.659 31.2798C146.422 31.7438 146.304 32.2481 146.304 32.7926V34.0355C146.304 34.7647 146.432 35.3849 146.688 35.8963C146.948 36.4077 147.31 36.7983 147.774 37.0682C148.238 37.3333 148.78 37.4659 149.401 37.4659C149.803 37.4659 150.17 37.4091 150.501 37.2955C150.833 37.1771 151.119 37.0019 151.361 36.7699C151.602 36.5379 151.787 36.2514 151.915 35.9105L153.925 36.2727C153.764 36.8646 153.475 37.383 153.058 37.8281C152.646 38.2685 152.128 38.6117 151.503 38.858C150.883 39.0994 150.175 39.2202 149.379 39.2202ZM160.5 39.2131C159.619 39.2131 158.833 38.9882 158.142 38.5384C157.455 38.0838 156.915 37.4375 156.522 36.5994C156.134 35.7566 155.94 34.7457 155.94 33.5668C155.94 32.3878 156.136 31.3793 156.529 30.5412C156.927 29.7031 157.472 29.0616 158.163 28.6165C158.854 28.1714 159.638 27.9489 160.514 27.9489C161.191 27.9489 161.735 28.0625 162.147 28.2898C162.564 28.5123 162.886 28.7727 163.113 29.071C163.345 29.3693 163.525 29.6321 163.653 29.8594H163.781V24.4545H165.904V39H163.831V37.3026H163.653C163.525 37.5346 163.341 37.7997 163.099 38.098C162.862 38.3963 162.536 38.6567 162.119 38.8793C161.702 39.1018 161.163 39.2131 160.5 39.2131ZM160.968 37.402C161.579 37.402 162.095 37.241 162.517 36.919C162.943 36.5923 163.265 36.1402 163.483 35.5625C163.705 34.9848 163.816 34.3125 163.816 33.5455C163.816 32.7879 163.708 32.125 163.49 31.5568C163.272 30.9886 162.952 30.5459 162.531 30.2287C162.109 29.9115 161.589 29.7528 160.968 29.7528C160.329 29.7528 159.797 29.9186 159.37 30.25C158.944 30.5814 158.622 31.0336 158.404 31.6065C158.191 32.1795 158.085 32.8258 158.085 33.5455C158.085 34.2746 158.194 34.9304 158.412 35.5128C158.629 36.0952 158.951 36.5568 159.377 36.8977C159.808 37.2339 160.339 37.402 160.968 37.402ZM168.935 43.0909V28.0909H171.009V29.8594H171.187C171.31 29.6321 171.487 29.3693 171.719 29.071C171.951 28.7727 172.273 28.5123 172.685 28.2898C173.097 28.0625 173.642 27.9489 174.319 27.9489C175.2 27.9489 175.986 28.1714 176.677 28.6165C177.368 29.0616 177.91 29.7031 178.303 30.5412C178.701 31.3793 178.9 32.3878 178.9 33.5668C178.9 34.7457 178.703 35.7566 178.31 36.5994C177.917 37.4375 177.378 38.0838 176.691 38.5384C176.004 38.9882 175.221 39.2131 174.34 39.2131C173.677 39.2131 173.135 39.1018 172.714 38.8793C172.297 38.6567 171.97 38.3963 171.734 38.098C171.497 37.7997 171.315 37.5346 171.187 37.3026H171.059V43.0909H168.935ZM171.016 33.5455C171.016 34.3125 171.128 34.9848 171.35 35.5625C171.573 36.1402 171.895 36.5923 172.316 36.919C172.737 37.241 173.254 37.402 173.864 37.402C174.499 37.402 175.029 37.2339 175.455 36.8977C175.881 36.5568 176.203 36.0952 176.421 35.5128C176.644 34.9304 176.755 34.2746 176.755 33.5455C176.755 32.8258 176.646 32.1795 176.428 31.6065C176.215 31.0336 175.893 30.5814 175.462 30.25C175.036 29.9186 174.504 29.7528 173.864 29.7528C173.249 29.7528 172.728 29.9115 172.302 30.2287C171.88 30.5459 171.561 30.9886 171.343 31.5568C171.125 32.125 171.016 32.7879 171.016 33.5455ZM184.454 39.2415C183.763 39.2415 183.138 39.1136 182.579 38.858C182.02 38.5975 181.577 38.2211 181.251 37.7287C180.929 37.2363 180.768 36.6326 180.768 35.9176C180.768 35.3021 180.886 34.7955 181.123 34.3977C181.36 34 181.679 33.6851 182.082 33.4531C182.484 33.2211 182.934 33.0459 183.431 32.9276C183.928 32.8092 184.435 32.7192 184.951 32.6577C185.604 32.5819 186.135 32.5204 186.542 32.473C186.949 32.4209 187.245 32.3381 187.43 32.2244C187.614 32.1108 187.707 31.9261 187.707 31.6705V31.6207C187.707 31.0005 187.531 30.5199 187.181 30.179C186.835 29.8381 186.319 29.6676 185.633 29.6676C184.918 29.6676 184.354 29.8262 183.942 30.1435C183.535 30.456 183.254 30.804 183.097 31.1875L181.102 30.733C181.338 30.0701 181.684 29.535 182.138 29.1278C182.598 28.7159 183.126 28.4176 183.722 28.233C184.319 28.0436 184.946 27.9489 185.604 27.9489C186.04 27.9489 186.502 28.0009 186.989 28.1051C187.482 28.2045 187.941 28.3892 188.367 28.6591C188.798 28.929 189.151 29.3149 189.425 29.8168C189.7 30.3139 189.837 30.9602 189.837 31.7557V39H187.763V37.5085H187.678C187.541 37.7831 187.335 38.053 187.06 38.3182C186.786 38.5833 186.433 38.8035 186.002 38.9787C185.571 39.1539 185.055 39.2415 184.454 39.2415ZM184.915 37.5369C185.503 37.5369 186.004 37.4209 186.421 37.1889C186.843 36.9569 187.162 36.6539 187.38 36.2798C187.603 35.901 187.714 35.4962 187.714 35.0653V33.6591C187.638 33.7348 187.491 33.8059 187.273 33.8722C187.06 33.9337 186.817 33.9882 186.542 34.0355C186.267 34.0781 186 34.1184 185.739 34.1562C185.479 34.1894 185.261 34.2178 185.086 34.2415C184.674 34.2936 184.298 34.3812 183.957 34.5043C183.621 34.6274 183.351 34.8049 183.147 35.0369C182.948 35.2642 182.849 35.5672 182.849 35.946C182.849 36.4716 183.043 36.8693 183.431 37.1392C183.819 37.4044 184.314 37.5369 184.915 37.5369ZM192.666 39V28.0909H194.718V29.8239H194.832C195.031 29.2367 195.381 28.7751 195.883 28.4389C196.39 28.098 196.963 27.9276 197.602 27.9276C197.734 27.9276 197.891 27.9323 198.071 27.9418C198.255 27.9512 198.4 27.9631 198.504 27.9773V30.0085C198.419 29.9848 198.267 29.9588 198.049 29.9304C197.832 29.8973 197.614 29.8807 197.396 29.8807C196.894 29.8807 196.447 29.9872 196.054 30.2003C195.665 30.4086 195.358 30.6998 195.13 31.0739C194.903 31.4432 194.789 31.8646 194.789 32.3381V39H192.666ZM206.078 28.0909V29.7955H200.12V28.0909H206.078ZM201.718 25.4773H203.841V35.7969C203.841 36.2088 203.903 36.5189 204.026 36.7273C204.149 36.9309 204.308 37.0705 204.502 37.1463C204.701 37.2173 204.916 37.2528 205.148 37.2528C205.319 37.2528 205.468 37.241 205.596 37.2173C205.723 37.1937 205.823 37.1747 205.894 37.1605L206.277 38.9148C206.154 38.9621 205.979 39.0095 205.752 39.0568C205.525 39.1089 205.24 39.1373 204.9 39.142C204.341 39.1515 203.82 39.0521 203.337 38.8438C202.854 38.6354 202.463 38.3134 202.165 37.8778C201.867 37.4422 201.718 36.8954 201.718 36.2372V25.4773ZM210.551 32.5227V39H208.428V28.0909H210.466V29.8665H210.601C210.852 29.2888 211.245 28.8248 211.78 28.4744C212.32 28.1241 212.999 27.9489 213.818 27.9489C214.562 27.9489 215.213 28.1051 215.771 28.4176C216.33 28.7254 216.763 29.1847 217.071 29.7955C217.379 30.4062 217.533 31.1615 217.533 32.0611V39H215.409V32.3168C215.409 31.526 215.203 30.9081 214.791 30.4631C214.379 30.0133 213.813 29.7884 213.094 29.7884C212.601 29.7884 212.163 29.8949 211.78 30.108C211.401 30.321 211.1 30.6335 210.878 31.0455C210.66 31.4527 210.551 31.9451 210.551 32.5227ZM225.082 39.2202C224.008 39.2202 223.082 38.9905 222.305 38.5312C221.534 38.0672 220.937 37.4162 220.516 36.5781C220.099 35.7353 219.891 34.7481 219.891 33.6165C219.891 32.4991 220.099 31.5142 220.516 30.6619C220.937 29.8097 221.524 29.1444 222.277 28.6662C223.035 28.188 223.92 27.9489 224.933 27.9489C225.549 27.9489 226.145 28.0507 226.723 28.2543C227.301 28.4579 227.819 28.7775 228.278 29.2131C228.738 29.6487 229.1 30.2145 229.365 30.9105C229.63 31.6018 229.763 32.4422 229.763 33.4318V34.1847H221.091V32.5938H227.682C227.682 32.035 227.568 31.5402 227.341 31.1094C227.114 30.6738 226.794 30.3305 226.382 30.0795C225.975 29.8286 225.497 29.7031 224.947 29.7031C224.351 29.7031 223.83 29.8499 223.385 30.1435C222.945 30.4323 222.604 30.8111 222.362 31.2798C222.125 31.7438 222.007 32.2481 222.007 32.7926V34.0355C222.007 34.7647 222.135 35.3849 222.391 35.8963C222.651 36.4077 223.013 36.7983 223.477 37.0682C223.941 37.3333 224.483 37.4659 225.104 37.4659C225.506 37.4659 225.873 37.4091 226.205 37.2955C226.536 37.1771 226.822 37.0019 227.064 36.7699C227.305 36.5379 227.49 36.2514 227.618 35.9105L229.628 36.2727C229.467 36.8646 229.178 37.383 228.761 37.8281C228.349 38.2685 227.831 38.6117 227.206 38.858C226.586 39.0994 225.878 39.2202 225.082 39.2202ZM232.119 39V28.0909H234.172V29.8239H234.285C234.484 29.2367 234.834 28.7751 235.336 28.4389C235.843 28.098 236.416 27.9276 237.055 27.9276C237.188 27.9276 237.344 27.9323 237.524 27.9418C237.708 27.9512 237.853 27.9631 237.957 27.9773V30.0085C237.872 29.9848 237.72 29.9588 237.502 29.9304C237.285 29.8973 237.067 29.8807 236.849 29.8807C236.347 29.8807 235.9 29.9872 235.507 30.2003C235.118 30.4086 234.811 30.6998 234.583 31.0739C234.356 31.4432 234.243 31.8646 234.243 32.3381V39H232.119ZM239.944 39.1349C239.556 39.1349 239.222 38.9976 238.942 38.723C238.663 38.4437 238.523 38.1075 238.523 37.7145C238.523 37.3262 238.663 36.9948 238.942 36.7202C239.222 36.4408 239.556 36.3011 239.944 36.3011C240.332 36.3011 240.666 36.4408 240.945 36.7202C241.225 36.9948 241.364 37.3262 241.364 37.7145C241.364 37.9749 241.298 38.214 241.165 38.4318C241.038 38.6449 240.867 38.8153 240.654 38.9432C240.441 39.071 240.204 39.1349 239.944 39.1349ZM247.384 39.2415C246.692 39.2415 246.067 39.1136 245.509 38.858C244.95 38.5975 244.507 38.2211 244.18 37.7287C243.858 37.2363 243.697 36.6326 243.697 35.9176C243.697 35.3021 243.816 34.7955 244.053 34.3977C244.289 34 244.609 33.6851 245.011 33.4531C245.414 33.2211 245.864 33.0459 246.361 32.9276C246.858 32.8092 247.365 32.7192 247.881 32.6577C248.534 32.5819 249.064 32.5204 249.472 32.473C249.879 32.4209 250.175 32.3381 250.359 32.2244C250.544 32.1108 250.636 31.9261 250.636 31.6705V31.6207C250.636 31.0005 250.461 30.5199 250.111 30.179C249.765 29.8381 249.249 29.6676 248.562 29.6676C247.848 29.6676 247.284 29.8262 246.872 30.1435C246.465 30.456 246.183 30.804 246.027 31.1875L244.031 30.733C244.268 30.0701 244.614 29.535 245.068 29.1278C245.527 28.7159 246.055 28.4176 246.652 28.233C247.249 28.0436 247.876 27.9489 248.534 27.9489C248.97 27.9489 249.431 28.0009 249.919 28.1051C250.411 28.2045 250.871 28.3892 251.297 28.6591C251.728 28.929 252.08 29.3149 252.355 29.8168C252.63 30.3139 252.767 30.9602 252.767 31.7557V39H250.693V37.5085H250.608C250.471 37.7831 250.265 38.053 249.99 38.3182C249.715 38.5833 249.363 38.8035 248.932 38.9787C248.501 39.1539 247.985 39.2415 247.384 39.2415ZM247.845 37.5369C248.432 37.5369 248.934 37.4209 249.351 37.1889C249.772 36.9569 250.092 36.6539 250.31 36.2798C250.532 35.901 250.643 35.4962 250.643 35.0653V33.6591C250.568 33.7348 250.421 33.8059 250.203 33.8722C249.99 33.9337 249.746 33.9882 249.472 34.0355C249.197 34.0781 248.929 34.1184 248.669 34.1562C248.409 34.1894 248.191 34.2178 248.016 34.2415C247.604 34.2936 247.227 34.3812 246.886 34.5043C246.55 34.6274 246.28 34.8049 246.077 35.0369C245.878 35.2642 245.778 35.5672 245.778 35.946C245.778 36.4716 245.973 36.8693 246.361 37.1392C246.749 37.4044 247.244 37.5369 247.845 37.5369ZM255.596 39V28.0909H257.719V39H255.596ZM256.668 26.4077C256.299 26.4077 255.981 26.2846 255.716 26.0384C255.456 25.7874 255.326 25.4891 255.326 25.1435C255.326 24.7931 255.456 24.4948 255.716 24.2486C255.981 23.9976 256.299 23.8722 256.668 23.8722C257.037 23.8722 257.352 23.9976 257.613 24.2486C257.878 24.4948 258.01 24.7931 258.01 25.1435C258.01 25.4891 257.878 25.7874 257.613 26.0384C257.352 26.2846 257.037 26.4077 256.668 26.4077Z" fill="black"/>
<path d="M98.7685 66H97.3835L101.389 55.0909H102.753L106.759 66H105.374L102.114 56.8168H102.028L98.7685 66ZM99.2798 61.7386H104.862V62.9105H99.2798V61.7386ZM109.779 55.0909V66H108.458V55.0909H109.779ZM116.945 60.7372V61.9091H112.172V60.7372H116.945ZM119.156 69.0682V57.8182H120.371V59.1179H120.52C120.612 58.9759 120.74 58.7947 120.904 58.5746C121.07 58.3509 121.308 58.152 121.617 57.978C121.93 57.8004 122.352 57.7116 122.885 57.7116C123.574 57.7116 124.181 57.8839 124.707 58.2283C125.232 58.5728 125.643 59.0611 125.937 59.6932C126.232 60.3253 126.379 61.071 126.379 61.9304C126.379 62.7969 126.232 63.5479 125.937 64.1836C125.643 64.8157 125.234 65.3058 124.712 65.6538C124.19 65.9982 123.588 66.1705 122.906 66.1705C122.381 66.1705 121.96 66.0835 121.644 65.9094C121.328 65.7319 121.085 65.5312 120.914 65.3075C120.744 65.0803 120.612 64.892 120.52 64.7429H120.414V69.0682H119.156ZM120.392 61.9091C120.392 62.527 120.483 63.0721 120.664 63.5444C120.845 64.0131 121.11 64.3807 121.458 64.647C121.806 64.9098 122.232 65.0412 122.736 65.0412C123.262 65.0412 123.7 64.9027 124.052 64.6257C124.407 64.3452 124.673 63.9687 124.851 63.4964C125.032 63.0206 125.122 62.4915 125.122 61.9091C125.122 61.3338 125.034 60.8153 124.856 60.3537C124.682 59.8885 124.417 59.521 124.062 59.2511C123.711 58.9776 123.269 58.8409 122.736 58.8409C122.225 58.8409 121.795 58.9705 121.447 59.2298C121.099 59.4854 120.836 59.8441 120.659 60.3058C120.481 60.7638 120.392 61.2983 120.392 61.9091ZM131.621 66.1705C130.882 66.1705 130.234 65.9947 129.677 65.6431C129.123 65.2915 128.689 64.7997 128.377 64.1676C128.068 63.5355 127.914 62.7969 127.914 61.9517C127.914 61.0994 128.068 60.3555 128.377 59.7198C128.689 59.0842 129.123 58.5906 129.677 58.239C130.234 57.8874 130.882 57.7116 131.621 57.7116C132.36 57.7116 133.006 57.8874 133.56 58.239C134.117 58.5906 134.551 59.0842 134.86 59.7198C135.172 60.3555 135.328 61.0994 135.328 61.9517C135.328 62.7969 135.172 63.5355 134.86 64.1676C134.551 64.7997 134.117 65.2915 133.56 65.6431C133.006 65.9947 132.36 66.1705 131.621 66.1705ZM131.621 65.0412C132.182 65.0412 132.644 64.8974 133.006 64.6097C133.368 64.3221 133.636 63.9439 133.81 63.4751C133.984 63.0064 134.071 62.4986 134.071 61.9517C134.071 61.4048 133.984 60.8952 133.81 60.4229C133.636 59.9506 133.368 59.5689 133.006 59.2777C132.644 58.9865 132.182 58.8409 131.621 58.8409C131.06 58.8409 130.598 58.9865 130.236 59.2777C129.874 59.5689 129.606 59.9506 129.432 60.4229C129.258 60.8952 129.171 61.4048 129.171 61.9517C129.171 62.4986 129.258 63.0064 129.432 63.4751C129.606 63.9439 129.874 64.3221 130.236 64.6097C130.598 64.8974 131.06 65.0412 131.621 65.0412ZM138.823 66L136.33 57.8182H137.651L139.419 64.0824H139.504L141.252 57.8182H142.594L144.32 64.0611H144.405L146.173 57.8182H147.494L145.002 66H143.766L141.976 59.7145H141.848L140.058 66H138.823ZM152.309 66.1705C151.52 66.1705 150.84 65.9964 150.268 65.6484C149.7 65.2969 149.262 64.8068 148.953 64.1783C148.647 63.5462 148.495 62.8111 148.495 61.973C148.495 61.1349 148.647 60.3963 148.953 59.7571C149.262 59.1143 149.691 58.6136 150.242 58.255C150.796 57.8928 151.442 57.7116 152.181 57.7116C152.607 57.7116 153.028 57.7827 153.443 57.9247C153.859 58.0668 154.237 58.2976 154.578 58.6172C154.919 58.9332 155.19 59.3523 155.393 59.8743C155.595 60.3963 155.696 61.0391 155.696 61.8026V62.3352H149.389V61.2486H154.418C154.418 60.7869 154.326 60.375 154.141 60.0128C153.96 59.6506 153.701 59.3647 153.363 59.1552C153.029 58.9457 152.635 58.8409 152.181 58.8409C151.68 58.8409 151.247 58.9652 150.881 59.2138C150.519 59.4588 150.24 59.7784 150.045 60.1726C149.849 60.5668 149.752 60.9893 149.752 61.4403V62.1648C149.752 62.7827 149.858 63.3065 150.071 63.7362C150.288 64.1623 150.588 64.4872 150.972 64.7109C151.355 64.9311 151.801 65.0412 152.309 65.0412C152.639 65.0412 152.937 64.995 153.203 64.9027C153.473 64.8068 153.706 64.6648 153.901 64.4766C154.097 64.2848 154.247 64.0469 154.354 63.7628L155.568 64.1037C155.441 64.5156 155.226 64.8778 154.924 65.1903C154.622 65.4993 154.249 65.7408 153.805 65.9148C153.361 66.0852 152.862 66.1705 152.309 66.1705ZM157.609 66V57.8182H158.823V59.054H158.908C159.057 58.6491 159.327 58.3207 159.718 58.0685C160.109 57.8164 160.549 57.6903 161.039 57.6903C161.131 57.6903 161.247 57.6921 161.385 57.6957C161.524 57.6992 161.628 57.7045 161.699 57.7116V58.9901C161.657 58.9794 161.559 58.9634 161.407 58.9421C161.257 58.9173 161.099 58.9048 160.932 58.9048C160.535 58.9048 160.18 58.9883 159.867 59.1552C159.558 59.3185 159.313 59.5458 159.132 59.837C158.954 60.1246 158.866 60.4531 158.866 60.8224V66H157.609ZM166.371 66.1705C165.583 66.1705 164.903 65.9964 164.331 65.6484C163.763 65.2969 163.324 64.8068 163.015 64.1783C162.71 63.5462 162.557 62.8111 162.557 61.973C162.557 61.1349 162.71 60.3963 163.015 59.7571C163.324 59.1143 163.754 58.6136 164.304 58.255C164.858 57.8928 165.505 57.7116 166.243 57.7116C166.669 57.7116 167.09 57.7827 167.506 57.9247C167.921 58.0668 168.299 58.2976 168.64 58.6172C168.981 58.9332 169.253 59.3523 169.455 59.8743C169.658 60.3963 169.759 61.0391 169.759 61.8026V62.3352H163.452V61.2486H168.48C168.48 60.7869 168.388 60.375 168.203 60.0128C168.022 59.6506 167.763 59.3647 167.426 59.1552C167.092 58.9457 166.698 58.8409 166.243 58.8409C165.742 58.8409 165.309 58.9652 164.943 59.2138C164.581 59.4588 164.302 59.7784 164.107 60.1726C163.912 60.5668 163.814 60.9893 163.814 61.4403V62.1648C163.814 62.7827 163.921 63.3065 164.134 63.7362C164.35 64.1623 164.65 64.4872 165.034 64.7109C165.418 64.9311 165.863 65.0412 166.371 65.0412C166.701 65.0412 167 64.995 167.266 64.9027C167.536 64.8068 167.768 64.6648 167.964 64.4766C168.159 64.2848 168.31 64.0469 168.416 63.7628L169.631 64.1037C169.503 64.5156 169.288 64.8778 168.986 65.1903C168.685 65.4993 168.312 65.7408 167.868 65.9148C167.424 66.0852 166.925 66.1705 166.371 66.1705ZM174.761 66.1705C174.079 66.1705 173.477 65.9982 172.955 65.6538C172.433 65.3058 172.024 64.8157 171.73 64.1836C171.435 63.5479 171.288 62.7969 171.288 61.9304C171.288 61.071 171.435 60.3253 171.73 59.6932C172.024 59.0611 172.435 58.5728 172.96 58.2283C173.486 57.8839 174.093 57.7116 174.782 57.7116C175.315 57.7116 175.735 57.8004 176.044 57.978C176.357 58.152 176.595 58.3509 176.758 58.5746C176.925 58.7947 177.055 58.9759 177.147 59.1179H177.253V55.0909H178.511V66H177.296V64.7429H177.147C177.055 64.892 176.923 65.0803 176.753 65.3075C176.582 65.5312 176.339 65.7319 176.023 65.9094C175.707 66.0835 175.286 66.1705 174.761 66.1705ZM174.931 65.0412C175.435 65.0412 175.861 64.9098 176.209 64.647C176.557 64.3807 176.822 64.0131 177.003 63.5444C177.184 63.0721 177.275 62.527 177.275 61.9091C177.275 61.2983 177.186 60.7638 177.008 60.3058C176.831 59.8441 176.568 59.4854 176.22 59.2298C175.872 58.9705 175.442 58.8409 174.931 58.8409C174.398 58.8409 173.954 58.9776 173.599 59.2511C173.248 59.521 172.983 59.8885 172.806 60.3537C172.632 60.8153 172.545 61.3338 172.545 61.9091C172.545 62.4915 172.633 63.0206 172.811 63.4964C172.992 63.9687 173.258 64.3452 173.61 64.6257C173.965 64.9027 174.405 65.0412 174.931 65.0412ZM188.53 66.1705C187.763 66.1705 187.103 65.9893 186.549 65.6271C185.995 65.2649 185.568 64.766 185.27 64.1303C184.972 63.4947 184.823 62.7685 184.823 61.9517C184.823 61.1207 184.975 60.3874 185.281 59.7518C185.59 59.1126 186.019 58.6136 186.57 58.255C187.124 57.8928 187.77 57.7116 188.509 57.7116C189.084 57.7116 189.603 57.8182 190.064 58.0312C190.526 58.2443 190.904 58.5426 191.199 58.9261C191.494 59.3097 191.676 59.7571 191.747 60.2685H190.49C190.394 59.8956 190.181 59.5653 189.851 59.2777C189.524 58.9865 189.084 58.8409 188.53 58.8409C188.04 58.8409 187.61 58.9687 187.241 59.2244C186.875 59.4766 186.589 59.8335 186.383 60.2951C186.181 60.7532 186.08 61.2912 186.08 61.9091C186.08 62.5412 186.179 63.0916 186.378 63.5604C186.581 64.0291 186.865 64.3931 187.23 64.6523C187.6 64.9116 188.033 65.0412 188.53 65.0412C188.857 65.0412 189.153 64.9844 189.42 64.8707C189.686 64.7571 189.911 64.5938 190.096 64.3807C190.281 64.1676 190.412 63.9119 190.49 63.6136H191.747C191.676 64.0966 191.501 64.5316 191.22 64.9187C190.943 65.3022 190.576 65.6076 190.117 65.8349C189.663 66.0586 189.134 66.1705 188.53 66.1705ZM196.909 66.1705C196.17 66.1705 195.522 65.9947 194.965 65.6431C194.411 65.2915 193.978 64.7997 193.665 64.1676C193.356 63.5355 193.202 62.7969 193.202 61.9517C193.202 61.0994 193.356 60.3555 193.665 59.7198C193.978 59.0842 194.411 58.5906 194.965 58.239C195.522 57.8874 196.17 57.7116 196.909 57.7116C197.648 57.7116 198.294 57.8874 198.848 58.239C199.405 58.5906 199.839 59.0842 200.148 59.7198C200.46 60.3555 200.616 61.0994 200.616 61.9517C200.616 62.7969 200.46 63.5355 200.148 64.1676C199.839 64.7997 199.405 65.2915 198.848 65.6431C198.294 65.9947 197.648 66.1705 196.909 66.1705ZM196.909 65.0412C197.47 65.0412 197.932 64.8974 198.294 64.6097C198.656 64.3221 198.924 63.9439 199.098 63.4751C199.272 63.0064 199.359 62.4986 199.359 61.9517C199.359 61.4048 199.272 60.8952 199.098 60.4229C198.924 59.9506 198.656 59.5689 198.294 59.2777C197.932 58.9865 197.47 58.8409 196.909 58.8409C196.348 58.8409 195.886 58.9865 195.524 59.2777C195.162 59.5689 194.894 59.9506 194.72 60.4229C194.546 60.8952 194.459 61.4048 194.459 61.9517C194.459 62.4986 194.546 63.0064 194.72 63.4751C194.894 63.9439 195.162 64.3221 195.524 64.6097C195.886 64.8974 196.348 65.0412 196.909 65.0412ZM203.792 61.0781V66H202.535V57.8182H203.75V59.0966H203.856C204.048 58.6811 204.339 58.3473 204.73 58.0952C205.121 57.8395 205.625 57.7116 206.243 57.7116C206.797 57.7116 207.281 57.8253 207.697 58.0526C208.112 58.2763 208.436 58.6172 208.666 59.0753C208.897 59.5298 209.013 60.1051 209.013 60.8011V66H207.756V60.8864C207.756 60.2436 207.589 59.7429 207.255 59.3842C206.921 59.022 206.463 58.8409 205.881 58.8409C205.479 58.8409 205.121 58.9279 204.805 59.1019C204.492 59.2759 204.245 59.5298 204.064 59.8636C203.883 60.1974 203.792 60.6023 203.792 61.0781ZM214.868 57.8182V58.8835H210.628V57.8182H214.868ZM211.864 55.858H213.121V63.6562C213.121 64.0114 213.172 64.2777 213.275 64.4553C213.382 64.6293 213.517 64.7464 213.68 64.8068C213.847 64.8636 214.023 64.892 214.207 64.892C214.346 64.892 214.46 64.8849 214.548 64.8707C214.637 64.853 214.708 64.8388 214.761 64.8281L215.017 65.9574C214.932 65.9893 214.813 66.0213 214.66 66.0533C214.508 66.0888 214.314 66.1065 214.08 66.1065C213.725 66.1065 213.377 66.0302 213.036 65.8775C212.698 65.7248 212.418 65.4922 212.194 65.1797C211.974 64.8672 211.864 64.473 211.864 63.9972V55.858ZM216.759 66V57.8182H217.973V59.054H218.059C218.208 58.6491 218.478 58.3207 218.868 58.0685C219.259 57.8164 219.699 57.6903 220.189 57.6903C220.282 57.6903 220.397 57.6921 220.536 57.6957C220.674 57.6992 220.779 57.7045 220.85 57.7116V58.9901C220.807 58.9794 220.71 58.9634 220.557 58.9421C220.408 58.9173 220.25 58.9048 220.083 58.9048C219.685 58.9048 219.33 58.9883 219.017 59.1552C218.709 59.3185 218.464 59.5458 218.282 59.837C218.105 60.1246 218.016 60.4531 218.016 60.8224V66H216.759ZM225.415 66.1705C224.676 66.1705 224.028 65.9947 223.471 65.6431C222.917 65.2915 222.483 64.7997 222.171 64.1676C221.862 63.5355 221.707 62.7969 221.707 61.9517C221.707 61.0994 221.862 60.3555 222.171 59.7198C222.483 59.0842 222.917 58.5906 223.471 58.239C224.028 57.8874 224.676 57.7116 225.415 57.7116C226.153 57.7116 226.8 57.8874 227.354 58.239C227.911 58.5906 228.345 59.0842 228.653 59.7198C228.966 60.3555 229.122 61.0994 229.122 61.9517C229.122 62.7969 228.966 63.5355 228.653 64.1676C228.345 64.7997 227.911 65.2915 227.354 65.6431C226.8 65.9947 226.153 66.1705 225.415 66.1705ZM225.415 65.0412C225.976 65.0412 226.438 64.8974 226.8 64.6097C227.162 64.3221 227.43 63.9439 227.604 63.4751C227.778 63.0064 227.865 62.4986 227.865 61.9517C227.865 61.4048 227.778 60.8952 227.604 60.4229C227.43 59.9506 227.162 59.5689 226.8 59.2777C226.438 58.9865 225.976 58.8409 225.415 58.8409C224.854 58.8409 224.392 58.9865 224.03 59.2777C223.668 59.5689 223.4 59.9506 223.226 60.4229C223.052 60.8952 222.965 61.4048 222.965 61.9517C222.965 62.4986 223.052 63.0064 223.226 63.4751C223.4 63.9439 223.668 64.3221 224.03 64.6097C224.392 64.8974 224.854 65.0412 225.415 65.0412ZM232.298 55.0909V66H231.041V55.0909H232.298ZM238.82 69.0682V57.8182H240.034V59.1179H240.183C240.275 58.9759 240.403 58.7947 240.567 58.5746C240.734 58.3509 240.972 58.152 241.28 57.978C241.593 57.8004 242.016 57.7116 242.548 57.7116C243.237 57.7116 243.844 57.8839 244.37 58.2283C244.896 58.5728 245.306 59.0611 245.6 59.6932C245.895 60.3253 246.043 61.071 246.043 61.9304C246.043 62.7969 245.895 63.5479 245.6 64.1836C245.306 64.8157 244.897 65.3058 244.375 65.6538C243.853 65.9982 243.251 66.1705 242.57 66.1705C242.044 66.1705 241.623 66.0835 241.307 65.9094C240.991 65.7319 240.748 65.5312 240.577 65.3075C240.407 65.0803 240.275 64.892 240.183 64.7429H240.077V69.0682H238.82ZM240.055 61.9091C240.055 62.527 240.146 63.0721 240.327 63.5444C240.508 64.0131 240.773 64.3807 241.121 64.647C241.469 64.9098 241.895 65.0412 242.399 65.0412C242.925 65.0412 243.363 64.9027 243.715 64.6257C244.07 64.3452 244.336 63.9687 244.514 63.4964C244.695 63.0206 244.785 62.4915 244.785 61.9091C244.785 61.3338 244.697 60.8153 244.519 60.3537C244.345 59.8885 244.081 59.521 243.725 59.2511C243.374 58.9776 242.932 58.8409 242.399 58.8409C241.888 58.8409 241.458 58.9705 241.11 59.2298C240.762 59.4854 240.499 59.8441 240.322 60.3058C240.144 60.7638 240.055 61.2983 240.055 61.9091ZM250.368 66.1918C249.849 66.1918 249.379 66.0941 248.956 65.8988C248.534 65.6999 248.198 65.4141 247.949 65.0412C247.701 64.6648 247.577 64.2102 247.577 63.6776C247.577 63.2088 247.669 62.8288 247.854 62.5376C248.038 62.2429 248.285 62.0121 248.594 61.8452C248.903 61.6783 249.244 61.554 249.617 61.4723C249.993 61.3871 250.371 61.3196 250.751 61.2699C251.248 61.206 251.652 61.158 251.96 61.1261C252.273 61.0906 252.5 61.032 252.642 60.9503C252.788 60.8686 252.861 60.7266 252.861 60.5241V60.4815C252.861 59.956 252.717 59.5476 252.429 59.2564C252.145 58.9652 251.714 58.8196 251.135 58.8196C250.535 58.8196 250.064 58.951 249.723 59.2138C249.382 59.4766 249.143 59.7571 249.004 60.0554L247.811 59.6293C248.024 59.1321 248.308 58.745 248.663 58.468C249.022 58.1875 249.413 57.9922 249.835 57.8821C250.261 57.7685 250.68 57.7116 251.092 57.7116C251.355 57.7116 251.657 57.7436 251.998 57.8075C252.342 57.8679 252.674 57.994 252.994 58.1857C253.317 58.3775 253.585 58.6669 253.798 59.054C254.011 59.4411 254.118 59.9595 254.118 60.6094V66H252.861V64.892H252.797C252.712 65.0696 252.57 65.2596 252.371 65.462C252.172 65.6644 251.907 65.8366 251.577 65.9787C251.247 66.1207 250.844 66.1918 250.368 66.1918ZM250.56 65.0625C251.057 65.0625 251.476 64.9648 251.817 64.7695C252.161 64.5742 252.42 64.3221 252.594 64.0131C252.772 63.7042 252.861 63.3793 252.861 63.0384V61.8878C252.807 61.9517 252.69 62.0103 252.509 62.0636C252.332 62.1133 252.126 62.1577 251.891 62.1967C251.66 62.2322 251.435 62.2642 251.215 62.2926C250.998 62.3175 250.822 62.3388 250.687 62.3565C250.361 62.3991 250.055 62.4684 249.771 62.5643C249.491 62.6566 249.263 62.7969 249.089 62.9851C248.919 63.1697 248.834 63.4219 248.834 63.7415C248.834 64.1783 248.995 64.5085 249.318 64.7322C249.645 64.9524 250.059 65.0625 250.56 65.0625ZM257.669 61.0781V66H256.412V57.8182H257.627V59.0966H257.733C257.925 58.6811 258.216 58.3473 258.607 58.0952C258.998 57.8395 259.502 57.7116 260.12 57.7116C260.674 57.7116 261.158 57.8253 261.574 58.0526C261.989 58.2763 262.313 58.6172 262.543 59.0753C262.774 59.5298 262.89 60.1051 262.89 60.8011V66H261.632V60.8864C261.632 60.2436 261.466 59.7429 261.132 59.3842C260.798 59.022 260.34 58.8409 259.757 58.8409C259.356 58.8409 258.998 58.9279 258.681 59.1019C258.369 59.2759 258.122 59.5298 257.941 59.8636C257.76 60.1974 257.669 60.6023 257.669 61.0781ZM268.617 66.1705C267.829 66.1705 267.149 65.9964 266.577 65.6484C266.009 65.2969 265.57 64.8068 265.261 64.1783C264.956 63.5462 264.803 62.8111 264.803 61.973C264.803 61.1349 264.956 60.3963 265.261 59.7571C265.57 59.1143 266 58.6136 266.55 58.255C267.104 57.8928 267.751 57.7116 268.489 57.7116C268.915 57.7116 269.336 57.7827 269.752 57.9247C270.167 58.0668 270.545 58.2976 270.886 58.6172C271.227 58.9332 271.499 59.3523 271.701 59.8743C271.904 60.3963 272.005 61.0391 272.005 61.8026V62.3352H265.698V61.2486H270.726C270.726 60.7869 270.634 60.375 270.449 60.0128C270.268 59.6506 270.009 59.3647 269.672 59.1552C269.338 58.9457 268.944 58.8409 268.489 58.8409C267.989 58.8409 267.555 58.9652 267.19 59.2138C266.827 59.4588 266.549 59.7784 266.353 60.1726C266.158 60.5668 266.06 60.9893 266.06 61.4403V62.1648C266.06 62.7827 266.167 63.3065 266.38 63.7362C266.597 64.1623 266.897 64.4872 267.28 64.7109C267.664 64.9311 268.109 65.0412 268.617 65.0412C268.947 65.0412 269.246 64.995 269.512 64.9027C269.782 64.8068 270.014 64.6648 270.21 64.4766C270.405 64.2848 270.556 64.0469 270.663 63.7628L271.877 64.1037C271.749 64.5156 271.534 64.8778 271.233 65.1903C270.931 65.4993 270.558 65.7408 270.114 65.9148C269.67 66.0852 269.171 66.1705 268.617 66.1705ZM275.174 55.0909V66H273.917V55.0909H275.174ZM285.339 57.8182V58.8835H280.928V57.8182H285.339ZM282.249 66V56.6889C282.249 56.2202 282.36 55.8295 282.58 55.517C282.8 55.2045 283.086 54.9702 283.437 54.8139C283.789 54.6577 284.16 54.5795 284.551 54.5795C284.86 54.5795 285.112 54.6044 285.307 54.6541C285.502 54.7038 285.648 54.75 285.744 54.7926L285.382 55.8793C285.318 55.858 285.229 55.8313 285.115 55.7994C285.005 55.7674 284.86 55.7514 284.678 55.7514C284.263 55.7514 283.963 55.8562 283.778 56.0657C283.597 56.2752 283.507 56.5824 283.507 56.9872V66H282.249ZM290.088 66.1705C289.349 66.1705 288.701 65.9947 288.143 65.6431C287.589 65.2915 287.156 64.7997 286.844 64.1676C286.535 63.5355 286.38 62.7969 286.38 61.9517C286.38 61.0994 286.535 60.3555 286.844 59.7198C287.156 59.0842 287.589 58.5906 288.143 58.239C288.701 57.8874 289.349 57.7116 290.088 57.7116C290.826 57.7116 291.473 57.8874 292.027 58.239C292.584 58.5906 293.017 59.0842 293.326 59.7198C293.639 60.3555 293.795 61.0994 293.795 61.9517C293.795 62.7969 293.639 63.5355 293.326 64.1676C293.017 64.7997 292.584 65.2915 292.027 65.6431C291.473 65.9947 290.826 66.1705 290.088 66.1705ZM290.088 65.0412C290.649 65.0412 291.11 64.8974 291.473 64.6097C291.835 64.3221 292.103 63.9439 292.277 63.4751C292.451 63.0064 292.538 62.4986 292.538 61.9517C292.538 61.4048 292.451 60.8952 292.277 60.4229C292.103 59.9506 291.835 59.5689 291.473 59.2777C291.11 58.9865 290.649 58.8409 290.088 58.8409C289.527 58.8409 289.065 58.9865 288.703 59.2777C288.341 59.5689 288.072 59.9506 287.898 60.4229C287.724 60.8952 287.637 61.4048 287.637 61.9517C287.637 62.4986 287.724 63.0064 287.898 63.4751C288.072 63.9439 288.341 64.3221 288.703 64.6097C289.065 64.8974 289.527 65.0412 290.088 65.0412ZM295.714 66V57.8182H296.929V59.054H297.014C297.163 58.6491 297.433 58.3207 297.823 58.0685C298.214 57.8164 298.654 57.6903 299.144 57.6903C299.237 57.6903 299.352 57.6921 299.491 57.6957C299.629 57.6992 299.734 57.7045 299.805 57.7116V58.9901C299.762 58.9794 299.665 58.9634 299.512 58.9421C299.363 58.9173 299.205 58.9048 299.038 58.9048C298.64 58.9048 298.285 58.9883 297.973 59.1552C297.664 59.3185 297.419 59.5458 297.237 59.837C297.06 60.1246 296.971 60.4531 296.971 60.8224V66H295.714ZM306.771 61.0781V66H305.514V55.0909H306.771V59.0966H306.877C307.069 58.674 307.357 58.3384 307.74 58.0898C308.127 57.8377 308.642 57.7116 309.285 57.7116C309.843 57.7116 310.331 57.8235 310.75 58.0472C311.169 58.2674 311.494 58.6065 311.725 59.0646C311.959 59.5192 312.076 60.098 312.076 60.8011V66H310.819V60.8864C310.819 60.2365 310.651 59.734 310.313 59.3789C309.979 59.0202 309.516 58.8409 308.923 58.8409C308.511 58.8409 308.142 58.9279 307.815 59.1019C307.492 59.2759 307.236 59.5298 307.048 59.8636C306.863 60.1974 306.771 60.6023 306.771 61.0781ZM314.376 66V57.8182H315.633V66H314.376ZM315.015 56.4545C314.77 56.4545 314.559 56.3711 314.381 56.2042C314.207 56.0373 314.12 55.8366 314.12 55.6023C314.12 55.3679 314.207 55.1673 314.381 55.0004C314.559 54.8335 314.77 54.75 315.015 54.75C315.26 54.75 315.47 54.8335 315.644 55.0004C315.821 55.1673 315.91 55.3679 315.91 55.6023C315.91 55.8366 315.821 56.0373 315.644 56.2042C315.47 56.3711 315.26 56.4545 315.015 56.4545ZM321.238 69.2386C320.631 69.2386 320.109 69.1605 319.672 69.0043C319.235 68.8516 318.871 68.6491 318.58 68.397C318.293 68.1484 318.064 67.8821 317.893 67.598L318.895 66.8949C319.008 67.044 319.152 67.2145 319.326 67.4062C319.5 67.6016 319.738 67.7702 320.04 67.9123C320.345 68.0579 320.745 68.1307 321.238 68.1307C321.899 68.1307 322.444 67.9709 322.874 67.6513C323.303 67.3317 323.518 66.831 323.518 66.1491V64.4872H323.412C323.319 64.6364 323.188 64.821 323.017 65.0412C322.85 65.2578 322.609 65.4513 322.293 65.6218C321.98 65.7887 321.558 65.8722 321.025 65.8722C320.365 65.8722 319.772 65.7159 319.246 65.4034C318.724 65.0909 318.31 64.6364 318.005 64.0398C317.703 63.4432 317.552 62.7187 317.552 61.8665C317.552 61.0284 317.7 60.2987 317.994 59.6772C318.289 59.0522 318.699 58.5692 319.225 58.2283C319.75 57.8839 320.358 57.7116 321.047 57.7116C321.579 57.7116 322.002 57.8004 322.314 57.978C322.63 58.152 322.872 58.3509 323.039 58.5746C323.209 58.7947 323.341 58.9759 323.433 59.1179H323.561V57.8182H324.775V66.2344C324.775 66.9375 324.615 67.5092 324.296 67.9496C323.98 68.3935 323.554 68.7184 323.017 68.9244C322.485 69.1339 321.892 69.2386 321.238 69.2386ZM321.196 64.7429C321.7 64.7429 322.126 64.6275 322.474 64.3967C322.822 64.1658 323.087 63.8338 323.268 63.4006C323.449 62.9673 323.539 62.4489 323.539 61.8452C323.539 61.2557 323.451 60.7354 323.273 60.2844C323.096 59.8335 322.833 59.4801 322.485 59.2244C322.137 58.9687 321.707 58.8409 321.196 58.8409C320.663 58.8409 320.219 58.9759 319.864 59.2457C319.512 59.5156 319.248 59.8778 319.07 60.3324C318.896 60.7869 318.809 61.2912 318.809 61.8452C318.809 62.4134 318.898 62.9158 319.076 63.3526C319.257 63.7859 319.523 64.1268 319.875 64.3754C320.23 64.6204 320.67 64.7429 321.196 64.7429ZM328.333 61.0781V66H327.076V55.0909H328.333V59.0966H328.44C328.632 58.674 328.919 58.3384 329.303 58.0898C329.69 57.8377 330.205 57.7116 330.848 57.7116C331.405 57.7116 331.893 57.8235 332.312 58.0472C332.732 58.2674 333.056 58.6065 333.287 59.0646C333.522 59.5192 333.639 60.098 333.639 60.8011V66H332.382V60.8864C332.382 60.2365 332.213 59.734 331.876 59.3789C331.542 59.0202 331.078 58.8409 330.485 58.8409C330.074 58.8409 329.704 58.9279 329.377 59.1019C329.054 59.2759 328.799 59.5298 328.61 59.8636C328.426 60.1974 328.333 60.6023 328.333 61.0781ZM340.626 60.7372V61.9091H335.853V60.7372H340.626ZM98.1506 87.0682V75.8182H99.3651V77.1179H99.5142C99.6065 76.9759 99.7344 76.7947 99.8977 76.5746C100.065 76.3509 100.303 76.152 100.612 75.978C100.924 75.8004 101.347 75.7116 101.879 75.7116C102.568 75.7116 103.175 75.8839 103.701 76.2283C104.227 76.5728 104.637 77.0611 104.931 77.6932C105.226 78.3253 105.374 79.071 105.374 79.9304C105.374 80.7969 105.226 81.5479 104.931 82.1836C104.637 82.8157 104.228 83.3058 103.706 83.6538C103.184 83.9982 102.582 84.1705 101.901 84.1705C101.375 84.1705 100.954 84.0835 100.638 83.9094C100.322 83.7319 100.079 83.5312 99.9084 83.3075C99.7379 83.0803 99.6065 82.892 99.5142 82.7429H99.4077V87.0682H98.1506ZM99.3864 79.9091C99.3864 80.527 99.4769 81.0721 99.658 81.5444C99.8391 82.0131 100.104 82.3807 100.452 82.647C100.8 82.9098 101.226 83.0412 101.73 83.0412C102.256 83.0412 102.694 82.9027 103.046 82.6257C103.401 82.3452 103.667 81.9687 103.845 81.4964C104.026 81.0206 104.116 80.4915 104.116 79.9091C104.116 79.3338 104.028 78.8153 103.85 78.3537C103.676 77.8885 103.412 77.521 103.056 77.2511C102.705 76.9776 102.263 76.8409 101.73 76.8409C101.219 76.8409 100.789 76.9705 100.441 77.2298C100.093 77.4854 99.8303 77.8441 99.6527 78.3058C99.4751 78.7638 99.3864 79.2983 99.3864 79.9091ZM110.722 84.1705C109.933 84.1705 109.253 83.9964 108.681 83.6484C108.113 83.2969 107.675 82.8068 107.366 82.1783C107.06 81.5462 106.908 80.8111 106.908 79.973C106.908 79.1349 107.06 78.3963 107.366 77.7571C107.675 77.1143 108.104 76.6136 108.655 76.255C109.209 75.8928 109.855 75.7116 110.594 75.7116C111.02 75.7116 111.441 75.7827 111.856 75.9247C112.272 76.0668 112.65 76.2976 112.991 76.6172C113.332 76.9332 113.603 77.3523 113.806 77.8743C114.008 78.3963 114.109 79.0391 114.109 79.8026V80.3352H107.803V79.2486H112.831C112.831 78.7869 112.739 78.375 112.554 78.0128C112.373 77.6506 112.114 77.3647 111.776 77.1552C111.442 76.9457 111.048 76.8409 110.594 76.8409C110.093 76.8409 109.66 76.9652 109.294 77.2138C108.932 77.4588 108.653 77.7784 108.458 78.1726C108.262 78.5668 108.165 78.9893 108.165 79.4403V80.1648C108.165 80.7827 108.271 81.3065 108.484 81.7362C108.701 82.1623 109.001 82.4872 109.385 82.7109C109.768 82.9311 110.214 83.0412 110.722 83.0412C111.052 83.0412 111.35 82.995 111.616 82.9027C111.886 82.8068 112.119 82.6648 112.314 82.4766C112.51 82.2848 112.661 82.0469 112.767 81.7628L113.982 82.1037C113.854 82.5156 113.639 82.8778 113.337 83.1903C113.035 83.4993 112.662 83.7408 112.218 83.9148C111.775 84.0852 111.276 84.1705 110.722 84.1705ZM116.022 84V75.8182H117.236V77.054H117.321C117.471 76.6491 117.74 76.3207 118.131 76.0685C118.522 75.8164 118.962 75.6903 119.452 75.6903C119.544 75.6903 119.66 75.6921 119.798 75.6957C119.937 75.6992 120.042 75.7045 120.113 75.7116V76.9901C120.07 76.9794 119.972 76.9634 119.82 76.9421C119.67 76.9173 119.512 76.9048 119.346 76.9048C118.948 76.9048 118.593 76.9883 118.28 77.1552C117.971 77.3185 117.726 77.5458 117.545 77.837C117.368 78.1246 117.279 78.4531 117.279 78.8224V84H116.022ZM125.759 75.8182V76.8835H121.348V75.8182H125.759ZM122.669 84V74.6889C122.669 74.2202 122.779 73.8295 123 73.517C123.22 73.2045 123.506 72.9702 123.857 72.8139C124.209 72.6577 124.58 72.5795 124.971 72.5795C125.279 72.5795 125.532 72.6044 125.727 72.6541C125.922 72.7038 126.068 72.75 126.164 72.7926L125.801 73.8793C125.738 73.858 125.649 73.8313 125.535 73.7994C125.425 73.7674 125.279 73.7514 125.098 73.7514C124.683 73.7514 124.383 73.8562 124.198 74.0657C124.017 74.2752 123.926 74.5824 123.926 74.9872V84H122.669ZM130.508 84.1705C129.769 84.1705 129.121 83.9947 128.563 83.6431C128.009 83.2915 127.576 82.7997 127.264 82.1676C126.955 81.5355 126.8 80.7969 126.8 79.9517C126.8 79.0994 126.955 78.3555 127.264 77.7198C127.576 77.0842 128.009 76.5906 128.563 76.239C129.121 75.8874 129.769 75.7116 130.508 75.7116C131.246 75.7116 131.893 75.8874 132.447 76.239C133.004 76.5906 133.437 77.0842 133.746 77.7198C134.059 78.3555 134.215 79.0994 134.215 79.9517C134.215 80.7969 134.059 81.5355 133.746 82.1676C133.437 82.7997 133.004 83.2915 132.447 83.6431C131.893 83.9947 131.246 84.1705 130.508 84.1705ZM130.508 83.0412C131.069 83.0412 131.53 82.8974 131.893 82.6097C132.255 82.3221 132.523 81.9439 132.697 81.4751C132.871 81.0064 132.958 80.4986 132.958 79.9517C132.958 79.4048 132.871 78.8952 132.697 78.4229C132.523 77.9506 132.255 77.5689 131.893 77.2777C131.53 76.9865 131.069 76.8409 130.508 76.8409C129.947 76.8409 129.485 76.9865 129.123 77.2777C128.76 77.5689 128.492 77.9506 128.318 78.4229C128.144 78.8952 128.057 79.4048 128.057 79.9517C128.057 80.4986 128.144 81.0064 128.318 81.4751C128.492 81.9439 128.76 82.3221 129.123 82.6097C129.485 82.8974 129.947 83.0412 130.508 83.0412ZM136.134 84V75.8182H137.348V77.054H137.434C137.583 76.6491 137.853 76.3207 138.243 76.0685C138.634 75.8164 139.074 75.6903 139.564 75.6903C139.657 75.6903 139.772 75.6921 139.911 75.6957C140.049 75.6992 140.154 75.7045 140.225 75.7116V76.9901C140.182 76.9794 140.085 76.9634 139.932 76.9421C139.783 76.9173 139.625 76.9048 139.458 76.9048C139.06 76.9048 138.705 76.9883 138.392 77.1552C138.084 77.3185 137.839 77.5458 137.657 77.837C137.48 78.1246 137.391 78.4531 137.391 78.8224V84H136.134ZM141.715 84V75.8182H142.93V77.0966H143.036C143.206 76.6598 143.482 76.3207 143.862 76.0792C144.242 75.8342 144.698 75.7116 145.231 75.7116C145.77 75.7116 146.22 75.8342 146.578 76.0792C146.941 76.3207 147.223 76.6598 147.425 77.0966H147.51C147.72 76.674 148.034 76.3384 148.453 76.0898C148.872 75.8377 149.375 75.7116 149.961 75.7116C150.692 75.7116 151.291 75.9407 151.756 76.3988C152.221 76.8533 152.454 77.5618 152.454 78.5241V84H151.197V78.5241C151.197 77.9205 151.031 77.489 150.701 77.2298C150.371 76.9705 149.982 76.8409 149.535 76.8409C148.959 76.8409 148.514 77.0149 148.198 77.3629C147.882 77.7074 147.724 78.1442 147.724 78.6733V84H146.445V78.3963C146.445 77.9311 146.294 77.5565 145.992 77.2724C145.691 76.9847 145.302 76.8409 144.826 76.8409C144.499 76.8409 144.194 76.9279 143.91 77.1019C143.629 77.2759 143.402 77.5174 143.228 77.8263C143.057 78.1317 142.972 78.4851 142.972 78.8864V84H141.715ZM154.752 84V75.8182H156.009V84H154.752ZM155.391 74.4545C155.146 74.4545 154.935 74.3711 154.757 74.2042C154.583 74.0373 154.496 73.8366 154.496 73.6023C154.496 73.3679 154.583 73.1673 154.757 73.0004C154.935 72.8335 155.146 72.75 155.391 72.75C155.636 72.75 155.846 72.8335 156.02 73.0004C156.197 73.1673 156.286 73.3679 156.286 73.6023C156.286 73.8366 156.197 74.0373 156.02 74.2042C155.846 74.3711 155.636 74.4545 155.391 74.4545ZM159.569 79.0781V84H158.312V75.8182H159.526V77.0966H159.633C159.824 76.6811 160.116 76.3473 160.506 76.0952C160.897 75.8395 161.401 75.7116 162.019 75.7116C162.573 75.7116 163.058 75.8253 163.473 76.0526C163.889 76.2763 164.212 76.6172 164.443 77.0753C164.674 77.5298 164.789 78.1051 164.789 78.8011V84H163.532V78.8864C163.532 78.2436 163.365 77.7429 163.031 77.3842C162.697 77.022 162.239 76.8409 161.657 76.8409C161.256 76.8409 160.897 76.9279 160.581 77.1019C160.268 77.2759 160.022 77.5298 159.84 77.8636C159.659 78.1974 159.569 78.6023 159.569 79.0781ZM170.389 87.2386C169.781 87.2386 169.259 87.1605 168.823 87.0043C168.386 86.8516 168.022 86.6491 167.731 86.397C167.443 86.1484 167.214 85.8821 167.044 85.598L168.045 84.8949C168.159 85.044 168.302 85.2145 168.476 85.4062C168.65 85.6016 168.888 85.7702 169.19 85.9123C169.496 86.0579 169.895 86.1307 170.389 86.1307C171.049 86.1307 171.594 85.9709 172.024 85.6513C172.454 85.3317 172.669 84.831 172.669 84.1491V82.4872H172.562C172.47 82.6364 172.338 82.821 172.168 83.0412C172.001 83.2578 171.759 83.4513 171.443 83.6218C171.131 83.7887 170.708 83.8722 170.176 83.8722C169.515 83.8722 168.922 83.7159 168.396 83.4034C167.874 83.0909 167.461 82.6364 167.155 82.0398C166.854 81.4432 166.703 80.7187 166.703 79.8665C166.703 79.0284 166.85 78.2987 167.145 77.6772C167.439 77.0522 167.85 76.5692 168.375 76.2283C168.901 75.8839 169.508 75.7116 170.197 75.7116C170.73 75.7116 171.152 75.8004 171.465 75.978C171.781 76.152 172.022 76.3509 172.189 76.5746C172.36 76.7947 172.491 76.9759 172.583 77.1179H172.711V75.8182H173.926V84.2344C173.926 84.9375 173.766 85.5092 173.446 85.9496C173.13 86.3935 172.704 86.7184 172.168 86.9244C171.635 87.1339 171.042 87.2386 170.389 87.2386ZM170.346 82.7429C170.85 82.7429 171.276 82.6275 171.624 82.3967C171.972 82.1658 172.237 81.8338 172.418 81.4006C172.599 80.9673 172.69 80.4489 172.69 79.8452C172.69 79.2557 172.601 78.7354 172.423 78.2844C172.246 77.8335 171.983 77.4801 171.635 77.2244C171.287 76.9687 170.857 76.8409 170.346 76.8409C169.813 76.8409 169.369 76.9759 169.014 77.2457C168.663 77.5156 168.398 77.8778 168.221 78.3324C168.047 78.7869 167.96 79.2912 167.96 79.8452C167.96 80.4134 168.048 80.9158 168.226 81.3526C168.407 81.7859 168.673 82.1268 169.025 82.3754C169.38 82.6204 169.82 82.7429 170.346 82.7429ZM181.703 73.0909V84H180.445V73.0909H181.703ZM184.005 84V75.8182H185.262V84H184.005ZM184.644 74.4545C184.399 74.4545 184.188 74.3711 184.01 74.2042C183.836 74.0373 183.749 73.8366 183.749 73.6023C183.749 73.3679 183.836 73.1673 184.01 73.0004C184.188 72.8335 184.399 72.75 184.644 72.75C184.889 72.75 185.099 72.8335 185.273 73.0004C185.45 73.1673 185.539 73.3679 185.539 73.6023C185.539 73.8366 185.45 74.0373 185.273 74.2042C185.099 74.3711 184.889 74.4545 184.644 74.4545ZM187.565 84V75.8182H188.779V77.0966H188.886C189.056 76.6598 189.331 76.3207 189.711 76.0792C190.091 75.8342 190.548 75.7116 191.08 75.7116C191.62 75.7116 192.069 75.8342 192.428 76.0792C192.79 76.3207 193.072 76.6598 193.275 77.0966H193.36C193.57 76.674 193.884 76.3384 194.303 76.0898C194.722 75.8377 195.224 75.7116 195.81 75.7116C196.542 75.7116 197.14 75.9407 197.605 76.3988C198.071 76.8533 198.303 77.5618 198.303 78.5241V84H197.046V78.5241C197.046 77.9205 196.881 77.489 196.551 77.2298C196.221 76.9705 195.832 76.8409 195.384 76.8409C194.809 76.8409 194.363 77.0149 194.047 77.3629C193.731 77.7074 193.573 78.1442 193.573 78.6733V84H192.295V78.3963C192.295 77.9311 192.144 77.5565 191.842 77.2724C191.54 76.9847 191.151 76.8409 190.675 76.8409C190.349 76.8409 190.043 76.9279 189.759 77.1019C189.479 77.2759 189.251 77.5174 189.077 77.8263C188.907 78.1317 188.822 78.4851 188.822 78.8864V84H187.565ZM200.602 84V75.8182H201.859V84H200.602ZM201.241 74.4545C200.996 74.4545 200.785 74.3711 200.607 74.2042C200.433 74.0373 200.346 73.8366 200.346 73.6023C200.346 73.3679 200.433 73.1673 200.607 73.0004C200.785 72.8335 200.996 72.75 201.241 72.75C201.486 72.75 201.695 72.8335 201.869 73.0004C202.047 73.1673 202.136 73.3679 202.136 73.6023C202.136 73.8366 202.047 74.0373 201.869 74.2042C201.695 74.3711 201.486 74.4545 201.241 74.4545ZM207.72 75.8182V76.8835H203.479V75.8182H207.72ZM204.715 73.858H205.972V81.6562C205.972 82.0114 206.024 82.2777 206.127 82.4553C206.233 82.6293 206.368 82.7464 206.532 82.8068C206.699 82.8636 206.874 82.892 207.059 82.892C207.198 82.892 207.311 82.8849 207.4 82.8707C207.489 82.853 207.56 82.8388 207.613 82.8281L207.869 83.9574C207.783 83.9893 207.665 84.0213 207.512 84.0533C207.359 84.0888 207.166 84.1065 206.931 84.1065C206.576 84.1065 206.228 84.0302 205.887 83.8775C205.55 83.7248 205.269 83.4922 205.046 83.1797C204.825 82.8672 204.715 82.473 204.715 81.9972V73.858ZM212.953 84.1705C212.165 84.1705 211.485 83.9964 210.913 83.6484C210.345 83.2969 209.906 82.8068 209.597 82.1783C209.292 81.5462 209.139 80.8111 209.139 79.973C209.139 79.1349 209.292 78.3963 209.597 77.7571C209.906 77.1143 210.336 76.6136 210.886 76.255C211.44 75.8928 212.087 75.7116 212.825 75.7116C213.251 75.7116 213.672 75.7827 214.088 75.9247C214.503 76.0668 214.881 76.2976 215.222 76.6172C215.563 76.9332 215.835 77.3523 216.037 77.8743C216.24 78.3963 216.341 79.0391 216.341 79.8026V80.3352H210.034V79.2486H215.062C215.062 78.7869 214.97 78.375 214.785 78.0128C214.604 77.6506 214.345 77.3647 214.008 77.1552C213.674 76.9457 213.28 76.8409 212.825 76.8409C212.324 76.8409 211.891 76.9652 211.525 77.2138C211.163 77.4588 210.884 77.7784 210.689 78.1726C210.494 78.5668 210.396 78.9893 210.396 79.4403V80.1648C210.396 80.7827 210.503 81.3065 210.716 81.7362C210.932 82.1623 211.233 82.4872 211.616 82.7109C212 82.9311 212.445 83.0412 212.953 83.0412C213.283 83.0412 213.582 82.995 213.848 82.9027C214.118 82.8068 214.35 82.6648 214.546 82.4766C214.741 82.2848 214.892 82.0469 214.998 81.7628L216.213 82.1037C216.085 82.5156 215.87 82.8778 215.568 83.1903C215.267 83.4993 214.894 83.7408 214.45 83.9148C214.006 84.0852 213.507 84.1705 212.953 84.1705ZM221.343 84.1705C220.661 84.1705 220.059 83.9982 219.537 83.6538C219.015 83.3058 218.606 82.8157 218.312 82.1836C218.017 81.5479 217.87 80.7969 217.87 79.9304C217.87 79.071 218.017 78.3253 218.312 77.6932C218.606 77.0611 219.017 76.5728 219.542 76.2283C220.068 75.8839 220.675 75.7116 221.364 75.7116C221.897 75.7116 222.317 75.8004 222.626 75.978C222.939 76.152 223.177 76.3509 223.34 76.5746C223.507 76.7947 223.637 76.9759 223.729 77.1179H223.835V73.0909H225.093V84H223.878V82.7429H223.729C223.637 82.892 223.505 83.0803 223.335 83.3075C223.164 83.5312 222.921 83.7319 222.605 83.9094C222.289 84.0835 221.868 84.1705 221.343 84.1705ZM221.513 83.0412C222.017 83.0412 222.443 82.9098 222.791 82.647C223.139 82.3807 223.404 82.0131 223.585 81.5444C223.766 81.0721 223.857 80.527 223.857 79.9091C223.857 79.2983 223.768 78.7638 223.59 78.3058C223.413 77.8441 223.15 77.4854 222.802 77.2298C222.454 76.9705 222.024 76.8409 221.513 76.8409C220.98 76.8409 220.536 76.9776 220.181 77.2511C219.83 77.521 219.565 77.8885 219.388 78.3537C219.214 78.8153 219.127 79.3338 219.127 79.9091C219.127 80.4915 219.215 81.0206 219.393 81.4964C219.574 81.9687 219.84 82.3452 220.192 82.6257C220.547 82.9027 220.987 83.0412 221.513 83.0412ZM231.788 87.0682V75.8182H233.003V77.1179H233.152C233.244 76.9759 233.372 76.7947 233.535 76.5746C233.702 76.3509 233.94 76.152 234.249 75.978C234.562 75.8004 234.984 75.7116 235.517 75.7116C236.206 75.7116 236.813 75.8839 237.339 76.2283C237.864 76.5728 238.274 77.0611 238.569 77.6932C238.864 78.3253 239.011 79.071 239.011 79.9304C239.011 80.7969 238.864 81.5479 238.569 82.1836C238.274 82.8157 237.866 83.3058 237.344 83.6538C236.822 83.9982 236.22 84.1705 235.538 84.1705C235.013 84.1705 234.592 84.0835 234.276 83.9094C233.96 83.7319 233.717 83.5312 233.546 83.3075C233.376 83.0803 233.244 82.892 233.152 82.7429H233.045V87.0682H231.788ZM233.024 79.9091C233.024 80.527 233.115 81.0721 233.296 81.5444C233.477 82.0131 233.741 82.3807 234.089 82.647C234.437 82.9098 234.864 83.0412 235.368 83.0412C235.893 83.0412 236.332 82.9027 236.684 82.6257C237.039 82.3452 237.305 81.9687 237.483 81.4964C237.664 81.0206 237.754 80.4915 237.754 79.9091C237.754 79.3338 237.665 78.8153 237.488 78.3537C237.314 77.8885 237.049 77.521 236.694 77.2511C236.343 76.9776 235.9 76.8409 235.368 76.8409C234.856 76.8409 234.427 76.9705 234.079 77.2298C233.731 77.4854 233.468 77.8441 233.29 78.3058C233.113 78.7638 233.024 79.2983 233.024 79.9091ZM243.337 84.1918C242.818 84.1918 242.348 84.0941 241.925 83.8988C241.502 83.6999 241.167 83.4141 240.918 83.0412C240.67 82.6648 240.545 82.2102 240.545 81.6776C240.545 81.2088 240.638 80.8288 240.822 80.5376C241.007 80.2429 241.254 80.0121 241.563 79.8452C241.872 79.6783 242.213 79.554 242.585 79.4723C242.962 79.3871 243.34 79.3196 243.72 79.2699C244.217 79.206 244.62 79.158 244.929 79.1261C245.242 79.0906 245.469 79.032 245.611 78.9503C245.757 78.8686 245.829 78.7266 245.829 78.5241V78.4815C245.829 77.956 245.686 77.5476 245.398 77.2564C245.114 76.9652 244.682 76.8196 244.104 76.8196C243.503 76.8196 243.033 76.951 242.692 77.2138C242.351 77.4766 242.111 77.7571 241.973 78.0554L240.78 77.6293C240.993 77.1321 241.277 76.745 241.632 76.468C241.991 76.1875 242.381 75.9922 242.804 75.8821C243.23 75.7685 243.649 75.7116 244.061 75.7116C244.324 75.7116 244.626 75.7436 244.967 75.8075C245.311 75.8679 245.643 75.994 245.963 76.1857C246.286 76.3775 246.554 76.6669 246.767 77.054C246.98 77.4411 247.087 77.9595 247.087 78.6094V84H245.829V82.892H245.766C245.68 83.0696 245.538 83.2596 245.339 83.462C245.141 83.6644 244.876 83.8366 244.546 83.9787C244.215 84.1207 243.812 84.1918 243.337 84.1918ZM243.528 83.0625C244.025 83.0625 244.445 82.9648 244.785 82.7695C245.13 82.5742 245.389 82.3221 245.563 82.0131C245.741 81.7042 245.829 81.3793 245.829 81.0384V79.8878C245.776 79.9517 245.659 80.0103 245.478 80.0636C245.3 80.1133 245.094 80.1577 244.86 80.1967C244.629 80.2322 244.404 80.2642 244.184 80.2926C243.967 80.3175 243.791 80.3388 243.656 80.3565C243.329 80.3991 243.024 80.4684 242.74 80.5643C242.459 80.6566 242.232 80.7969 242.058 80.9851C241.888 81.1697 241.802 81.4219 241.802 81.7415C241.802 82.1783 241.964 82.5085 242.287 82.7322C242.614 82.9524 243.028 83.0625 243.528 83.0625ZM249.381 84V75.8182H250.596V77.054H250.681C250.83 76.6491 251.1 76.3207 251.49 76.0685C251.881 75.8164 252.321 75.6903 252.811 75.6903C252.904 75.6903 253.019 75.6921 253.158 75.6957C253.296 75.6992 253.401 75.7045 253.472 75.7116V76.9901C253.429 76.9794 253.332 76.9634 253.179 76.9421C253.03 76.9173 252.872 76.9048 252.705 76.9048C252.307 76.9048 251.952 76.9883 251.64 77.1552C251.331 77.3185 251.086 77.5458 250.904 77.837C250.727 78.1246 250.638 78.4531 250.638 78.8224V84H249.381ZM259.033 75.8182V76.8835H254.793V75.8182H259.033ZM256.029 73.858H257.286V81.6562C257.286 82.0114 257.337 82.2777 257.44 82.4553C257.547 82.6293 257.682 82.7464 257.845 82.8068C258.012 82.8636 258.188 82.892 258.373 82.892C258.511 82.892 258.625 82.8849 258.713 82.8707C258.802 82.853 258.873 82.8388 258.926 82.8281L259.182 83.9574C259.097 83.9893 258.978 84.0213 258.825 84.0533C258.673 84.0888 258.479 84.1065 258.245 84.1065C257.89 84.1065 257.542 84.0302 257.201 83.8775C256.863 83.7248 256.583 83.4922 256.359 83.1797C256.139 82.8672 256.029 82.473 256.029 81.9972V73.858ZM262.181 79.0781V84H260.924V75.8182H262.138V77.0966H262.245C262.437 76.6811 262.728 76.3473 263.119 76.0952C263.509 75.8395 264.013 75.7116 264.631 75.7116C265.185 75.7116 265.67 75.8253 266.086 76.0526C266.501 76.2763 266.824 76.6172 267.055 77.0753C267.286 77.5298 267.401 78.1051 267.401 78.8011V84H266.144V78.8864C266.144 78.2436 265.977 77.7429 265.643 77.3842C265.31 77.022 264.852 76.8409 264.269 76.8409C263.868 76.8409 263.509 76.9279 263.193 77.1019C262.881 77.2759 262.634 77.5298 262.453 77.8636C262.272 78.1974 262.181 78.6023 262.181 79.0781ZM273.129 84.1705C272.34 84.1705 271.66 83.9964 271.089 83.6484C270.521 83.2969 270.082 82.8068 269.773 82.1783C269.468 81.5462 269.315 80.8111 269.315 79.973C269.315 79.1349 269.468 78.3963 269.773 77.7571C270.082 77.1143 270.512 76.6136 271.062 76.255C271.616 75.8928 272.262 75.7116 273.001 75.7116C273.427 75.7116 273.848 75.7827 274.263 75.9247C274.679 76.0668 275.057 76.2976 275.398 76.6172C275.739 76.9332 276.011 77.3523 276.213 77.8743C276.415 78.3963 276.517 79.0391 276.517 79.8026V80.3352H270.21V79.2486H275.238C275.238 78.7869 275.146 78.375 274.961 78.0128C274.78 77.6506 274.521 77.3647 274.184 77.1552C273.85 76.9457 273.456 76.8409 273.001 76.8409C272.5 76.8409 272.067 76.9652 271.701 77.2138C271.339 77.4588 271.06 77.7784 270.865 78.1726C270.67 78.5668 270.572 78.9893 270.572 79.4403V80.1648C270.572 80.7827 270.679 81.3065 270.892 81.7362C271.108 82.1623 271.408 82.4872 271.792 82.7109C272.175 82.9311 272.621 83.0412 273.129 83.0412C273.459 83.0412 273.757 82.995 274.024 82.9027C274.294 82.8068 274.526 82.6648 274.722 82.4766C274.917 82.2848 275.068 82.0469 275.174 81.7628L276.389 82.1037C276.261 82.5156 276.046 82.8778 275.744 83.1903C275.442 83.4993 275.07 83.7408 274.626 83.9148C274.182 84.0852 273.683 84.1705 273.129 84.1705ZM278.429 84V75.8182H279.643V77.054H279.729C279.878 76.6491 280.148 76.3207 280.538 76.0685C280.929 75.8164 281.369 75.6903 281.859 75.6903C281.952 75.6903 282.067 75.6921 282.206 75.6957C282.344 75.6992 282.449 75.7045 282.52 75.7116V76.9901C282.477 76.9794 282.38 76.9634 282.227 76.9421C282.078 76.9173 281.92 76.9048 281.753 76.9048C281.355 76.9048 281 76.9883 280.687 77.1552C280.378 77.3185 280.133 77.5458 279.952 77.837C279.775 78.1246 279.686 78.4531 279.686 78.8224V84H278.429ZM289.805 77.6506L288.676 77.9702C288.605 77.782 288.5 77.5991 288.362 77.4215C288.227 77.2404 288.042 77.0913 287.808 76.9741C287.574 76.8569 287.273 76.7983 286.908 76.7983C286.407 76.7983 285.99 76.9137 285.656 77.1445C285.326 77.3718 285.161 77.6612 285.161 78.0128C285.161 78.3253 285.274 78.5721 285.501 78.7532C285.729 78.9343 286.084 79.0852 286.567 79.206L287.781 79.5043C288.513 79.6818 289.058 79.9535 289.417 80.3192C289.775 80.6815 289.955 81.1484 289.955 81.7202C289.955 82.1889 289.82 82.608 289.55 82.9773C289.283 83.3466 288.911 83.6378 288.431 83.8509C287.952 84.0639 287.394 84.1705 286.759 84.1705C285.924 84.1705 285.233 83.9893 284.686 83.6271C284.14 83.2649 283.793 82.7358 283.648 82.0398L284.841 81.7415C284.955 82.1818 285.169 82.5121 285.485 82.7322C285.805 82.9524 286.222 83.0625 286.737 83.0625C287.323 83.0625 287.788 82.9382 288.133 82.6896C288.481 82.4375 288.655 82.1357 288.655 81.7841C288.655 81.5 288.555 81.2621 288.357 81.0703C288.158 80.875 287.852 80.7294 287.44 80.6335L286.077 80.3139C285.327 80.1364 284.777 79.8612 284.425 79.4883C284.077 79.1119 283.903 78.6413 283.903 78.0767C283.903 77.6151 284.033 77.2067 284.292 76.8516C284.555 76.4964 284.912 76.2177 285.363 76.0153C285.817 75.8129 286.332 75.7116 286.908 75.7116C287.717 75.7116 288.353 75.8892 288.815 76.2443C289.28 76.5994 289.61 77.0682 289.805 77.6506Z" fill="#A9A9A9"/>
</g>
<defs>
<filter id="filter0_d_73_3158" x="0" y="0" width="421" height="115" filterUnits="userSpaceOnUse" color-interpolation-filters="sRGB">
<feFlood flood-opacity="0" result="BackgroundImageFix"/>
<feColorMatrix in="SourceAlpha" type="matrix" values="0 0 0 0 0 0 0 0 0 0 0 0 0 0 0 0 0 0 127 0" result="hardAlpha"/>
<feOffset dy="4"/>
<feGaussianBlur stdDeviation="2"/>
<feComposite in2="hardAlpha" operator="out"/>
<feColorMatrix type="matrix" values="0 0 0 0 0.84917 0 0 0 0 0.84917 0 0 0 0 0.84917 0 0 0 0.25 0"/>
<feBlend mode="normal" in2="BackgroundImageFix" result="effect1_dropShadow_73_3158"/>
<feBlend mode="normal" in="SourceGraphic" in2="effect1_dropShadow_73_3158" result="shape"/>
</filter>
</defs>
</svg>
