<svg width="71" height="38" viewBox="0 0 71 38" fill="none" xmlns="http://www.w3.org/2000/svg">
<path d="M0 0H56C64.2843 0 71 6.71573 71 15V23C71 31.2843 64.2843 38 56 38H0V0Z" fill="black" fill-opacity="0.79"/>
<path fill-rule="evenodd" clip-rule="evenodd" d="M35.4415 6C32.1041 6 29.3963 8.70182 29.3963 12.0343V15.2659H28.5115C27.1341 15.2659 26 16.3937 26 17.7705V27.1916C26 28.5684 27.1341 29.6962 28.5115 29.6962H42.494C43.8714 29.6962 45 28.5684 45 27.1916V17.7705C45 16.3937 43.8714 15.2659 42.494 15.2659H41.4908V12.0343C41.4908 8.70182 38.7788 6 35.4415 6ZM35.4415 7.3939C38.0324 7.3939 40.0969 9.45157 40.0969 12.0343V15.2659H30.7902V12.0343C30.7902 9.45157 32.8506 7.3939 35.4415 7.3939ZM28.5115 16.6598H30.0905H40.7911H42.494C43.1249 16.6598 43.6061 17.1435 43.6061 17.7705V27.1916C43.6061 27.8187 43.1249 28.3023 42.494 28.3023H28.5115C27.8805 28.3023 27.3939 27.8186 27.3939 27.1916V17.7705C27.3939 17.1435 27.8805 16.6598 28.5115 16.6598ZM35.5027 19.129C34.1694 19.129 33.0688 20.2246 33.0688 21.5575C33.0688 22.6478 33.8052 23.5754 34.8031 23.877V25.1388C34.8034 25.2304 34.8218 25.3209 34.8571 25.4054C34.8925 25.4898 34.9441 25.5664 35.0091 25.6309C35.0741 25.6953 35.1511 25.7464 35.2358 25.7811C35.3205 25.8158 35.4112 25.8334 35.5027 25.8331C35.6866 25.8324 35.8628 25.759 35.9928 25.6289C36.1229 25.4989 36.1962 25.3227 36.1969 25.1388V23.8784C37.1956 23.578 37.9312 22.6493 37.9311 21.5575C37.9311 20.2246 36.836 19.129 35.5027 19.129ZM35.5027 20.5229C36.0843 20.5229 36.5373 20.9796 36.5373 21.5575C36.5373 22.1353 36.0843 22.5865 35.5027 22.5865C34.9211 22.5865 34.4627 22.1353 34.4627 21.5575C34.4627 20.9796 34.9211 20.5229 35.5027 20.5229Z" fill="white"/>
</svg>
